SplineFontDB: 3.0
FontName: SchoolLight_UAwords-Regular
FullName: SchoolLight_UAwords
FamilyName: SchoolLight_UAwords
Weight: Book
Copyright: Typeface (C) (your company). 2014. All Rights Reserved
Version: 1.000;PS 001.000;hotconv 1.0.70;makeotf.lib2.5.58329
ItalicAngle: 0
UnderlinePosition: -182
UnderlineWidth: 75
Ascent: 819
Descent: 205
InvalidEm: 0
sfntRevision: 0x00010000
woffMajor: 0
woffMinor: 0
LayerCount: 2
Layer: 0 1 "Back" 1
Layer: 1 1 "Fore" 0
XUID: [1021 666 -465405832 13073]
StyleMap: 0x0040
FSType: 8
OS2Version: 3
OS2_WeightWidthSlopeOnly: 0
OS2_UseTypoMetrics: 0
CreationTime: 1449218962
ModificationTime: 1493399442
PfmFamily: 81
TTFWeight: 400
TTFWidth: 5
LineGap: 0
VLineGap: 0
Panose: 0 0 5 0 0 0 0 0 0 0
OS2TypoAscent: 717
OS2TypoAOffset: 0
OS2TypoDescent: -205
OS2TypoDOffset: 0
OS2TypoLinegap: 102
OS2WinAscent: 1024
OS2WinAOffset: 0
OS2WinDescent: 205
OS2WinDOffset: 0
HheadAscent: 1024
HheadAOffset: 0
HheadDescent: -205
HheadDOffset: 0
OS2SubXSize: 666
OS2SubYSize: 614
OS2SubXOff: 0
OS2SubYOff: 76
OS2SupXSize: 666
OS2SupYSize: 614
OS2SupXOff: 0
OS2SupYOff: 358
OS2StrikeYSize: 75
OS2StrikeYPos: 200
OS2CapHeight: 1355
OS2XHeight: 667
OS2Vendor: 'HL  '
OS2CodePages: 00000004.00000000
OS2UnicodeRanges: 00000001.00000000.00000000.00000000
DEI: 91125
TtTable: prep
PUSHW_1
 511
SCANCTRL
PUSHB_1
 1
SCANTYPE
SVTCA[y-axis]
MPPEM
PUSHB_1
 8
LT
IF
PUSHB_2
 1
 1
INSTCTRL
EIF
PUSHB_2
 70
 6
CALL
IF
POP
PUSHB_1
 16
EIF
MPPEM
PUSHB_1
 20
GT
IF
POP
PUSHB_1
 128
EIF
SCVTCI
PUSHB_1
 20
CALL
EndTTInstrs
TtTable: fpgm
PUSHB_1
 0
FDEF
PUSHB_1
 0
SZP0
MPPEM
PUSHB_1
 42
LT
IF
PUSHB_1
 74
SROUND
EIF
PUSHB_1
 0
SWAP
MIAP[rnd]
RTG
PUSHB_1
 6
CALL
IF
RTDG
EIF
MPPEM
PUSHB_1
 42
LT
IF
RDTG
EIF
DUP
MDRP[rp0,rnd,grey]
PUSHB_1
 1
SZP0
MDAP[no-rnd]
RTG
ENDF
PUSHB_1
 1
FDEF
DUP
MDRP[rp0,min,white]
PUSHB_1
 12
CALL
ENDF
PUSHB_1
 2
FDEF
MPPEM
GT
IF
RCVT
SWAP
EIF
POP
ENDF
PUSHB_1
 3
FDEF
ROUND[Black]
RTG
DUP
PUSHB_1
 64
LT
IF
POP
PUSHB_1
 64
EIF
ENDF
PUSHB_1
 4
FDEF
PUSHB_1
 6
CALL
IF

StartChar: .notdef
Encoding: 65536 -1 0
Width: 512
Flags: W
LayerCount: 2
Fore
SplineSet
49 0 m 1,0,-1
 461 0 l 1,1,-1
 461 717 l 1,2,-1
 49 717 l 1,3,-1
 49 0 l 1,0,-1
74 25 m 1,4,-1
 74 692 l 1,5,-1
 436 692 l 1,6,-1
 436 25 l 1,7,-1
 74 25 l 1,4,-1
192 572 m 0,8,9
 207 580 207 580 224 580 c 0,10,11
 253 580 253 580 270 564 c 0,12,13
 286 546 286 546 286 518 c 0,14,15
 286 481 286 481 246 410 c 0,16,17
 204 339 204 339 204 301 c 0,18,19
 204 277 204 277 222 227 c 1,20,-1
 238 227 l 1,21,22
 226 276 226 276 226 294 c 0,23,24
 226 316 226 316 241 339 c 128,-1,25
 256 362 256 362 294 409 c 0,26,27
 325 447 325 447 336.5 472.5 c 128,-1,28
 348 498 348 498 348 523 c 0,29,30
 348 563 348 563 320 586 c 0,31,32
 292 610 292 610 246 610 c 0,33,34
 219 610 219 610 199.5 600.5 c 128,-1,35
 180 591 180 591 162 574 c 1,36,-1
 162 552 l 1,37,38
 178 566 178 566 192 572 c 0,8,9
188 156 m 0,39,40
 188 150 188 150 192 147 c 2,41,-1
 222 112 l 2,42,43
 226 106 226 106 232 106 c 0,44,45
 236 106 236 106 242 114 c 2,46,-1
 270 144 l 2,47,48
 276 150 276 150 276 156 c 128,-1,49
 276 162 276 162 271 166 c 2,50,-1
 243 196 l 2,51,52
 236 202 236 202 232 201 c 0,53,54
 227 201 227 201 222 196 c 2,55,-1
 194 167 l 2,56,57
 188 160 188 160 188 156 c 0,39,40
EndSplineSet
EndChar

StartChar: exclam
Encoding: 33 33 4
Width: 354
Flags: W
LayerCount: 2
Fore
SplineSet
192 0 m 256,0,1
 182 0 182 0 175 11 c 0,2,3
 171 17 171 17 174 23 c 0,4,5
 179 37 179 37 191 37 c 0,6,7
 199 37 199 37 204 30 c 0,8,9
 212 19 212 19 207 9 c 0,10,11
 202 0 202 0 192 0 c 256,0,1
219 135 m 0,12,13
 217 135 217 135 214 136 c 0,14,15
 202 141 202 141 207 154 c 0,16,17
 246 252 246 252 381 682 c 0,18,19
 385 695 385 695 398 691 c 128,-1,20
 411 687 411 687 407 674 c 0,21,22
 265 228 265 228 232 144 c 0,23,24
 228 135 228 135 219 135 c 0,12,13
EndSplineSet
EndChar

StartChar: percent
Encoding: 37 37 8
Width: 793
Flags: W
LayerCount: 2
Fore
SplineSet
690 688 m 0,1,2
 669 656 669 656 652 618 c 2,3,-1
 610 538 l 1,4,-1
 570 462 l 1,5,-1
 526 384 l 1,6,-1
 476 299 l 2,7,8
 448 251 448 251 411 196 c 2,9,-1
 342 87 l 1,10,-1
 286 -1 l 1,11,-1
 238 -75 l 2,12,13
 210 -118 210 -118 202 -128 c 0,14,15
 194 -139 194 -139 189 -143.5 c 128,-1,16
 184 -148 184 -148 180 -148 c 128,-1,17
 176 -148 176 -148 170 -138 c 0,18,19
 168 -134 168 -134 166.5 -131 c 128,-1,20
 165 -128 165 -128 165 -126 c 0,21,22
 165 -122 165 -122 168 -115 c 128,-1,23
 171 -108 171 -108 178 -95 c 2,24,-1
 212 -41 l 1,25,-1
 259 32 l 1,26,-1
 315 118 l 1,27,-1
 372 208 l 1,28,-1
 428 295 l 1,29,-1
 457 346 l 1,30,-1
 494 409 l 1,31,-1
 598 596 l 1,32,-1
 617 630 l 1,33,-1
 650 689 l 2,34,35
 660 710 660 710 670 722 c 0,36,37
 677 732 677 732 682.5 735 c 128,-1,38
 688 738 688 738 697 738 c 0,39,40
 705 738 705 738 707 736 c 128,-1,41
 709 734 709 734 709 729 c 2,42,-1
 708 720 l 2,43,0
 708 716 708 716 690 688 c 0,1,2
382 448 m 128,-1,45
 372 410 372 410 353 377 c 0,46,47
 332 340 332 340 306 318 c 128,-1,48
 280 296 280 296 250 296 c 0,49,50
 234 296 234 296 213 307.5 c 128,-1,51
 192 319 192 319 172 338 c 0,52,53
 151 358 151 358 138.5 379.5 c 128,-1,54
 126 401 126 401 126 419 c 0,55,56
 126 452 126 452 139 492 c 0,57,58
 152 534 152 534 175 566 c 0,59,60
 200 602 200 602 230 624 c 0,61,62
 262 645 262 645 296 645 c 0,63,64
 318 645 318 645 334.5 640.5 c 128,-1,65
 351 636 351 636 363 624 c 0,66,67
 392 596 392 596 392 516 c 0,68,44
 392 486 392 486 382 448 c 128,-1,45
357 545 m 128,-1,70
 356 562 356 562 350 576 c 0,71,72
 344 592 344 592 332 602 c 128,-1,73
 320 612 320 612 302 612 c 0,74,75
 278 612 278 612 253 592 c 256,76,77
 228 572 228 572 205 538 c 0,78,79
 185 507 185 507 172.5 476 c 128,-1,80
 160 445 160 445 160 426 c 0,81,82
 160 409 160 409 169 392.5 c 128,-1,83
 178 376 178 376 192 362 c 128,-1,84
 206 348 206 348 221 340.5 c 128,-1,85
 236 333 236 333 248 333 c 0,86,87
 272 333 272 333 292 353 c 0,88,89
 312 372 312 372 327 404 c 0,90,91
 341 431 341 431 349.5 461.5 c 128,-1,92
 358 492 358 492 358 507 c 0,93,69
 358 528 358 528 357 545 c 128,-1,70
792.5 178 m 128,-1,95
 783 138 783 138 765 102 c 0,96,97
 714 0 714 0 634 0 c 0,98,99
 612 0 612 0 590 8 c 0,100,101
 569 16 569 16 553 32 c 0,102,103
 537 46 537 46 528 68 c 0,104,105
 518 90 518 90 518 112 c 0,106,107
 518 136 518 136 530 176 c 128,-1,108
 542 216 542 216 562 250 c 0,109,110
 616 342 616 342 680 342 c 0,111,112
 696 342 696 342 718 334 c 128,-1,113
 740 326 740 326 758 313 c 0,114,115
 780 297 780 297 791 279 c 0,116,117
 802 262 802 262 802 240 c 256,118,94
 802 218 802 218 792.5 178 c 128,-1,95
741 286 m 0,119,120
 727 296 727 296 711.5 301 c 128,-1,121
 696 306 696 306 680 306 c 0,122,123
 634 306 634 306 588 236 c 0,124,125
 570 208 570 208 559 176 c 128,-1,126
 548 144 548 144 548 121 c 0,127,128
 548 105 548 105 554 88.5 c 128,-1,129
 560 72 560 72 572 59 c 0,130,131
 598 30 598 30 634 30 c 0,132,133
 665 30 665 30 690.5 53.5 c 128,-1,134
 716 77 716 77 736 114 c 0,135,136
 753 145 753 145 761.5 178.5 c 128,-1,137
 770 212 770 212 770 234 c 0,138,139
 770 264 770 264 741 286 c 0,119,120
EndSplineSet
EndChar

StartChar: quotesingle
Encoding: 39 39 10
Width: 246
Flags: W
LayerCount: 2
Fore
SplineSet
264 484 m 2,1,-1
 246 448 l 2,2,3
 240 436 240 436 226 414 c 0,4,5
 216 399 216 399 210 399 c 0,6,7
 200 400 200 400 196 402 c 0,8,9
 194 404 194 404 194 406 c 128,-1,10
 194 408 194 408 195 410 c 0,11,12
 195 415 195 415 203.5 434.5 c 128,-1,13
 212 454 212 454 222 472 c 0,14,15
 236 496 236 496 246 508 c 0,16,17
 254 520 254 520 262 521 c 2,18,-1
 266 521 l 2,19,20
 276 522 276 522 276 518 c 2,21,-1
 276 517 l 2,22,23
 276 510 276 510 273 506 c 0,24,0
 272 500 272 500 264 484 c 2,1,-1
EndSplineSet
EndChar

StartChar: parenleft
Encoding: 40 40 11
Width: 305
Flags: W
LayerCount: 2
Fore
SplineSet
145 0 m 0,0,1
 139 0 139 0 135 5 c 0,2,3
 131 9 131 9 126 15.5 c 128,-1,4
 121 22 121 22 109 41 c 128,-1,5
 97 60 97 60 86.5 81 c 128,-1,6
 76 102 76 102 65.5 133.5 c 128,-1,7
 55 165 55 165 49.5 197.5 c 128,-1,8
 44 230 44 230 45 271.5 c 128,-1,9
 46 313 46 313 55 354 c 0,10,11
 68 410 68 410 98.5 465.5 c 128,-1,12
 129 521 129 521 159 557.5 c 128,-1,13
 189 594 189 594 225.5 627 c 128,-1,14
 262 660 262 660 277.5 671.5 c 128,-1,15
 293 683 293 683 303 689 c 0,16,17
 314 697 314 697 321.5 685.5 c 128,-1,18
 329 674 329 674 317 667 c 0,19,20
 310 662 310 662 295.5 651.5 c 128,-1,21
 281 641 281 641 246.5 609 c 128,-1,22
 212 577 212 577 182.5 542 c 128,-1,23
 153 507 153 507 123.5 454 c 128,-1,24
 94 401 94 401 82 348 c 0,25,26
 73 309 73 309 72.5 270 c 128,-1,27
 72 231 72 231 77 201 c 128,-1,28
 82 171 82 171 92 141 c 128,-1,29
 102 111 102 111 112 91.5 c 128,-1,30
 122 72 122 72 133 54.5 c 128,-1,31
 144 37 144 37 148.5 31 c 128,-1,32
 153 25 153 25 155 22 c 0,33,34
 164 12 164 12 154 3 c 0,35,36
 150 0 150 0 145 0 c 0,0,1
EndSplineSet
EndChar

StartChar: parenright
Encoding: 41 41 12
Width: 305
Flags: W
LayerCount: 2
Fore
SplineSet
38 0 m 0,0,1
 31 0 31 0 27 6 c 0,2,3
 19 17 19 17 31 25 c 0,4,5
 38 30 38 30 52.5 40.5 c 128,-1,6
 67 51 67 51 101.5 83 c 128,-1,7
 136 115 136 115 165.5 150 c 128,-1,8
 195 185 195 185 224.5 237.5 c 128,-1,9
 254 290 254 290 266 344 c 0,10,11
 275 382 275 382 275.5 421 c 128,-1,12
 276 460 276 460 271 490.5 c 128,-1,13
 266 521 266 521 256 550.5 c 128,-1,14
 246 580 246 580 236 600 c 128,-1,15
 226 620 226 620 215 637.5 c 128,-1,16
 204 655 204 655 199.5 660.5 c 128,-1,17
 195 666 195 666 193 669 c 0,18,19
 184 679 184 679 194 688 c 128,-1,20
 204 697 204 697 213 687 c 0,21,22
 217 683 217 683 222 676.5 c 128,-1,23
 227 670 227 670 239 650.5 c 128,-1,24
 251 631 251 631 261.5 610.5 c 128,-1,25
 272 590 272 590 282.5 558.5 c 128,-1,26
 293 527 293 527 298.5 494.5 c 128,-1,27
 304 462 304 462 303 420.5 c 128,-1,28
 302 379 302 379 293 338 c 0,29,30
 280 281 280 281 249.5 226 c 128,-1,31
 219 171 219 171 189 134.5 c 128,-1,32
 159 98 159 98 122.5 64.5 c 128,-1,33
 86 31 86 31 70.5 20 c 128,-1,34
 55 9 55 9 45 2 c 0,35,36
 42 0 42 0 38 0 c 0,0,1
EndSplineSet
EndChar

StartChar: asterisk
Encoding: 42 42 13
Width: 651
Flags: W
LayerCount: 2
Fore
SplineSet
503 436 m 2,1,-1
 482 420 l 1,2,-1
 445 394 l 1,3,-1
 406 366 l 1,4,-1
 372 342 l 2,5,6
 356 332 356 332 348 324 c 1,7,8
 354 314 354 314 370 289 c 2,9,-1
 398 246 l 2,10,11
 418 216 418 216 424 207 c 0,12,13
 434 194 434 194 433 182 c 0,14,15
 433 176 433 176 429.5 172 c 128,-1,16
 426 168 426 168 420 170 c 0,17,18
 416 170 416 170 410 178 c 0,19,20
 406 182 406 182 396 197 c 2,21,-1
 380 221 l 1,22,-1
 364 246 l 1,23,-1
 346 272 l 2,24,25
 332 292 332 292 328 297 c 1,26,27
 310 260 310 260 289 190 c 0,28,29
 279 158 279 158 275 148 c 0,30,31
 270 134 270 134 264 134 c 0,32,33
 254 138 254 138 251 140 c 256,34,35
 248 142 248 142 248 146 c 0,36,37
 248 149 248 149 251 158 c 0,38,39
 251 168 251 168 257 188 c 2,40,-1
 270 230 l 1,41,-1
 282 266 l 1,42,-1
 288 282 l 1,43,-1
 247 248 l 1,44,-1
 210 217 l 2,45,46
 198 206 198 206 190 196 c 0,47,48
 182 188 182 188 176 188 c 0,49,50
 162 188 162 188 163 205 c 0,51,52
 162 221 162 221 218 263 c 2,53,-1
 265 298 l 1,54,-1
 304 326 l 1,55,-1
 290 348 l 2,56,57
 279 365 279 365 272 375 c 0,58,59
 254 402 254 402 234 422 c 0,60,61
 220 438 220 438 220 448 c 0,62,63
 220 460 220 460 234 459 c 0,64,65
 240 458 240 458 251 448 c 0,66,67
 264 436 264 436 274 422 c 2,68,-1
 298 389 l 2,69,70
 316 366 316 366 322 356 c 1,71,-1
 338 394 l 1,72,-1
 360 447 l 1,73,-1
 382 491 l 2,74,75
 390 508 390 508 398 508 c 0,76,77
 408 508 408 508 409.5 506.5 c 128,-1,78
 411 505 411 505 411 500.5 c 128,-1,79
 411 496 411 496 411 494 c 0,80,81
 411 488 411 488 404.5 470 c 128,-1,82
 398 452 398 452 392 440 c 2,83,-1
 376 401 l 2,84,85
 372 392 372 392 360 366 c 1,86,-1
 398 398 l 1,87,-1
 442 432 l 2,88,89
 447 436 447 436 478 458 c 0,90,91
 492 466 492 466 496 466 c 0,92,93
 503 467 503 467 507.5 462.5 c 128,-1,94
 512 458 512 458 512 450 c 0,95,0
 508 440 508 440 503 436 c 2,1,-1
EndSplineSet
EndChar

StartChar: plus
Encoding: 43 43 14
Width: 306
Flags: W
LayerCount: 2
Fore
SplineSet
259 209 m 2,0,-1
 47 209 l 2,1,2
 33 209 33 209 33 222 c 128,-1,3
 33 235 33 235 47 235 c 2,4,-1
 259 235 l 2,5,6
 273 235 273 235 273 222 c 128,-1,7
 273 209 273 209 259 209 c 2,0,-1
139 105 m 0,8,9
 138 105 138 105 136 105 c 0,10,11
 123 108 123 108 125 120 c 2,12,-1
 160 324 l 2,13,14
 162 337 162 337 175 335 c 128,-1,15
 188 333 188 333 186 320 c 2,16,-1
 152 116 l 2,17,18
 150 105 150 105 139 105 c 0,8,9
EndSplineSet
EndChar

StartChar: comma
Encoding: 44 44 15
Width: 183
Flags: W
LayerCount: 2
Fore
SplineSet
119 2 m 128,-1,1
 112 -16 112 -16 100 -35 c 0,2,3
 88 -52 88 -52 80 -62 c 0,4,5
 70 -74 70 -74 66 -74 c 0,6,7
 52 -74 52 -74 51 -58 c 0,8,9
 50 -54 50 -54 56 -46 c 2,10,-1
 69 -32 l 2,11,12
 70 -30 70 -30 75.5 -23.5 c 128,-1,13
 81 -17 81 -17 84.5 -9.5 c 128,-1,14
 88 -2 88 -2 88 4 c 128,-1,15
 88 10 88 10 85 14 c 2,16,-1
 80 22 l 1,17,-1
 74 30 l 2,18,19
 70 34 70 34 70 40 c 0,20,21
 70 50 70 50 77 59 c 128,-1,22
 84 68 84 68 94 68 c 0,23,24
 108 68 108 68 117 57.5 c 128,-1,25
 126 47 126 47 126 33 c 0,26,0
 126 20 126 20 119 2 c 128,-1,1
EndSplineSet
EndChar

StartChar: hyphen
Encoding: 45 45 16
Width: 301
Flags: W
LayerCount: 2
Fore
SplineSet
255 209 m 2,0,-1
 43 209 l 2,1,2
 29 209 29 209 29 222 c 128,-1,3
 29 235 29 235 43 235 c 2,4,-1
 255 235 l 2,5,6
 269 235 269 235 269 222 c 128,-1,7
 269 209 269 209 255 209 c 2,0,-1
EndSplineSet
EndChar

StartChar: period
Encoding: 46 46 17
Width: 181
Flags: W
LayerCount: 2
Fore
SplineSet
104 9 m 128,-1,1
 96 2 96 2 86 2 c 0,2,3
 74 2 74 2 67 10 c 128,-1,4
 60 18 60 18 60 28 c 128,-1,5
 60 38 60 38 67 45.5 c 128,-1,6
 74 53 74 53 84 53 c 0,7,8
 96 53 96 53 104 46 c 0,9,10
 112 40 112 40 112 28 c 128,-1,0
 112 16 112 16 104 9 c 128,-1,1
EndSplineSet
EndChar

StartChar: slash
Encoding: 47 47 18
Width: 550
Flags: W
LayerCount: 2
Fore
SplineSet
508 696 m 0,1,2
 494 674 494 674 471 628 c 0,3,4
 449 586 449 586 429 548 c 2,5,-1
 387 474 l 1,6,-1
 342 399 l 1,7,-1
 293 314 l 1,8,-1
 230 210 l 1,9,-1
 60 -68 l 2,10,11
 42 -96 42 -96 24 -122 c 0,12,13
 9 -142 9 -142 5 -142 c 2,14,-1
 3 -142 l 2,15,16
 -1 -142 -1 -142 -2.5 -141 c 128,-1,17
 -4 -140 -4 -140 -4 -135 c 0,18,19
 -4 -127 -4 -127 -3 -125 c 0,20,21
 -3 -121 -3 -121 9 -99 c 2,22,-1
 41 -43 l 1,23,-1
 86 33 l 1,24,-1
 140 120 l 1,25,-1
 250 300 l 1,26,-1
 280 350 l 1,27,-1
 316 414 l 1,28,-1
 354 482 l 1,29,-1
 420 601 l 2,30,31
 434 627 434 627 440 635 c 2,32,-1
 472 694 l 2,33,34
 486 718 486 718 490 724 c 0,35,36
 496 732 496 732 500.5 734 c 128,-1,37
 505 736 505 736 512 736 c 2,38,39
 512 736 512 736 514 737 c 0,40,41
 518 737 518 737 526 728 c 1,42,0
 524 722 524 722 508 696 c 0,1,2
EndSplineSet
EndChar

StartChar: zero
Encoding: 48 48 19
Width: 650
Flags: W
LayerCount: 2
Fore
SplineSet
244 0 m 0,0,1
 223 0 223 0 202 6 c 0,2,3
 149 21 149 21 126 68 c 0,4,5
 78 168 78 168 183 413 c 1,6,-1
 189 429 l 2,7,8
 201 456 201 456 208.5 473.5 c 128,-1,9
 216 491 216 491 232 523 c 128,-1,10
 248 555 248 555 262.5 577 c 128,-1,11
 277 599 277 599 298.5 625 c 128,-1,12
 320 651 320 651 341 667 c 128,-1,13
 362 683 362 683 389.5 693 c 128,-1,14
 417 703 417 703 446 702 c 0,15,16
 497 699 497 699 528 653 c 0,17,18
 563 592 563 592 563 500.5 c 128,-1,19
 563 409 563 409 534 332 c 0,20,21
 521 295 521 295 505 258.5 c 128,-1,22
 489 222 489 222 460.5 172.5 c 128,-1,23
 432 123 432 123 401.5 87 c 128,-1,24
 371 51 371 51 329 25.5 c 128,-1,25
 287 0 287 0 244 0 c 0,0,1
438 670 m 0,26,27
 415 670 415 670 392 659.5 c 128,-1,28
 369 649 369 649 351.5 634.5 c 128,-1,29
 334 620 334 620 315.5 595.5 c 128,-1,30
 297 571 297 571 284.5 551.5 c 128,-1,31
 272 532 272 532 257.5 502 c 128,-1,32
 243 472 243 472 236.5 457 c 128,-1,33
 230 442 230 442 219 416 c 2,34,-1
 213 402 l 2,35,36
 114 169 114 169 155 82 c 0,37,38
 171 48 171 48 211 37 c 0,39,40
 227 32 227 32 244 32 c 0,41,42
 282 32 282 32 320.5 58.5 c 128,-1,43
 359 85 359 85 386.5 120 c 128,-1,44
 414 155 414 155 440 203 c 128,-1,45
 466 251 466 251 479.5 282 c 128,-1,46
 493 313 493 313 504 343 c 0,47,48
 530 414 530 414 530.5 498.5 c 128,-1,49
 531 583 531 583 501 635 c 0,50,51
 479 668 479 668 444 669 c 0,52,53
 441 670 441 670 438 670 c 0,26,27
EndSplineSet
EndChar

StartChar: one
Encoding: 49 49 20
Width: 649
Flags: W
LayerCount: 2
Fore
SplineSet
216 0 m 0,0,1
 213 0 213 0 210 1 c 0,2,3
 204 4 204 4 201 10 c 128,-1,4
 198 16 198 16 201 22 c 2,5,-1
 388 479 l 1,6,7
 352 437 352 437 310 403.5 c 128,-1,8
 268 370 268 370 251 360 c 128,-1,9
 234 350 234 350 223 345 c 0,10,11
 217 342 217 342 210.5 344.5 c 128,-1,12
 204 347 204 347 201 353 c 128,-1,13
 198 359 198 359 200.5 365.5 c 128,-1,14
 203 372 203 372 209 374.5 c 128,-1,15
 215 377 215 377 227.5 384 c 128,-1,16
 240 391 240 391 271 414.5 c 128,-1,17
 302 438 302 438 331.5 466.5 c 128,-1,18
 361 495 361 495 396.5 543 c 128,-1,19
 432 591 432 591 457 646 c 2,20,-1
 476 692 l 2,21,22
 482 707 482 707 496 701 c 0,23,24
 503 699 503 699 505.5 692.5 c 128,-1,25
 508 686 508 686 506 680 c 0,26,27
 497 656 497 656 486 632 c 2,28,-1
 231 10 l 2,29,30
 227 0 227 0 216 0 c 0,0,1
EndSplineSet
EndChar

StartChar: two
Encoding: 50 50 21
Width: 653
Flags: W
LayerCount: 2
Fore
SplineSet
359 0 m 0,0,1
 340 0 340 0 303.5 14.5 c 128,-1,2
 267 29 267 29 234 30 c 0,3,4
 168 33 168 33 129 3 c 0,5,6
 120 -3 120 -3 111 2 c 128,-1,7
 102 7 102 7 103 17 c 0,8,9
 106 97 106 97 291 282 c 0,10,11
 334 325 334 325 356.5 348.5 c 128,-1,12
 379 372 379 372 410.5 408 c 128,-1,13
 442 444 442 444 458 472.5 c 128,-1,14
 474 501 474 501 479 525 c 0,15,16
 495 607 495 607 437 645 c 0,17,18
 404 667 404 667 359.5 663.5 c 128,-1,19
 315 660 315 660 276 633 c 0,20,21
 233 604 233 604 226 564 c 0,22,23
 222 544 222 544 228 523 c 128,-1,24
 234 502 234 502 238.5 493.5 c 128,-1,25
 243 485 243 485 246 482 c 0,26,27
 255 469 255 469 242 459 c 128,-1,28
 229 449 229 449 220 463 c 0,29,30
 215 469 215 469 209.5 479 c 128,-1,31
 204 489 204 489 196.5 516.5 c 128,-1,32
 189 544 189 544 194 569 c 0,33,34
 203 623 203 623 258 660 c 0,35,36
 305 692 305 692 359.5 695.5 c 128,-1,37
 414 699 414 699 455 672 c 0,38,39
 491 649 491 649 505.5 608.5 c 128,-1,40
 520 568 520 568 511 519 c 0,41,42
 506 491 506 491 488.5 460 c 128,-1,43
 471 429 471 429 438.5 391 c 128,-1,44
 406 353 406 353 382.5 328.5 c 128,-1,45
 359 304 359 304 314 259 c 0,46,47
 258 203 258 203 210.5 145.5 c 128,-1,48
 163 88 163 88 145 51 c 1,49,50
 161 58 161 58 194.5 62 c 128,-1,51
 228 66 228 66 246 63 c 256,52,53
 264 60 264 60 286.5 52.5 c 128,-1,54
 309 45 309 45 322.5 40 c 128,-1,55
 336 35 336 35 354.5 32.5 c 128,-1,56
 373 30 373 30 382 37 c 0,57,58
 434 61 434 61 451 76 c 0,59,60
 463 86 463 86 473.5 74 c 128,-1,61
 484 62 484 62 472 52 c 0,62,63
 453 34 453 34 396 8 c 0,64,65
 380 0 380 0 359 0 c 0,0,1
EndSplineSet
EndChar

StartChar: three
Encoding: 51 51 22
Width: 653
Flags: W
LayerCount: 2
Fore
SplineSet
298 0 m 0,0,1
 297 0 297 0 294 0 c 0,2,3
 218 2 218 2 178 45 c 0,4,5
 143 82 143 82 145 142 c 0,6,7
 145 148 145 148 150 152.5 c 128,-1,8
 155 157 155 157 162 157 c 256,9,10
 169 157 169 157 173.5 152 c 128,-1,11
 178 147 178 147 178 140 c 0,12,13
 176 94 176 94 201 68 c 0,14,15
 233 34 233 34 295 32 c 0,16,17
 326 31 326 31 368 45 c 128,-1,18
 410 59 410 59 440 91 c 0,19,20
 487 141 487 141 479 224 c 0,21,22
 475 268 475 268 456 300 c 128,-1,23
 437 332 437 332 415.5 347 c 128,-1,24
 394 362 394 362 368 370.5 c 128,-1,25
 342 379 342 379 330 380 c 128,-1,26
 318 381 318 381 312 381 c 0,27,28
 298 381 298 381 295.5 394.5 c 128,-1,29
 293 408 293 408 306 412 c 0,30,31
 355 430 355 430 393.5 454.5 c 128,-1,32
 432 479 432 479 453 504 c 128,-1,33
 474 529 474 529 483.5 545.5 c 128,-1,34
 493 562 493 562 498 576 c 0,35,36
 511 611 511 611 496 638 c 0,37,38
 484 660 484 660 454 668 c 0,39,40
 441 671 441 671 426 666.5 c 128,-1,41
 411 662 411 662 400.5 655 c 128,-1,42
 390 648 390 648 379.5 637.5 c 128,-1,43
 369 627 369 627 365.5 622.5 c 128,-1,44
 362 618 362 618 360 616 c 0,45,46
 351 602 351 602 338 611 c 0,47,48
 332 615 332 615 331 621.5 c 128,-1,49
 330 628 330 628 333 634 c 0,50,51
 335 636 335 636 337.5 639.5 c 128,-1,52
 340 643 340 643 347.5 651.5 c 128,-1,53
 355 660 355 660 362.5 666.5 c 128,-1,54
 370 673 370 673 382 682 c 128,-1,55
 394 691 394 691 406 695 c 128,-1,56
 418 699 418 699 433 702 c 128,-1,57
 448 705 448 705 462 699 c 0,58,59
 506 688 506 688 525 653 c 0,60,61
 546 613 546 613 529 565 c 0,62,63
 524 552 524 552 515.5 536 c 128,-1,64
 507 520 507 520 489 496.5 c 128,-1,65
 471 473 471 473 440 448 c 128,-1,66
 409 423 409 423 370 404 c 1,67,68
 393 397 393 397 414 385.5 c 128,-1,69
 435 374 435 374 456.5 354 c 128,-1,70
 478 334 478 334 492.5 301 c 128,-1,71
 507 268 507 268 511 227 c 0,72,73
 521 129 521 129 464 69 c 0,74,75
 430 32 430 32 382.5 16 c 128,-1,76
 335 0 335 0 298 0 c 0,0,1
EndSplineSet
EndChar

StartChar: four
Encoding: 52 52 23
Width: 651
Flags: W
LayerCount: 2
Fore
SplineSet
512 228 m 0,0,1
 511 228 511 228 509 229 c 0,2,3
 448 241 448 241 353.5 243 c 128,-1,4
 259 245 259 245 219 243 c 128,-1,5
 179 241 179 241 154 239 c 0,6,7
 143 238 143 238 138 247.5 c 128,-1,8
 133 257 133 257 140 265 c 0,9,10
 209 353 209 353 284.5 465.5 c 128,-1,11
 360 578 360 578 387.5 624 c 128,-1,12
 415 670 415 670 429 694 c 0,13,14
 432 700 432 700 438.5 701.5 c 128,-1,15
 445 703 445 703 451 700 c 128,-1,16
 457 697 457 697 458.5 690.5 c 128,-1,17
 460 684 460 684 457 678 c 0,18,19
 333 462 333 462 187 273 c 1,20,21
 392 285 392 285 515 261 c 0,22,23
 522 259 522 259 525.5 253.5 c 128,-1,24
 529 248 529 248 528 242 c 0,25,26
 526 228 526 228 512 228 c 0,0,1
315 0 m 0,27,28
 312 0 312 0 309 1 c 0,29,30
 303 4 303 4 300 10 c 128,-1,31
 297 16 297 16 300 22 c 2,32,-1
 509 528 l 2,33,34
 512 534 512 534 518 536.5 c 128,-1,35
 524 539 524 539 530.5 536.5 c 128,-1,36
 537 534 537 534 539.5 527.5 c 128,-1,37
 542 521 542 521 539 515 c 2,38,-1
 330 10 l 2,39,40
 326 0 326 0 315 0 c 0,27,28
EndSplineSet
EndChar

StartChar: five
Encoding: 53 53 24
Width: 650
Flags: W
LayerCount: 2
Fore
SplineSet
279 0 m 0,0,1
 213 0 213 0 169 34 c 0,2,3
 120 72 120 72 120 138 c 0,4,5
 120 145 120 145 124.5 149.5 c 128,-1,6
 129 154 129 154 136 154 c 128,-1,7
 143 154 143 154 147.5 149.5 c 128,-1,8
 152 145 152 145 152 138 c 0,9,10
 152 88 152 88 189 59 c 0,11,12
 224 32 224 32 279 32 c 0,13,14
 329 32 329 32 373.5 53 c 128,-1,15
 418 74 418 74 448 118 c 128,-1,16
 478 162 478 162 478 220 c 0,17,18
 478 315 478 315 424 358 c 0,19,20
 406 372 406 372 381 380.5 c 128,-1,21
 356 389 356 389 336 391 c 128,-1,22
 316 393 316 393 294 392 c 128,-1,23
 272 391 272 391 265 390 c 128,-1,24
 258 389 258 389 252 387 c 0,25,26
 243 385 243 385 236.5 392.5 c 128,-1,27
 230 400 230 400 234 409 c 2,28,-1
 349 689 l 2,29,30
 354 702 354 702 368 698 c 0,31,32
 406 688 406 688 443.5 684.5 c 128,-1,33
 481 681 481 681 506 682.5 c 128,-1,34
 531 684 531 684 553 689 c 128,-1,35
 575 694 575 694 582.5 696.5 c 128,-1,36
 590 699 590 699 593 701 c 0,37,38
 599 703 599 703 605.5 701 c 128,-1,39
 612 699 612 699 614.5 693 c 128,-1,40
 617 687 617 687 615 680.5 c 128,-1,41
 613 674 613 674 607 671 c 0,42,43
 602 669 602 669 594.5 666 c 128,-1,44
 587 663 587 663 564 658 c 128,-1,45
 541 653 541 653 515.5 650.5 c 128,-1,46
 490 648 490 648 451.5 651 c 128,-1,47
 413 654 413 654 373 663 c 1,48,-1
 275 423 l 1,49,50
 381 434 381 434 444 383 c 0,51,52
 510 330 510 330 510 220 c 0,53,54
 510 152 510 152 475 100.5 c 128,-1,55
 440 49 440 49 388.5 24.5 c 128,-1,56
 337 0 337 0 279 0 c 0,0,1
EndSplineSet
EndChar

StartChar: six
Encoding: 54 54 25
Width: 649
Flags: W
LayerCount: 2
Fore
SplineSet
329 0 m 0,0,1
 304 0 304 0 277 8 c 0,2,3
 221 23 221 23 200 74 c 0,4,5
 143 206 143 206 333 570 c 0,6,7
 353 608 353 608 376 635.5 c 128,-1,8
 399 663 399 663 420 675.5 c 128,-1,9
 441 688 441 688 462 695.5 c 128,-1,10
 483 703 483 703 499.5 701.5 c 128,-1,11
 516 700 516 700 530 699 c 0,12,13
 570 691 570 691 600 664 c 128,-1,14
 630 637 630 637 633 612 c 0,15,16
 633 605 633 605 628.5 600 c 128,-1,17
 624 595 624 595 617.5 594.5 c 128,-1,18
 611 594 611 594 606 598.5 c 128,-1,19
 601 603 601 603 600 609 c 0,20,21
 599 622 599 622 576.5 641.5 c 128,-1,22
 554 661 554 661 523 667 c 0,23,24
 431 686 431 686 362 555 c 0,25,26
 311 458 311 458 278 378 c 1,27,28
 314 406 314 406 361 418 c 0,29,30
 436 439 436 439 491 386 c 0,31,32
 522 357 522 357 534 312 c 128,-1,33
 546 267 546 267 535 220 c 0,34,35
 520 153 520 153 487.5 100.5 c 128,-1,36
 455 48 455 48 412 23 c 0,37,38
 373 0 373 0 329 0 c 0,0,1
245 288 m 0,39,40
 202 150 202 150 229 87 c 0,41,42
 245 50 245 50 286 39 c 0,43,44
 346 22 346 22 396 51 c 0,45,46
 433 73 433 73 461.5 119.5 c 128,-1,47
 490 166 490 166 504 227 c 0,48,49
 513 266 513 266 503.5 302.5 c 128,-1,50
 494 339 494 339 468 363 c 0,51,52
 427 403 427 403 369 387 c 0,53,54
 340 379 340 379 315.5 364.5 c 128,-1,55
 291 350 291 350 277 333.5 c 128,-1,56
 263 317 263 317 256 307 c 128,-1,57
 249 297 249 297 245 288 c 0,39,40
EndSplineSet
EndChar

StartChar: seven
Encoding: 55 55 26
Width: 650
Flags: W
LayerCount: 2
Fore
SplineSet
224 0 m 0,0,1
 223 0 223 0 222 0 c 0,2,3
 215 1 215 1 211 6 c 128,-1,4
 207 11 207 11 208 18 c 0,5,6
 217 100 217 100 252.5 196 c 128,-1,7
 288 292 288 292 337 381 c 128,-1,8
 386 470 386 470 424 530.5 c 128,-1,9
 462 591 462 591 499 644 c 1,10,11
 459 634 459 634 412.5 633 c 128,-1,12
 366 632 366 632 323.5 639 c 128,-1,13
 281 646 281 646 254 652.5 c 128,-1,14
 227 659 227 659 204 666 c 1,15,-1
 161 583 l 2,16,17
 158 577 158 577 151.5 575 c 128,-1,18
 145 573 145 573 139 576 c 128,-1,19
 133 579 133 579 131 585.5 c 128,-1,20
 129 592 129 592 132 598 c 2,21,-1
 181 693 l 2,22,23
 188 706 188 706 201 701 c 0,24,25
 210 698 210 698 225 693.5 c 128,-1,26
 240 689 240 689 282.5 680 c 128,-1,27
 325 671 325 671 364.5 667.5 c 128,-1,28
 404 664 404 664 452.5 669 c 128,-1,29
 501 674 501 674 536 691 c 0,30,31
 548 697 548 697 556 687 c 128,-1,32
 564 677 564 677 556 667 c 0,33,34
 545 652 545 652 524.5 623.5 c 128,-1,35
 504 595 504 595 454 516.5 c 128,-1,36
 404 438 404 438 363.5 362.5 c 128,-1,37
 323 287 323 287 286 189.5 c 128,-1,38
 249 92 249 92 240 14 c 0,39,40
 239 8 239 8 234.5 4 c 128,-1,41
 230 0 230 0 224 0 c 0,0,1
249 249 m 0,42,43
 190 249 190 249 164 255 c 0,44,45
 157 257 157 257 153.5 262.5 c 128,-1,46
 150 268 150 268 151.5 274.5 c 128,-1,47
 153 281 153 281 158.5 284.5 c 128,-1,48
 164 288 164 288 170 287 c 0,49,50
 177 285 177 285 194.5 283.5 c 128,-1,51
 212 282 212 282 274 283 c 128,-1,52
 336 284 336 284 413 293 c 0,53,54
 419 293 419 293 424.5 289 c 128,-1,55
 430 285 430 285 430.5 278.5 c 128,-1,56
 431 272 431 272 427 266.5 c 128,-1,57
 423 261 423 261 416 260 c 0,58,59
 322 249 322 249 249 249 c 0,42,43
EndSplineSet
EndChar

StartChar: eight
Encoding: 56 56 27
Width: 649
Flags: W
LayerCount: 2
Fore
SplineSet
291 0 m 2,0,1
 210 0 210 0 162 59 c 0,2,3
 119 113 119 113 135 184 c 0,4,5
 157 282 157 282 317 396 c 1,6,7
 299 420 299 420 283.5 445 c 128,-1,8
 268 470 268 470 255.5 510.5 c 128,-1,9
 243 551 243 551 251 583 c 0,10,11
 264 635 264 635 308 668.5 c 128,-1,12
 352 702 352 702 407 702 c 0,13,14
 421 702 421 702 434 700 c 0,15,16
 497 689 497 689 525 640 c 0,17,18
 548 598 548 598 528 549 c 0,19,20
 502 484 502 484 445 443 c 0,21,22
 439 438 439 438 416 423 c 0,23,24
 385 403 385 403 366 391 c 1,25,26
 456 295 456 295 472 241 c 0,27,28
 486 195 486 195 482 153 c 0,29,30
 476 86 476 86 419 43.5 c 128,-1,31
 362 1 362 1 293 0 c 2,32,33
 293 0 293 0 292 0 c 128,-1,34
 291 0 291 0 291 0 c 2,0,1
293 32 m 2,35,36
 350 33 350 33 397.5 67.5 c 128,-1,37
 445 102 445 102 450 156 c 0,38,39
 453 192 453 192 441 232 c 0,40,41
 427 280 427 280 339 372 c 1,42,43
 186 263 186 263 167 177 c 0,44,45
 154 122 154 122 188 80 c 0,46,47
 225 32 225 32 291 32 c 2,48,-1
 293 32 l 2,35,36
407 670 m 0,49,50
 363 670 363 670 328 643 c 128,-1,51
 293 616 293 616 283 575 c 0,52,53
 274 541 274 541 294 497 c 128,-1,54
 314 453 314 453 344 415 c 1,55,56
 365 429 365 429 399 451 c 0,57,58
 421 465 421 465 426 469 c 0,59,60
 475 505 475 505 498 561 c 0,61,62
 512 596 512 596 496 624 c 0,63,64
 477 659 477 659 428 668 c 0,65,66
 418 670 418 670 407 670 c 0,49,50
EndSplineSet
EndChar

StartChar: nine
Encoding: 57 57 28
Width: 649
Flags: W
LayerCount: 2
Fore
SplineSet
245 0 m 0,0,1
 231 0 231 0 218 3 c 0,2,3
 178 11 178 11 147.5 38 c 128,-1,4
 117 65 117 65 115 90 c 0,5,6
 114 97 114 97 118.5 102 c 128,-1,7
 123 107 123 107 129.5 107.5 c 128,-1,8
 136 108 136 108 141.5 103.5 c 128,-1,9
 147 99 147 99 147 93 c 0,10,11
 148 80 148 80 170.5 60.5 c 128,-1,12
 193 41 193 41 224 34 c 0,13,14
 317 16 317 16 386 147 c 0,15,16
 436 244 436 244 469 324 c 1,17,18
 433 296 433 296 387 284 c 0,19,20
 311 263 311 263 257 315 c 0,21,22
 225 345 225 345 213 390 c 128,-1,23
 201 435 201 435 212 482 c 0,24,25
 227 549 227 549 260 601.5 c 128,-1,26
 293 654 293 654 335 679 c 0,27,28
 397 715 397 715 471 694 c 0,29,30
 526 679 526 679 548 628 c 0,31,32
 605 496 605 496 414 132 c 0,33,34
 345 0 345 0 245 0 c 0,0,1
419 670 m 0,35,36
 383 670 383 670 352 651 c 0,37,38
 315 629 315 629 286 582.5 c 128,-1,39
 257 536 257 536 244 475 c 0,40,41
 235 436 235 436 244.5 399.5 c 128,-1,42
 254 363 254 363 279 339 c 0,43,44
 320 299 320 299 378 315 c 0,45,46
 408 323 408 323 432 337.5 c 128,-1,47
 456 352 456 352 470.5 368.5 c 128,-1,48
 485 385 485 385 491.5 395.5 c 128,-1,49
 498 406 498 406 502 414 c 0,50,51
 546 552 546 552 518 615 c 0,52,53
 502 652 502 652 462 663 c 0,54,55
 440 670 440 670 419 670 c 0,35,36
EndSplineSet
EndChar

StartChar: colon
Encoding: 58 58 29
Width: 221
Flags: W
LayerCount: 2
Fore
SplineSet
182 289.5 m 128,-1,1
 174 282 174 282 164 282 c 0,2,3
 152 282 152 282 145 290 c 128,-1,4
 138 298 138 298 138 308 c 0,5,6
 138 320 138 320 146 327 c 128,-1,7
 154 334 154 334 165 334 c 0,8,9
 175 334 175 334 182.5 326 c 128,-1,10
 190 318 190 318 190 308 c 0,11,0
 190 297 190 297 182 289.5 c 128,-1,1
104 10 m 256,12,13
 96 2 96 2 86 2 c 0,14,15
 74 2 74 2 67 10 c 128,-1,16
 60 18 60 18 60 28 c 128,-1,17
 60 38 60 38 67 45.5 c 128,-1,18
 74 53 74 53 84 53 c 0,19,20
 96 53 96 53 104 46 c 0,21,22
 112 40 112 40 112 28 c 0,23,24
 112 18 112 18 104 10 c 256,12,13
EndSplineSet
EndChar

StartChar: semicolon
Encoding: 59 59 30
Width: 254
Flags: W
LayerCount: 2
Fore
SplineSet
177.5 289 m 128,-1,1
 170 282 170 282 160 282 c 0,2,3
 148 282 148 282 141 290 c 128,-1,4
 134 298 134 298 134 308 c 0,5,6
 134 320 134 320 142 327 c 128,-1,7
 150 334 150 334 160 334 c 128,-1,8
 170 334 170 334 177.5 326 c 128,-1,9
 185 318 185 318 185 308 c 0,10,0
 185 296 185 296 177.5 289 c 128,-1,1
118 0 m 0,11,12
 111 -18 111 -18 100.5 -35 c 128,-1,13
 90 -52 90 -52 80 -62 c 0,14,15
 70 -74 70 -74 66 -74 c 0,16,17
 52 -74 52 -74 51 -58 c 0,18,19
 50 -54 50 -54 56 -46 c 2,20,-1
 69 -32 l 2,21,22
 70 -30 70 -30 75.5 -23.5 c 128,-1,23
 81 -17 81 -17 84.5 -9.5 c 128,-1,24
 88 -2 88 -2 88 4 c 128,-1,25
 88 10 88 10 85 14 c 2,26,-1
 80 22 l 1,27,-1
 74 30 l 2,28,29
 70 34 70 34 70 40 c 0,30,31
 70 50 70 50 77 59 c 128,-1,32
 84 68 84 68 94 68 c 0,33,34
 108 68 108 68 117 57.5 c 128,-1,35
 126 47 126 47 126 33 c 0,36,37
 126 18 126 18 118 0 c 0,11,12
EndSplineSet
EndChar

StartChar: less
Encoding: 60 60 31
Width: 653
Flags: W
LayerCount: 2
Fore
SplineSet
443 492 m 0,1,2
 417 477 417 477 407 469 c 0,3,4
 395 461 395 461 380 451 c 0,5,6
 362 440 362 440 367 442 c 2,7,-1
 320 413 l 1,8,-1
 300 399 l 1,9,-1
 234 351 l 2,10,11
 204 329 204 329 196 324 c 1,12,-1
 248 295 l 1,13,-1
 310 264 l 2,14,15
 330 255 330 255 355 241 c 2,16,-1
 404 215 l 2,17,18
 422 205 422 205 442 192 c 0,19,20
 458 182 458 182 458 178 c 128,-1,21
 458 174 458 174 452 168.5 c 128,-1,22
 446 163 446 163 441 163 c 0,23,24
 440 164 440 164 422 172 c 2,25,-1
 384 191 l 1,26,-1
 340 215 l 2,27,28
 316 228 316 228 299 236 c 2,29,-1
 248 260 l 2,30,31
 186 291 186 291 166 304 c 0,32,33
 154 314 154 314 154 321 c 0,34,35
 154 329 154 329 175 347 c 0,36,37
 199 369 199 369 228 389 c 2,38,-1
 274 423 l 2,39,40
 292 436 292 436 320 452 c 2,41,-1
 338 463 l 1,42,-1
 364 480 l 1,43,-1
 376 488 l 1,44,-1
 434 520 l 2,45,46
 452 528 452 528 457 528 c 0,47,48
 464 528 464 528 472 520 c 1,49,0
 470 508 470 508 443 492 c 0,1,2
EndSplineSet
EndChar

StartChar: equal
Encoding: 61 61 32
Width: 288
Flags: W
LayerCount: 2
Fore
SplineSet
250 245 m 2,0,-1
 38 245 l 2,1,2
 24 245 24 245 24 258 c 128,-1,3
 24 271 24 271 38 271 c 2,4,-1
 250 271 l 2,5,6
 264 271 264 271 264 258 c 128,-1,7
 264 245 264 245 250 245 c 2,0,-1
250 161 m 2,8,-1
 38 161 l 2,9,10
 24 161 24 161 24 174 c 0,11,12
 25 187 25 187 38 187 c 2,13,-1
 250 187 l 2,14,15
 264 187 264 187 264 174 c 256,16,17
 264 161 264 161 250 161 c 2,8,-1
EndSplineSet
EndChar

StartChar: greater
Encoding: 62 62 33
Width: 651
Flags: W
LayerCount: 2
Fore
SplineSet
502 298 m 0,1,2
 460 262 460 262 382 210 c 0,3,4
 335 180 335 180 318 170 c 2,5,-1
 308 165 l 2,6,7
 296 157 296 157 293 156 c 2,8,-1
 289 154 l 1,9,-1
 262 136 l 1,10,-1
 250 130 l 2,11,12
 236 122 236 122 232 120 c 0,13,14
 226 118 226 118 222 117 c 128,-1,15
 218 116 218 116 216 118 c 0,16,17
 212 121 212 121 212 128 c 2,18,-1
 212 130 l 2,19,20
 213 136 213 136 232 150 c 0,21,22
 252 166 252 166 266 174 c 2,23,-1
 284 186 l 1,24,-1
 292 190 l 2,25,26
 324 208 324 208 342 222 c 2,27,-1
 482 322 l 1,28,-1
 428 350 l 2,29,30
 400 364 400 364 367 381 c 2,31,-1
 321 404 l 1,32,-1
 273 430 l 2,33,34
 265 434 265 434 235 452 c 0,35,36
 220 462 220 462 220 466 c 0,37,38
 220 472 220 472 225 477 c 128,-1,39
 230 482 230 482 236 482 c 0,40,41
 238 482 238 482 256 474 c 2,42,-1
 294 454 l 1,43,-1
 338 430 l 2,44,45
 356 420 356 420 378 409 c 2,46,-1
 429 385 l 2,47,48
 484 358 484 358 510 340 c 0,49,50
 524 330 524 330 524 324 c 0,51,0
 524 316 524 316 502 298 c 0,1,2
EndSplineSet
EndChar

StartChar: question
Encoding: 63 63 34
Width: 334
Flags: W
LayerCount: 2
Fore
SplineSet
156 0 m 256,0,1
 146 0 146 0 139 11 c 0,2,3
 135 17 135 17 138 23 c 0,4,5
 143 37 143 37 155 37 c 0,6,7
 163 37 163 37 168 30 c 0,8,9
 176 19 176 19 171 9 c 0,10,11
 166 0 166 0 156 0 c 256,0,1
174 124 m 0,12,13
 173 124 173 124 173 124 c 2,14,15
 167 125 167 125 163.5 129.5 c 128,-1,16
 160 134 160 134 161 140 c 0,17,18
 167 191 167 191 181.5 233.5 c 128,-1,19
 196 276 196 276 219 311 c 128,-1,20
 242 346 242 346 257.5 364.5 c 128,-1,21
 273 383 273 383 300 413 c 0,22,23
 325 438 325 438 336.5 452 c 128,-1,24
 348 466 348 466 362 489 c 128,-1,25
 376 512 376 512 379.5 536 c 128,-1,26
 383 560 383 560 380 590 c 0,27,28
 377 613 377 613 365.5 630 c 128,-1,29
 354 647 354 647 337.5 656 c 128,-1,30
 321 665 321 665 306.5 669 c 128,-1,31
 292 673 292 673 276 674 c 0,32,33
 179 683 179 683 155 589 c 0,34,35
 154 584 154 584 149 581 c 128,-1,36
 144 578 144 578 138 580 c 0,37,38
 125 583 125 583 129 596 c 0,39,40
 159 712 159 712 279 701 c 0,41,42
 334 696 334 696 367.5 668 c 128,-1,43
 401 640 401 640 407 593 c 0,44,45
 411 559 411 559 406.5 531 c 128,-1,46
 402 503 402 503 386.5 477.5 c 128,-1,47
 371 452 371 452 358.5 437 c 128,-1,48
 346 422 346 422 320 394 c 0,49,50
 293 365 293 365 278 347 c 128,-1,51
 263 329 263 329 241.5 296.5 c 128,-1,52
 220 264 220 264 207 224.5 c 128,-1,53
 194 185 194 185 188 136 c 0,54,55
 186 124 186 124 174 124 c 0,12,13
EndSplineSet
EndChar

StartChar: A
Encoding: 65 65 36
Width: 497
Flags: W
LayerCount: 2
Fore
SplineSet
454 79 m 0,1,2
 424 53 424 53 402 48 c 0,3,4
 396 46 396 46 390 46 c 2,5,-1
 386 46 l 2,6,7
 378 46 378 46 372 52 c 0,8,9
 367 56 367 56 365 65 c 128,-1,10
 363 74 363 74 363 84 c 128,-1,11
 363 94 363 94 365 101 c 0,12,13
 369 117 369 117 372.5 129.5 c 128,-1,14
 376 142 376 142 384 164 c 2,15,-1
 390 179 l 1,16,-1
 408 224 l 1,17,-1
 428 273 l 1,18,-1
 450 322 l 1,19,-1
 486 408 l 1,20,-1
 522 494 l 1,21,-1
 559 582 l 1,22,23
 565 585 565 585 565 594 c 0,24,25
 566 604 566 604 542 614 c 0,26,27
 527 621 527 621 508.5 622.5 c 128,-1,28
 490 624 490 624 464 624 c 0,29,30
 422 624 422 624 374 610 c 0,31,32
 295 585 295 585 227.5 530.5 c 128,-1,33
 160 476 160 476 110 402 c 0,34,35
 84 362 84 362 63 322 c 0,36,37
 44 282 44 282 34 241 c 128,-1,38
 24 200 24 200 24 166 c 0,39,40
 24 136 24 136 32 112 c 0,41,42
 40 86 40 86 51 72 c 0,43,44
 62 56 62 56 78 46 c 128,-1,45
 94 36 94 36 112 34 c 0,46,47
 121 32 121 32 130 32 c 0,48,49
 142 32 142 32 150 34 c 0,50,51
 190 40 190 40 226 63.5 c 128,-1,52
 262 87 262 87 297 122 c 0,53,54
 339 162 339 162 381 220 c 1,55,56
 371 198 371 198 363 172 c 0,57,58
 353 146 353 146 348.5 127.5 c 128,-1,59
 344 109 344 109 341 90 c 0,60,61
 340 88 340 88 340 80 c 0,62,63
 340 42 340 42 365 30 c 0,64,65
 376 24 376 24 391 24 c 0,66,67
 420 24 420 24 458 53 c 0,68,69
 496 83 496 83 532 124 c 2,70,-1
 562 158 l 2,71,72
 568 166 568 166 569 168 c 0,73,74
 572 172 572 172 572 174 c 2,75,-1
 570 178 l 2,76,77
 568 186 568 186 560 186 c 0,78,79
 554 186 554 186 551 181 c 2,80,-1
 505 128 l 2,81,0
 478 100 478 100 454 79 c 0,1,2
70 86 m 0,83,84
 62 100 62 100 57 114 c 256,85,86
 52 128 52 128 49 146 c 2,87,-1
 48 167 l 2,88,89
 48 193 48 193 55 226.5 c 128,-1,90
 62 260 62 260 74 290 c 0,91,92
 93 337 93 337 122.5 381.5 c 128,-1,93
 152 426 152 426 186 461 c 0,94,95
 250 529 250 529 322 563 c 0,96,97
 378 591 378 591 432 598 c 0,98,99
 451 601 451 601 469 601 c 0,100,101
 491 601 491 601 514 597 c 2,102,-1
 518 596 l 2,103,104
 526 594 526 594 527 594 c 0,105,106
 532 594 532 594 534 592 c 2,107,-1
 538 590 l 1,108,-1
 473 436 l 1,109,-1
 438 356 l 2,110,111
 428 332 428 332 418 316 c 2,112,-1
 393 278 l 2,113,114
 347 206 347 206 292 148 c 0,115,116
 260 118 260 118 238 100 c 0,117,118
 211 78 211 78 181.5 67 c 128,-1,119
 152 56 152 56 127 56 c 0,120,82
 92 56 92 56 70 86 c 0,83,84
EndSplineSet
EndChar

StartChar: B
Encoding: 66 66 37
Width: 480
Flags: W
LayerCount: 2
Fore
SplineSet
429 624 m 0,1,2
 413 624 413 624 394 618 c 0,3,4
 360 604 360 604 334 582 c 0,5,6
 302 556 302 556 274 521 c 128,-1,7
 246 486 246 486 218 442 c 1,8,-1
 234 484 l 1,9,-1
 252 528 l 2,10,11
 258 544 258 544 262 560 c 0,12,13
 264 566 264 566 264 572 c 0,14,15
 264 585 264 585 256 597.5 c 128,-1,16
 248 610 248 610 231 616 c 0,17,18
 216 620 216 620 198 620 c 0,19,20
 176 620 176 620 152 614 c 0,21,22
 102 598 102 598 82 572 c 0,23,24
 78 566 78 566 72 555 c 0,25,26
 70 548 70 548 69 546 c 0,27,28
 69 542 69 542 72 538 c 0,29,30
 76 534 76 534 80 534 c 0,31,32
 86 534 86 534 89 536.5 c 128,-1,33
 92 539 92 539 93 543 c 0,34,35
 93 547 93 547 96 551 c 0,36,37
 104 564 104 564 123 576 c 0,38,39
 142 586 142 586 162 592 c 128,-1,40
 182 598 182 598 196 598 c 0,41,42
 206 598 206 598 215 596 c 0,43,44
 227 593 227 593 232 590 c 0,45,46
 238 586 238 586 240 578 c 0,47,48
 240 574 240 574 240 570 c 128,-1,49
 240 566 240 566 240 562 c 0,50,51
 236 549 236 549 234 546 c 2,52,-1
 186 426 l 1,53,-1
 150 340 l 1,54,-1
 114 253 l 1,55,-1
 76 164 l 1,56,-1
 40 75 l 1,57,-1
 26 43 l 2,58,59
 24 39 24 39 24 34 c 0,60,61
 26 24 26 24 36 24 c 0,62,63
 43 24 43 24 47 32 c 2,64,-1
 74 98 l 1,65,-1
 114 192 l 1,66,-1
 140 251 l 1,67,-1
 168 308 l 2,68,69
 219 407 219 407 265 472 c 0,70,71
 291 508 291 508 316.5 535 c 128,-1,72
 342 562 342 562 370 580 c 0,73,74
 382 588 382 588 396 594 c 0,75,76
 410 598 410 598 422 600 c 0,77,78
 424 600 424 600 432 601 c 0,79,80
 444 601 444 601 454 598 c 0,81,82
 464 596 464 596 474 586 c 0,83,84
 494 568 494 568 494 530 c 0,85,86
 494 490 494 490 473 450 c 0,87,88
 435 378 435 378 352 338 c 0,89,90
 346 336 346 336 342 335 c 2,91,-1
 332 333 l 1,92,-1
 310 326 l 1,93,-1
 300 322 l 1,94,-1
 278 314 l 2,95,96
 264 308 264 308 264 301 c 0,97,98
 264 298 264 298 265 295 c 0,99,100
 268 290 268 290 274 290 c 0,101,102
 278 290 278 290 280 290 c 0,103,104
 294 292 294 292 305 296 c 2,105,-1
 330 303 l 1,106,-1
 352 312 l 2,107,108
 360 316 360 316 376 316 c 0,109,110
 396 316 396 316 414 309 c 0,111,112
 432 303 432 303 443 291 c 128,-1,113
 454 279 454 279 463 260 c 0,114,115
 471 240 471 240 471 214 c 0,116,117
 471 200 471 200 468 186 c 0,118,119
 460 148 460 148 440 116 c 0,120,121
 419 84 419 84 382 65 c 128,-1,122
 345 46 345 46 305 43 c 0,123,124
 287 41 287 41 273 41 c 0,125,126
 260 41 260 41 240 43 c 0,127,128
 206 48 206 48 178 64 c 0,129,130
 170 68 170 68 162 76 c 0,131,132
 156 81 156 81 156 85 c 128,-1,133
 156 89 156 89 158 91 c 2,134,-1
 164 99 l 2,135,136
 166 101 166 101 166 103 c 0,137,138
 166 106 166 106 164 108 c 0,139,140
 163 111 163 111 160 112 c 0,141,142
 158 114 158 114 154 114 c 0,143,144
 152 114 152 114 148 112 c 0,145,146
 138 107 138 107 135 94 c 0,147,148
 134 90 134 90 134 85 c 128,-1,149
 134 80 134 80 136 76 c 0,150,151
 138 68 138 68 146 58 c 0,152,153
 160 44 160 44 190 34 c 0,154,155
 204 28 204 28 217 26 c 256,156,157
 230 24 230 24 255 20 c 2,158,-1
 278 18 l 1,159,160
 352 18 352 18 406 52 c 0,161,162
 441 74 441 74 462.5 107 c 128,-1,163
 484 140 484 140 490 179 c 0,164,165
 494 194 494 194 494 214 c 2,166,-1
 493 232 l 2,167,168
 491 258 491 258 478 282 c 0,169,170
 466 305 466 305 445 319.5 c 128,-1,171
 424 334 424 334 398 337 c 1,172,173
 436 362 436 362 465 396 c 128,-1,174
 494 430 494 430 507 469 c 0,175,176
 513 483 513 483 516 501 c 0,177,178
 518 518 518 518 518 528 c 2,179,-1
 517 544 l 2,180,181
 516 562 516 562 508 579 c 0,182,183
 500 595 500 595 487 605 c 0,184,185
 474 614 474 614 462 618 c 0,186,0
 446 624 446 624 429 624 c 0,1,2
EndSplineSet
EndChar

StartChar: C
Encoding: 67 67 38
Width: 367
Flags: W
LayerCount: 2
Fore
SplineSet
335 95 m 0,1,2
 303 69 303 69 264.5 52.5 c 128,-1,3
 226 36 226 36 185 36 c 0,4,5
 164 36 164 36 146 39 c 0,6,7
 130 42 130 42 112 50 c 0,8,9
 82 64 82 64 66 94 c 128,-1,10
 50 124 50 124 48 158 c 0,11,12
 48 162 48 162 48 176 c 0,13,14
 48 200 48 200 51 222 c 0,15,16
 61 292 61 292 96 364 c 0,17,18
 130 434 130 434 182 496 c 0,19,20
 210 526 210 526 237.5 549 c 128,-1,21
 265 572 265 572 296 584 c 0,22,23
 310 590 310 590 328 596 c 128,-1,24
 346 602 346 602 364 602 c 0,25,26
 402 602 402 602 412 570 c 0,27,28
 418 556 418 556 418 540 c 0,29,30
 418 520 418 520 414 504 c 0,31,32
 410 487 410 487 402 469.5 c 128,-1,33
 394 452 394 452 383 438 c 0,34,35
 378 430 378 430 372 426 c 2,36,-1
 358 414 l 2,37,38
 346 408 346 408 342 406 c 0,39,40
 334 404 334 404 334 398 c 0,41,42
 334 395 334 395 336 392 c 0,43,44
 339 385 339 385 346 385 c 2,45,-1
 348 385 l 2,46,47
 363 385 363 385 382 405 c 2,48,-1
 393 416 l 2,49,50
 416 442 416 442 428.5 473 c 128,-1,51
 441 504 441 504 441 534 c 0,52,53
 441 566 441 566 426 592 c 0,54,55
 414 610 414 610 396.5 617.5 c 128,-1,56
 379 625 379 625 362 625 c 0,57,58
 354 624 354 624 352 624 c 0,59,60
 334 622 334 622 316 616 c 0,61,62
 284 607 284 607 253 588 c 0,63,64
 196 552 196 552 144 486 c 0,65,66
 96 423 96 423 64 349 c 0,67,68
 48 313 48 313 39 278.5 c 128,-1,69
 30 244 30 244 26 208 c 0,70,71
 26 196 26 196 26 180 c 0,72,73
 26 149 26 149 31 122.5 c 128,-1,74
 36 96 36 96 54 70 c 0,75,76
 75 40 75 40 108.5 27 c 128,-1,77
 142 14 142 14 183 14 c 0,78,79
 221 14 221 14 258 26 c 0,80,81
 296 38 296 38 328 62 c 0,82,83
 374 94 374 94 425 152 c 0,84,85
 429 156 429 156 432 160 c 2,86,-1
 438 166 l 2,87,88
 442 169 442 169 442 173 c 2,89,-1
 442 174 l 2,90,91
 442 178 442 178 438 182 c 0,92,93
 432 186 432 186 428 186 c 128,-1,94
 424 186 424 186 421 182 c 0,95,0
 378 130 378 130 335 95 c 0,1,2
EndSplineSet
EndChar

StartChar: D
Encoding: 68 68 39
Width: 573
Flags: W
LayerCount: 2
Fore
SplineSet
250 604 m 0,1,2
 213 592 213 592 186.5 569 c 128,-1,3
 160 546 160 546 150 522 c 0,4,5
 142 506 142 506 144 488 c 0,6,7
 144 478 144 478 148 468 c 0,8,9
 152 460 152 460 162 458 c 0,10,11
 172 458 172 458 174 469 c 0,12,13
 174 473 174 473 172 476 c 0,14,15
 170 478 170 478 168 483 c 128,-1,16
 166 488 166 488 166 492 c 2,17,-1
 167 498 l 1,18,-1
 171 513 l 2,19,20
 180 535 180 535 202 553 c 0,21,22
 258 598 258 598 365 598 c 0,23,24
 402 598 402 598 434 592 c 0,25,26
 473 584 473 584 505.5 561.5 c 128,-1,27
 538 539 538 539 559 506 c 0,28,29
 594 452 594 452 594 381 c 0,30,31
 594 356 594 356 590 334 c 0,32,33
 580 284 580 284 560 238 c 0,34,35
 541 196 541 196 514 161 c 0,36,37
 486 126 486 126 452 100 c 0,38,39
 388 55 388 55 326 52 c 0,40,41
 312 50 312 50 298 50 c 0,42,43
 270 50 270 50 248 56 c 0,44,45
 208 63 208 63 171 75 c 1,46,47
 190 107 190 107 206 146 c 2,48,-1
 236 219 l 1,49,-1
 272 316 l 1,50,-1
 312 412 l 2,51,52
 330 456 330 456 350 494 c 0,53,54
 356 506 356 506 368.5 524.5 c 128,-1,55
 381 543 381 543 389 553 c 2,56,-1
 400 562 l 2,57,58
 402 566 402 566 402 570 c 2,59,-1
 402 572 l 2,60,61
 401 578 401 578 395 580 c 0,62,63
 392 582 392 582 390 581 c 0,64,65
 386 580 386 580 380 576 c 2,66,-1
 368 564 l 2,67,68
 344 536 344 536 328 500 c 0,69,70
 306 459 306 459 284 406 c 2,71,-1
 246 310 l 1,72,-1
 209 213 l 2,73,74
 189 162 189 162 168 118 c 0,75,76
 164 112 164 112 159 101 c 2,77,-1
 150 84 l 2,78,79
 150 82 150 82 145 84 c 2,80,-1
 127 91 l 1,81,-1
 102 98 l 1,82,-1
 84 102 l 2,83,84
 80 104 80 104 74 104 c 256,85,86
 68 104 68 104 64 102 c 0,87,88
 46 99 46 99 35 85.5 c 128,-1,89
 24 72 24 72 24 58 c 0,90,91
 24 40 24 40 39 29 c 128,-1,92
 54 18 54 18 74 18 c 0,93,94
 92 18 92 18 112 24 c 0,95,96
 140 34 140 34 152 49 c 2,97,-1
 156 53 l 1,98,-1
 158 56 l 1,99,-1
 160 54 l 1,100,-1
 170 51 l 1,101,-1
 190 45 l 2,102,103
 216 39 216 39 234 35 c 0,104,105
 252 30 252 30 278 28 c 0,106,107
 283 28 283 28 300 28 c 0,108,109
 339 28 339 28 374 36 c 0,110,111
 410 46 410 46 446 68 c 0,112,113
 516 114 516 114 562 192 c 0,114,115
 587 236 587 236 601.5 285 c 128,-1,116
 616 334 616 334 616 382 c 0,117,118
 616 428 616 428 602.5 469 c 128,-1,119
 589 510 589 510 560 544 c 0,120,121
 538 570 538 570 506 588 c 256,122,123
 474 606 474 606 440 614 c 0,124,125
 412 620 412 620 384 620 c 2,126,-1
 364 621 l 2,127,128
 346 622 346 622 328 620 c 0,129,0
 288 616 288 616 250 604 c 0,1,2
72 41 m 0,130,131
 63 43 63 43 55 47.5 c 128,-1,132
 47 52 47 52 47 60 c 0,133,134
 47 64 47 64 49.5 68 c 128,-1,135
 52 72 52 72 60 77 c 0,136,137
 69 81 69 81 78 80 c 0,138,139
 90 78 90 78 106 74 c 2,140,-1
 135 64 l 1,141,142
 131 59 131 59 124 53 c 0,143,144
 95 39 95 39 72 41 c 0,130,131
EndSplineSet
EndChar

StartChar: E
Encoding: 69 69 40
Width: 403
Flags: W
LayerCount: 2
Fore
SplineSet
396 117 m 0,1,2
 365 89 365 89 330 68.5 c 128,-1,3
 295 48 295 48 259 36 c 0,4,5
 227 24 227 24 188 18 c 0,6,7
 176 16 176 16 164 17 c 0,8,9
 134 17 134 17 110 24.5 c 128,-1,10
 86 32 86 32 66 56 c 0,11,12
 52 72 52 72 47 91 c 128,-1,13
 42 110 42 110 42 127 c 0,14,15
 42 136 42 136 44 146 c 0,16,17
 52 190 52 190 80 226 c 0,18,19
 107 257 107 257 144.5 280.5 c 128,-1,20
 182 304 182 304 225 318 c 2,21,-1
 248 324 l 1,22,23
 257 312 257 312 266 307 c 0,24,25
 274 299 274 299 283 296 c 128,-1,26
 292 293 292 293 308 289 c 0,27,28
 316 288 316 288 318 288 c 2,29,-1
 326 288 l 2,30,31
 335 288 335 288 347 292 c 0,32,33
 370 298 370 298 368 320 c 0,34,35
 364 344 364 344 330 351 c 0,36,37
 320 353 320 353 313 353.5 c 128,-1,38
 306 354 306 354 292 354 c 0,39,40
 283 354 283 354 280 354 c 0,41,42
 276 354 276 354 269 351 c 0,43,44
 262 351 262 351 256 349 c 0,45,46
 253 348 253 348 252 352 c 0,47,48
 250 356 250 356 248 358 c 0,49,50
 220 402 220 402 221 458 c 0,51,52
 222 498 222 498 238 532 c 0,53,54
 246 550 246 550 261 566 c 0,55,56
 294 598 294 598 344 599 c 0,57,58
 390 600 390 600 416 578 c 0,59,60
 424 573 424 573 426 563 c 0,61,62
 428 558 428 558 430 554 c 0,63,64
 431 549 431 549 434 545.5 c 128,-1,65
 437 542 437 542 441 542 c 128,-1,66
 445 542 445 542 450 546 c 0,67,68
 454 550 454 550 454 554 c 0,69,70
 454 560 454 560 452 563 c 0,71,72
 448 581 448 581 431 595 c 0,73,74
 416 607 416 607 399 612.5 c 128,-1,75
 382 618 382 618 356 622 c 0,76,77
 353 622 353 622 342 622 c 0,78,79
 304 622 304 622 272 604 c 0,80,81
 235 582 235 582 216.5 543 c 128,-1,82
 198 504 198 504 198 454 c 0,83,84
 198 394 198 394 231 343 c 1,85,86
 134 317 134 317 78 257 c 0,87,88
 48 227 48 227 33.5 192.5 c 128,-1,89
 19 158 19 158 19 127 c 0,90,91
 19 108 19 108 24 88 c 128,-1,92
 29 68 29 68 39 52 c 0,93,94
 51 34 51 34 66 22 c 0,95,96
 82 12 82 12 102 4 c 0,97,98
 130 -6 130 -6 168 -6 c 0,99,100
 190 -6 190 -6 218 -1 c 0,101,102
 291 16 291 16 352 56 c 0,103,104
 414 94 414 94 456 146 c 1,105,-1
 468 158 l 1,106,-1
 472 165 l 2,107,108
 476 168 476 168 476 174 c 0,109,110
 476 181 476 181 468 185 c 0,111,112
 466 186 466 186 464 186 c 0,113,114
 460 186 460 186 456 181 c 0,115,0
 430 145 430 145 396 117 c 0,1,2
344 315 m 0,116,117
 342 312 342 312 336 312 c 2,118,-1
 328 311 l 1,119,-1
 324 310 l 1,120,121
 296 310 296 310 274 328 c 1,122,123
 294 332 294 332 304 332 c 128,-1,124
 314 332 314 332 326 328 c 0,125,126
 332 328 332 328 338 326 c 0,127,128
 344 322 344 322 345 318 c 0,129,130
 348 316 348 316 344 315 c 0,116,117
EndSplineSet
EndChar

StartChar: F
Encoding: 70 70 41
Width: 368
Flags: W
LayerCount: 2
Fore
SplineSet
657 615 m 0,1,2
 656 616 656 616 652 616 c 0,3,4
 650 616 650 616 648 614 c 0,5,6
 640 610 640 610 632 608 c 2,7,-1
 622 604 l 2,8,9
 611 600 611 600 601.5 597 c 128,-1,10
 592 594 592 594 574 591 c 0,11,12
 550 588 550 588 530 588 c 0,13,14
 508 588 508 588 472 590 c 0,15,16
 422 595 422 595 369 607 c 0,17,18
 317 618 317 618 264 620 c 1,19,-1
 247 622 l 1,20,21
 207 622 207 622 181 604 c 0,22,23
 169 596 169 596 161 583 c 0,24,25
 152 570 152 570 150 555 c 0,26,27
 150 553 150 553 150 548 c 0,28,29
 150 530 150 530 160 514 c 0,30,31
 170 500 170 500 188 492 c 0,32,33
 190 490 190 490 192 490 c 0,34,35
 196 490 196 490 196 491 c 0,36,37
 200 494 200 494 202 498 c 0,38,39
 202 500 202 500 202 502 c 0,40,41
 202 506 202 506 202 507 c 0,42,43
 200 511 200 511 194 513 c 0,44,45
 186 517 186 517 180 525.5 c 128,-1,46
 174 534 174 534 173 542 c 0,47,48
 172 544 172 544 172 550 c 0,49,50
 172 560 172 560 178 568 c 0,51,52
 186 580 186 580 200 589 c 128,-1,53
 214 598 214 598 230 598 c 0,54,55
 234 598 234 598 250 598 c 0,56,57
 264 598 264 598 267 598 c 0,58,59
 316 596 316 596 358 586 c 0,60,61
 408 576 408 576 450 570 c 1,62,63
 444 564 444 564 434 551 c 0,64,65
 420 530 420 530 404 499 c 0,66,67
 380 451 380 451 372 425 c 2,68,-1
 354 383 l 1,69,-1
 336 334 l 1,70,-1
 326 308 l 1,71,72
 316 308 316 308 312 308 c 0,73,74
 309 308 309 308 298 307 c 2,75,-1
 268 307 l 2,76,77
 250 307 250 307 238 309 c 2,78,-1
 213 314 l 2,79,80
 207 315 207 315 203.5 310.5 c 128,-1,81
 200 306 200 306 200 302 c 0,82,83
 200 299 200 299 202 297 c 0,84,85
 204 292 204 292 210 291 c 128,-1,86
 216 290 216 290 222 288 c 2,87,-1
 251 284 l 1,88,-1
 284 284 l 1,89,-1
 318 284 l 1,90,-1
 278 182 l 2,91,92
 266 156 266 156 260 140 c 128,-1,93
 254 124 254 124 240 98 c 0,94,95
 220 60 220 60 182 43 c 0,96,97
 160 36 160 36 142 36 c 128,-1,98
 124 36 124 36 104 43 c 0,99,100
 84 52 84 52 69.5 66 c 128,-1,101
 55 80 55 80 49 96 c 0,102,103
 45 108 45 108 37 108 c 0,104,105
 32 108 32 108 29 104 c 256,106,107
 26 100 26 100 26 96 c 2,108,-1
 26 94 l 2,109,110
 28 84 28 84 32 76 c 2,111,-1
 43 60 l 2,112,113
 69 26 69 26 110 16 c 0,114,115
 128 12 128 12 142 12 c 0,116,117
 171 12 171 12 201.5 26 c 128,-1,118
 232 40 232 40 251 72 c 0,119,120
 262 90 262 90 272 110 c 2,121,-1
 288 152 l 2,122,123
 299 174 299 174 309 200 c 2,124,-1
 328 249 l 1,125,-1
 337 274 l 2,126,127
 341 282 341 282 342 286 c 0,128,129
 342 288 342 288 348 288 c 2,130,-1
 356 288 l 2,131,132
 384 290 384 290 406 294 c 0,133,134
 415 296 415 296 423 297 c 0,135,136
 433 298 433 298 440 301 c 0,137,138
 450 303 450 303 450 311 c 2,139,-1
 450 312 l 2,140,141
 450 326 450 326 436 324 c 2,142,-1
 404 316 l 2,143,144
 378 310 378 310 351 310 c 1,145,-1
 386 401 l 2,146,147
 402 438 402 438 425 488 c 2,148,-1
 440 519 l 2,149,150
 448 534 448 534 460 546 c 2,151,-1
 466 554 l 2,152,153
 469 558 469 558 474 560 c 256,154,155
 479 562 479 562 480 565 c 0,156,157
 482 567 482 567 484 567 c 2,158,-1
 486 567 l 2,159,160
 490 567 490 567 492 565 c 2,161,-1
 504 565 l 1,162,-1
 517 564 l 2,163,164
 563 564 563 564 600 574 c 0,165,166
 622 578 622 578 640 586 c 0,167,168
 644 588 644 588 658 594 c 0,169,170
 665 597 665 597 665 603 c 0,171,172
 666 606 666 606 664 610 c 128,-1,0
 662 614 662 614 657 615 c 0,1,2
EndSplineSet
EndChar

StartChar: G
Encoding: 71 71 42
Width: 703
Flags: W
LayerCount: 2
Fore
SplineSet
702 130 m 0,1,2
 638 78 638 78 558 78 c 0,3,4
 538 78 538 78 511 82 c 1,5,6
 565 121 565 121 606 180 c 0,7,8
 646 238 646 238 679 312 c 0,9,10
 726 414 726 414 748 522 c 0,11,12
 748 524 748 524 750 530 c 0,13,14
 751 536 751 536 751 540 c 0,15,16
 752 548 752 548 746 552 c 0,17,18
 742 554 742 554 738 554 c 0,19,20
 736 554 736 554 734 552 c 2,21,-1
 725 544 l 2,22,23
 718 536 718 536 704 530 c 0,24,25
 686 520 686 520 668 514 c 2,26,-1
 632 504 l 2,27,28
 606 498 606 498 589 496 c 128,-1,29
 572 494 572 494 532 490 c 1,30,-1
 510 490 l 1,31,-1
 486 492 l 1,32,33
 501 521 501 521 509.5 541.5 c 128,-1,34
 518 562 518 562 521 584 c 0,35,36
 522 592 522 592 522 600 c 0,37,38
 522 618 522 618 514 631 c 128,-1,39
 506 644 506 644 486 648 c 0,40,41
 480 650 480 650 473 650 c 0,42,43
 456 650 456 650 442 638 c 0,44,45
 423 622 423 622 412.5 603 c 128,-1,46
 402 584 402 584 398 560 c 1,47,-1
 398 549 l 2,48,49
 398 533 398 533 406 517 c 0,50,51
 412 503 412 503 424 492 c 128,-1,52
 436 481 436 481 452 476 c 1,53,54
 380 352 380 352 266 228 c 0,55,56
 244 200 244 200 216 172 c 2,57,-1
 162 119 l 2,58,59
 112 74 112 74 74 50 c 0,60,61
 64 45 64 45 57.5 42.5 c 128,-1,62
 51 40 51 40 43 38 c 0,63,64
 36 36 36 36 30 35 c 0,65,66
 24 36 24 36 24 26 c 0,67,68
 24 14 24 14 40 14 c 2,69,-1
 44 14 l 2,70,71
 67 17 67 17 85 30 c 0,72,73
 107 44 107 44 126.5 59 c 128,-1,74
 146 74 146 74 173 98 c 2,75,-1
 221 144 l 2,76,77
 249 172 249 172 275 202 c 2,78,-1
 326 261 l 2,79,80
 344 282 344 282 376 324 c 2,81,-1
 423 389 l 1,82,-1
 442 419 l 1,83,-1
 449 429 l 2,84,85
 452 434 452 434 462 450 c 2,86,-1
 470 463 l 2,87,88
 470 464 470 464 472 466 c 256,89,90
 474 468 474 468 474 470 c 2,91,-1
 486 468 l 2,92,93
 499 466 499 466 512 466 c 2,94,-1
 538 468 l 2,95,96
 594 472 594 472 642 484 c 0,97,98
 670 492 670 492 688 498 c 128,-1,99
 706 504 706 504 722 513 c 1,100,101
 694 392 694 392 638 280 c 0,102,103
 601 208 601 208 555 154 c 0,104,105
 534 128 534 128 504 106 c 2,106,-1
 490 96 l 1,107,-1
 484 91 l 2,108,109
 483 90 483 90 480 90 c 0,110,111
 476 90 476 90 470 93 c 2,112,-1
 444 100 l 2,113,114
 432 104 432 104 418 110 c 2,115,-1
 384 124 l 1,116,-1
 372 130 l 2,117,118
 350 140 350 140 324 148 c 0,119,120
 302 156 302 156 286 156 c 2,121,-1
 278 156 l 2,122,123
 272 156 272 156 268 154 c 0,124,125
 254 150 254 150 254 130 c 2,126,-1
 254 126 l 2,127,128
 255 118 255 118 258 110 c 0,129,130
 264 90 264 90 280 72 c 0,131,132
 296 52 296 52 322 43 c 0,133,134
 338 35 338 35 360 33 c 0,135,136
 362 32 362 32 372 32 c 256,137,138
 382 32 382 32 398 35 c 0,139,140
 424 38 424 38 448 47 c 0,141,142
 461 54 461 54 470 58 c 2,143,-1
 481 64 l 2,144,145
 482 64 482 64 484 64 c 0,146,147
 488 64 488 64 490 64 c 0,148,149
 522 56 522 56 560 56 c 0,150,151
 592 56 592 56 628 66 c 0,152,153
 671 78 671 78 719 114 c 0,154,155
 741 132 741 132 763 156 c 2,156,-1
 774 168 l 2,157,158
 778 172 778 172 777 176 c 2,159,-1
 776 181 l 2,160,161
 774 188 774 188 766 188 c 0,162,163
 760 188 760 188 756 184 c 0,164,0
 732 154 732 154 702 130 c 0,1,2
422 552 m 0,165,166
 422 572 422 572 432 590 c 256,167,168
 442 608 442 608 458 620 c 0,169,170
 466 626 466 626 478 626 c 0,171,172
 488 626 488 626 494 619 c 128,-1,173
 500 612 500 612 500 602 c 0,174,175
 500 594 500 594 496 580 c 0,176,177
 486 540 486 540 463 496 c 1,178,179
 420 512 420 512 422 552 c 0,165,166
378 56 m 0,180,181
 362 56 362 56 352 58 c 0,182,183
 318 64 318 64 295 90 c 0,184,185
 284 105 284 105 278 127 c 0,186,187
 276 131 276 131 276 132 c 0,188,189
 280 133 280 133 284 133 c 0,190,191
 294 133 294 133 302 130 c 0,192,193
 325 126 325 126 349 114 c 2,194,-1
 394 95 l 2,195,196
 424 83 424 83 422 84 c 2,197,-1
 452 74 l 2,198,199
 446 72 446 72 435 67 c 0,200,201
 428 64 428 64 418 62 c 0,202,203
 400 56 400 56 378 56 c 0,180,181
EndSplineSet
EndChar

StartChar: H
Encoding: 72 72 43
Width: 522
Flags: W
LayerCount: 2
Fore
SplineSet
486 89 m 0,1,2
 468 76 468 76 458 70 c 0,3,4
 445 60 445 60 427 58 c 0,5,6
 425 58 425 58 420 57 c 0,7,8
 414 58 414 58 406 60 c 0,9,10
 392 65 392 65 392 89 c 2,11,-1
 394 102 l 2,12,13
 396 117 396 117 401 136.5 c 128,-1,14
 406 156 406 156 411 168 c 2,15,-1
 414 178 l 1,16,-1
 425 207 l 1,17,-1
 448 267 l 2,18,19
 458 294 458 294 472 326 c 2,20,-1
 560 536 l 1,21,-1
 582 584 l 1,22,-1
 590 603 l 2,23,24
 592 606 592 606 592 612 c 0,25,26
 592 616 592 616 589 619.5 c 128,-1,27
 586 623 586 623 582 623 c 0,28,29
 580 622 580 622 578 622 c 0,30,31
 572 620 572 620 570 614 c 2,32,-1
 542 550 l 1,33,-1
 521 500 l 1,34,-1
 479 402 l 1,35,-1
 468 377 l 2,36,37
 457 348 457 348 432 335 c 0,38,39
 416 325 416 325 397 321.5 c 128,-1,40
 378 318 378 318 366 318 c 0,41,42
 356 317 356 317 334 317 c 2,43,-1
 308 318 l 1,44,-1
 268 318 l 2,45,46
 244 318 244 318 228 316 c 0,47,48
 208 315 208 315 190 311 c 128,-1,49
 172 307 172 307 154 299 c 1,50,-1
 193 392 l 1,51,-1
 230 486 l 2,52,53
 244 520 244 520 252 540 c 0,54,55
 256 551 256 551 256 565 c 0,56,57
 256 577 256 577 252 586.5 c 128,-1,58
 248 596 248 596 238 603 c 0,59,60
 222 616 222 616 198 616 c 128,-1,61
 174 616 174 616 156 610 c 0,62,63
 115 602 115 602 83 576 c 0,64,65
 68 560 68 560 64 544 c 2,66,-1
 62 540 l 2,67,68
 62 538 62 538 65 534 c 128,-1,69
 68 530 68 530 72 530 c 0,70,71
 74 530 74 530 76 529 c 0,72,73
 85 530 85 530 85 538 c 0,74,75
 90 554 90 554 106 563 c 0,76,77
 124 578 124 578 146 584 c 0,78,79
 156 588 156 588 169 590 c 0,80,81
 180 592 180 592 190 592 c 0,82,83
 202 592 202 592 212 590 c 128,-1,84
 222 588 222 588 228 582 c 0,85,86
 234 578 234 578 234 570 c 0,87,88
 235 562 235 562 232.5 555 c 128,-1,89
 230 548 230 548 227 541 c 2,90,-1
 222 528 l 1,91,-1
 169 393 l 1,92,-1
 116 269 l 1,93,-1
 66 144 l 1,94,-1
 28 56 l 2,95,96
 28 53 28 53 26 50 c 0,97,98
 26 46 26 46 26 45 c 2,99,-1
 26 41 l 2,100,101
 28 38 28 38 32 36 c 0,102,103
 33 36 33 36 37 35 c 2,104,-1
 42 36 l 2,105,106
 46 38 46 38 48 42 c 2,107,-1
 58 64 l 1,108,-1
 97 161 l 1,109,-1
 110 192 l 1,110,-1
 118 214 l 2,111,112
 126 229 126 229 128 234 c 0,113,114
 130 240 130 240 137 253 c 0,115,116
 147 267 147 267 160.5 275.5 c 128,-1,117
 174 284 174 284 193 289 c 0,118,119
 219 295 219 295 262 295 c 0,120,121
 298 294 298 294 308 294 c 0,122,123
 316 294 316 294 353 295 c 0,124,125
 379 295 379 295 400 299 c 0,126,127
 422 304 422 304 442 314 c 1,128,-1
 421 263 l 1,129,-1
 416 251 l 2,130,131
 392 188 392 188 387 170 c 0,132,133
 379 147 379 147 374.5 123.5 c 128,-1,134
 370 100 370 100 370 86 c 0,135,136
 370 76 370 76 374 62 c 0,137,138
 379 49 379 49 390.5 42 c 128,-1,139
 402 35 402 35 416 35 c 0,140,141
 418 34 418 34 424 34 c 0,142,143
 444 34 444 34 475 53 c 0,144,145
 490 63 490 63 503 74.5 c 128,-1,146
 516 86 516 86 534 102 c 2,147,-1
 556 126 l 1,148,-1
 580 152 l 1,149,-1
 592 166 l 2,150,151
 595 169 595 169 595 173 c 2,152,-1
 595 174 l 2,153,154
 595 178 595 178 590.5 182 c 128,-1,155
 586 186 586 186 582 186 c 256,156,157
 578 186 578 186 576 182 c 2,158,-1
 532 134 l 2,159,0
 509 108 509 108 486 89 c 0,1,2
EndSplineSet
EndChar

StartChar: I
Encoding: 73 73 44
Width: 332
Flags: W
LayerCount: 2
Fore
SplineSet
430 608 m 0,0,1
 418 618 418 618 403 618 c 0,2,3
 379 618 379 618 357 600 c 0,4,5
 336 584 336 584 321.5 562.5 c 128,-1,6
 307 541 307 541 289 506 c 0,7,8
 259 450 259 450 238 364 c 0,9,10
 216 276 216 276 210 213 c 0,11,12
 208 192 208 192 207 168 c 0,13,14
 208 148 208 148 208 144 c 2,15,-1
 208 132 l 1,16,-1
 208 121 l 2,17,18
 208 119 208 119 209 118 c 2,19,20
 209 118 209 118 210 116 c 0,21,22
 210 114 210 114 206 110 c 2,23,-1
 195 100 l 2,24,25
 173 82 173 82 154 70 c 0,26,27
 105 42 105 42 65 41 c 0,28,29
 47 41 47 41 32 46 c 0,30,31
 16 52 16 52 2 66 c 0,32,33
 -18 88 -18 88 -18 113 c 0,34,35
 -18 128 -18 128 -9 142 c 0,36,37
 -6 146 -6 146 -6 150 c 0,38,39
 -6 155 -6 155 -10 158 c 128,-1,40
 -14 161 -14 161 -18 161 c 2,41,-1
 -22 160 l 2,42,43
 -26 158 -26 158 -29 154 c 0,44,45
 -40 134 -40 134 -40 112 c 0,46,47
 -40 72 -40 72 -10 46 c 0,48,49
 22 18 22 18 68 18 c 0,50,51
 136 18 136 18 214 87 c 1,52,53
 218 68 218 68 227 52 c 128,-1,54
 236 36 236 36 252 28 c 2,55,-1
 264 24 l 2,56,57
 266 24 266 24 269 24 c 0,58,59
 273 24 273 24 278 28 c 0,60,61
 282 32 282 32 282 36 c 256,62,63
 282 40 282 40 279 43.5 c 128,-1,64
 276 47 276 47 272 47 c 256,65,66
 268 47 268 47 264 49 c 0,67,68
 253 54 253 54 244 70 c 2,69,-1
 240 79 l 1,70,-1
 237 88 l 2,71,72
 236 92 236 92 236 94 c 2,73,-1
 235 100 l 1,74,-1
 234 102 l 1,75,76
 234 102 234 102 234 104 c 2,77,-1
 234 106 l 2,78,79
 234 108 234 108 237 110 c 0,80,81
 262 136 262 136 290 173 c 0,82,83
 316 210 316 210 338 246 c 0,84,85
 382 320 382 320 412 394 c 0,86,87
 427 430 427 430 435.5 461 c 128,-1,88
 444 492 444 492 448 525 c 0,89,90
 450 538 450 538 450 548 c 0,91,92
 450 568 450 568 446 582 c 0,93,94
 442 600 442 600 430 608 c 0,0,1
230 165 m 2,95,96
 230 184 230 184 232 213 c 0,97,98
 236 253 236 253 243 286.5 c 128,-1,99
 250 320 250 320 263 366 c 0,100,101
 275 407 275 407 286.5 438.5 c 128,-1,102
 298 470 298 470 314 504 c 0,103,104
 328 532 328 532 346 556 c 128,-1,105
 364 580 364 580 382 590 c 0,106,107
 394 596 394 596 404 596 c 256,108,109
 414 596 414 596 420 584 c 0,110,111
 426 574 426 574 426 554 c 0,112,113
 426 542 426 542 424 520 c 0,114,115
 422 504 422 504 418 487 c 128,-1,116
 414 470 414 470 409 458 c 0,117,118
 386 381 386 381 348 308 c 0,119,120
 298 210 298 210 231 136 c 1,121,-1
 230 165 l 2,95,96
EndSplineSet
EndChar

StartChar: J
Encoding: 74 74 45
Width: 402
Flags: W
LayerCount: 2
Fore
SplineSet
362 620 m 0,1,2
 322 620 322 620 285 602.5 c 128,-1,3
 248 585 248 585 223 554 c 0,4,5
 199 524 199 524 185 488 c 0,6,7
 172 452 172 452 168 412 c 0,8,9
 166 390 166 390 166 374 c 256,10,11
 166 358 166 358 168 336 c 0,12,13
 176 268 176 268 202 190 c 0,14,15
 222 142 222 142 244 95 c 2,16,-1
 254 77 l 2,17,18
 258 70 258 70 264 70 c 2,19,-1
 266 70 l 2,20,21
 270 70 270 70 273 74 c 128,-1,22
 276 78 276 78 276 82 c 0,23,24
 276 87 276 87 274 90 c 0,25,26
 250 130 250 130 230 180 c 0,27,28
 196 272 196 272 190 351 c 0,29,30
 190 356 190 356 190 373 c 0,31,32
 190 401 190 401 194 427 c 0,33,34
 200 469 200 469 217 504.5 c 128,-1,35
 234 540 234 540 264 563 c 0,36,37
 289 584 289 584 326 594 c 0,38,39
 344 598 344 598 358 598 c 0,40,41
 376 598 376 598 395 592 c 0,42,43
 432 582 432 582 450 548 c 0,44,45
 458 532 458 532 458 514 c 0,46,47
 458 508 458 508 458 506 c 0,48,49
 456 485 456 485 450 463 c 0,50,51
 436 415 436 415 422 378 c 2,52,-1
 390 293 l 2,53,54
 378 260 378 260 352 196 c 2,55,-1
 312 100 l 1,56,-1
 303 78 l 2,57,58
 301 74 301 74 294 72 c 2,59,-1
 284 68 l 1,60,-1
 246 51 l 2,61,62
 212 35 212 35 179 13.5 c 128,-1,63
 146 -8 146 -8 127 -24 c 0,64,65
 77 -64 77 -64 56 -92 c 0,66,67
 26 -132 26 -132 26 -174 c 0,68,69
 26 -192 26 -192 32 -207 c 0,70,71
 40 -225 40 -225 56 -233 c 128,-1,72
 72 -241 72 -241 91 -241 c 0,73,74
 127 -241 127 -241 157.5 -218.5 c 128,-1,75
 188 -196 188 -196 212 -165 c 0,76,77
 234 -134 234 -134 252 -99 c 128,-1,78
 270 -64 270 -64 286 -20 c 2,79,-1
 320 56 l 2,80,81
 322 60 322 60 326 62 c 128,-1,82
 330 64 330 64 334 66 c 2,83,-1
 356 75 l 1,84,-1
 374 85 l 2,85,86
 382 88 382 88 393 96 c 0,87,88
 422 114 422 114 448 140 c 2,89,-1
 455 146 l 1,90,-1
 460 152 l 2,91,92
 470 162 470 162 472 168 c 0,93,94
 473 174 473 174 469.5 178 c 128,-1,95
 466 182 466 182 462 182 c 0,96,97
 454 182 454 182 450 176 c 0,98,99
 428 149 428 149 400 129 c 128,-1,100
 372 109 372 109 332 90 c 1,101,-1
 412 286 l 1,102,-1
 444 374 l 2,103,104
 460 422 460 422 473 461 c 0,105,106
 481 486 481 486 481 512 c 0,107,108
 481 536 481 536 471 557 c 0,109,110
 463 575 463 575 449 588 c 0,111,112
 436 600 436 600 416 610 c 0,113,0
 390 620 390 620 362 620 c 0,1,2
115.5 -214 m 128,-1,115
 104 -218 104 -218 91 -218 c 0,116,117
 84 -218 84 -218 74 -216 c 0,118,119
 64 -213 64 -213 56 -202 c 0,120,121
 48 -190 48 -190 48 -176 c 0,122,123
 48 -156 48 -156 58 -135 c 0,124,125
 66 -115 66 -115 80 -99.5 c 128,-1,126
 94 -84 94 -84 118 -60 c 0,127,128
 138 -42 138 -42 158 -29 c 0,129,130
 208 6 208 6 244 23 c 2,131,-1
 290 45 l 1,132,-1
 255 -38 l 2,133,134
 236 -82 236 -82 215 -116 c 0,135,136
 200 -145 200 -145 180 -168.5 c 128,-1,137
 160 -192 160 -192 135 -205 c 0,138,114
 127 -210 127 -210 115.5 -214 c 128,-1,115
EndSplineSet
EndChar

StartChar: K
Encoding: 75 75 46
Width: 455
Flags: W
LayerCount: 2
Fore
SplineSet
511 562 m 2,1,-1
 474 528 l 2,2,3
 420 480 420 480 360 435 c 2,4,-1
 312 402 l 1,5,-1
 261 370 l 2,6,7
 233 355 233 355 212 345 c 0,8,9
 192 336 192 336 170 328 c 1,10,-1
 208 416 l 2,11,12
 224 452 224 452 244 505 c 2,13,-1
 255 534 l 2,14,15
 264 556 264 556 264 572 c 0,16,17
 264 586 264 586 257 596 c 0,18,19
 249 609 249 609 233.5 615.5 c 128,-1,20
 218 622 218 622 200 622 c 0,21,22
 178 622 178 622 146 612 c 0,23,24
 100 596 100 596 80 568 c 0,25,26
 75 562 75 562 71 552 c 0,27,28
 70 548 70 548 70 545 c 0,29,30
 70 539 70 539 74 536 c 128,-1,31
 78 533 78 533 82 533 c 128,-1,32
 86 533 86 533 90 537 c 128,-1,33
 94 541 94 541 94 546 c 0,34,35
 95 550 95 550 97 553 c 0,36,37
 107 569 107 569 126 578.5 c 128,-1,38
 145 588 145 588 173 595 c 2,39,-1
 190 597 l 1,40,-1
 200 598 l 1,41,-1
 212 596 l 2,42,43
 238 592 238 592 240 576 c 0,44,45
 240 574 240 574 241 569 c 0,46,47
 240 556 240 556 226 524 c 2,48,-1
 197 453 l 2,49,50
 179 409 179 409 168 382 c 2,51,-1
 120 266 l 1,52,-1
 70 148 l 1,53,-1
 32 54 l 1,54,-1
 26 43 l 2,55,56
 24 39 24 39 24 36 c 2,57,-1
 26 32 l 2,58,59
 29 24 29 24 35 24 c 2,60,-1
 36 24 l 2,61,62
 44 24 44 24 47 32 c 2,63,-1
 50 40 l 1,64,-1
 118 205 l 1,65,-1
 150 278 l 1,66,-1
 154 290 l 2,67,68
 156 296 156 296 160 296 c 2,69,-1
 180 304 l 2,70,71
 184 306 184 306 202 309 c 0,72,73
 204 310 204 310 210 310 c 0,74,75
 217 310 217 310 225 308 c 0,76,77
 246 304 246 304 260 290 c 0,78,79
 272 278 272 278 278 264 c 256,80,81
 284 250 284 250 286 234 c 2,82,-1
 290 209 l 1,83,-1
 302 142 l 2,84,85
 312 92 312 92 324 68 c 0,86,87
 332 52 332 52 343 43 c 128,-1,88
 354 34 354 34 372 34 c 0,89,90
 396 34 396 34 431 62 c 0,91,92
 459 84 459 84 481 110 c 2,93,-1
 526 165 l 2,94,95
 530 169 530 169 530 174 c 2,96,-1
 529 180 l 2,97,98
 527 186 527 186 521 186 c 0,99,100
 518 186 518 186 517 186 c 0,101,102
 512 186 512 186 508 180 c 2,103,-1
 502 171 l 1,104,-1
 482 149 l 2,105,106
 474 139 474 139 464 127 c 0,107,108
 430 90 430 90 406 72 c 0,109,110
 396 66 396 66 381 60 c 0,111,112
 375 56 375 56 370 56 c 0,113,114
 363 56 363 56 356.5 61 c 128,-1,115
 350 66 350 66 347 72 c 0,116,117
 345 77 345 77 341.5 85.5 c 128,-1,118
 338 94 338 94 335 101 c 2,119,-1
 330 119 l 2,120,121
 326 131 326 131 322 152 c 0,122,123
 320 174 320 174 316 198 c 0,124,125
 312 219 312 219 310 225 c 2,126,-1
 305 251 l 2,127,128
 299 281 299 281 281 302 c 0,129,130
 262 324 262 324 234 330 c 1,131,132
 272 350 272 350 306 371 c 0,133,134
 390 426 390 426 440 468 c 2,135,-1
 500 521 l 1,136,-1
 547 566 l 1,137,-1
 562 584 l 2,138,139
 565 590 565 590 565 593 c 0,140,141
 565 597 565 597 563 600 c 0,142,143
 560 604 560 604 554 604 c 256,144,145
 548 604 548 604 544 599 c 0,146,0
 530 580 530 580 511 562 c 2,1,-1
EndSplineSet
EndChar

StartChar: L
Encoding: 76 76 47
Width: 555
Flags: W
LayerCount: 2
Fore
SplineSet
517 82 m 0,1,2
 484 52 484 52 442 51 c 0,3,4
 420 51 420 51 397 58.5 c 128,-1,5
 374 66 374 66 348 79 c 2,6,-1
 274 124 l 1,7,8
 302 167 302 167 322 213 c 2,9,-1
 362 307 l 1,10,-1
 402 410 l 1,11,-1
 406 422 l 1,12,-1
 412 433 l 1,13,-1
 416 446 l 1,14,-1
 430 448 l 2,15,16
 458 455 458 455 480 464 c 0,17,18
 528 482 528 482 558 504 c 0,19,20
 576 517 576 517 590 534 c 0,21,22
 604 552 604 552 612 572 c 0,23,24
 616 582 616 582 615 594 c 0,25,26
 614 602 614 602 614 604 c 0,27,28
 612 621 612 621 598 632 c 0,29,30
 586 643 586 643 568 643 c 128,-1,31
 550 643 550 643 534 638 c 0,32,33
 497 626 497 626 470.5 594 c 128,-1,34
 444 562 444 562 424 518 c 0,35,36
 410 494 410 494 402 472 c 2,37,-1
 400 466 l 2,38,39
 398 466 398 466 396 466 c 2,40,-1
 393 465 l 1,41,-1
 380 463 l 1,42,-1
 352 460 l 2,43,44
 320 458 320 458 302 458 c 0,45,46
 278 458 278 458 253 462 c 0,47,48
 229 466 229 466 211.5 471 c 128,-1,49
 194 476 194 476 180 484 c 2,50,-1
 164 494 l 2,51,52
 157 500 157 500 154 506 c 128,-1,53
 151 512 151 512 151 520 c 0,54,55
 151 524 151 524 147.5 528 c 128,-1,56
 144 532 144 532 140 532 c 256,57,58
 136 532 136 532 132 528 c 128,-1,59
 128 524 128 524 128 518 c 2,60,61
 128 518 128 518 128 514 c 0,62,63
 130 508 130 508 131 504 c 0,64,65
 132 502 132 502 132 500 c 0,66,67
 140 482 140 482 158 470 c 0,68,69
 172 460 172 460 193 452 c 128,-1,70
 214 444 214 444 232 442 c 0,71,72
 268 434 268 434 304 434 c 0,73,74
 348 434 348 434 389 442 c 1,75,-1
 350 340 l 2,76,77
 329 282 329 282 310 240 c 2,78,-1
 289 196 l 2,79,80
 277 172 277 172 265 154 c 2,81,-1
 259 144 l 1,82,-1
 256 140 l 2,83,84
 256 136 256 136 253 137 c 2,85,-1
 230 150 l 2,86,87
 214 158 214 158 206 162 c 0,88,89
 182 174 182 174 142 180 c 2,90,-1
 123 181 l 2,91,92
 109 181 109 181 99 179 c 0,93,94
 77 175 77 175 59.5 163.5 c 128,-1,95
 42 152 42 152 32 133 c 0,96,97
 24 116 24 116 25 96 c 0,98,99
 25 69 25 69 39 51 c 0,100,101
 60 18 60 18 111 18 c 0,102,103
 132 18 132 18 153 24 c 0,104,105
 196 36 196 36 232 72 c 2,106,-1
 248 90 l 1,107,-1
 255 100 l 1,108,-1
 259 104 l 2,109,110
 261 106 261 106 262 105 c 0,111,112
 262 102 262 102 265 102 c 2,113,-1
 306 76 l 2,114,115
 326 62 326 62 350 52 c 0,116,117
 370 42 370 42 394 35 c 128,-1,118
 418 28 418 28 440 28 c 0,119,120
 483 28 483 28 519 54 c 0,121,122
 537 66 537 66 550 80 c 2,123,-1
 578 110 l 1,124,-1
 616 156 l 1,125,-1
 622 162 l 2,126,127
 624 164 624 164 626 167.5 c 128,-1,128
 628 171 628 171 628 174 c 0,129,130
 628 179 628 179 624 182.5 c 128,-1,131
 620 186 620 186 616 186 c 128,-1,132
 612 186 612 186 608 181 c 2,133,-1
 582 152 l 1,134,-1
 552 115 l 2,135,0
 536 96 536 96 517 82 c 0,1,2
564 620 m 0,137,138
 572 620 572 620 574 620 c 0,139,140
 582 618 582 618 587.5 610 c 128,-1,141
 593 602 593 602 593 592 c 0,142,143
 593 586 593 586 591 582 c 0,144,145
 584 566 584 566 578 556 c 0,146,147
 560 528 560 528 517 506 c 0,148,149
 485 488 485 488 427 472 c 1,150,151
 440 497 440 497 448 516 c 0,152,153
 460 538 460 538 469 553 c 128,-1,154
 478 568 478 568 496 588 c 0,155,156
 508 602 508 602 524 610 c 2,157,-1
 540 616 l 2,158,136
 550 620 550 620 564 620 c 0,137,138
122 42 m 0,160,161
 114 41 114 41 108 41 c 0,162,163
 90 41 90 41 75 49 c 128,-1,164
 60 57 60 57 52 75 c 0,165,166
 48 84 48 84 48 96 c 0,167,168
 48 106 48 106 50 114 c 0,169,170
 56 132 56 132 72 143 c 0,171,172
 86 154 86 154 106 158 c 0,173,174
 114 160 114 160 126 160 c 0,175,176
 156 160 156 160 200 140 c 0,177,178
 228 126 228 126 240 118 c 1,179,180
 220 93 220 93 203 78 c 0,181,182
 186 62 186 62 165 54 c 128,-1,159
 144 46 144 46 122 42 c 0,160,161
EndSplineSet
EndChar

StartChar: M
Encoding: 77 77 48
Width: 690
Flags: W
LayerCount: 2
Fore
SplineSet
750 185 m 0,1,2
 748 185 748 185 746 183 c 2,3,-1
 735 173 l 1,4,-1
 717 152 l 1,5,-1
 687 120 l 1,6,-1
 656 88 l 1,7,-1
 628 66 l 2,8,9
 612 54 612 54 595 50 c 2,10,-1
 587 49 l 1,11,-1
 578 50 l 2,12,13
 570 52 570 52 565 60 c 0,14,15
 562 64 562 64 562 76 c 128,-1,16
 562 88 562 88 566 104.5 c 128,-1,17
 570 121 570 121 574 132 c 0,18,19
 582 156 582 156 588 172 c 2,20,-1
 603 210 l 2,21,22
 629 272 629 272 641 300 c 0,23,24
 653 327 653 327 679 389 c 0,25,26
 690 409 690 409 700 437 c 2,27,-1
 717 486 l 2,28,29
 722 502 722 502 726 528 c 0,30,31
 728 536 728 536 728 549 c 0,32,33
 728 558 728 558 726 568 c 0,34,35
 720 600 720 600 698 614 c 0,36,37
 682 620 682 620 668 620 c 0,38,39
 644 620 644 620 622 610 c 0,40,41
 578 592 578 592 542 556 c 128,-1,42
 506 520 506 520 475 474 c 1,43,44
 480 492 480 492 482 516 c 0,45,46
 482 525 482 525 482 536 c 0,47,48
 482 552 482 552 480 562 c 0,49,50
 472 620 472 620 412 620 c 0,51,52
 397 620 397 620 383 616 c 0,53,54
 362 609 362 609 342 596 c 0,55,56
 322 584 322 584 308 569 c 0,57,58
 270 534 270 534 236 484 c 1,59,-1
 253 528 l 2,60,61
 264 556 264 556 264 570 c 0,62,63
 264 585 264 585 256 596 c 0,64,65
 248 608 248 608 232 613 c 128,-1,66
 216 618 216 618 198 618 c 0,67,68
 176 618 176 618 144 608 c 0,69,70
 122 600 122 600 105.5 589.5 c 128,-1,71
 89 579 89 579 79 564 c 0,72,73
 74 558 74 558 70 548 c 2,74,-1
 69 542 l 2,75,76
 69 534 69 534 77 532 c 0,77,78
 80 532 80 532 82 532 c 2,79,80
 82 532 82 532 86 532 c 0,81,82
 92 534 92 534 96 546 c 0,83,84
 100 552 100 552 100 553 c 0,85,86
 112 569 112 569 133 579 c 128,-1,87
 154 589 154 589 177 593 c 2,88,-1
 196 594 l 2,89,90
 204 594 204 594 216 594 c 0,91,92
 226 592 226 592 233 585 c 128,-1,93
 240 578 240 578 240 568 c 0,94,95
 240 556 240 556 236 544 c 2,96,-1
 162 366 l 1,97,-1
 30 51 l 1,98,-1
 26 38 l 2,99,100
 24 35 24 35 24 33 c 0,101,102
 24 29 24 29 28 25.5 c 128,-1,103
 32 22 32 22 36 22 c 2,104,-1
 38 22 l 2,105,106
 45 24 45 24 47 30 c 2,107,-1
 50 38 l 2,108,109
 60 56 60 56 70 82 c 2,110,-1
 88 127 l 1,111,-1
 137 247 l 2,112,113
 158 296 158 296 192 364 c 0,114,115
 240 456 240 456 293 519 c 0,116,117
 321 550 321 550 347.5 570.5 c 128,-1,118
 374 591 374 591 404 596 c 0,119,120
 410 598 410 598 417 598 c 2,121,-1
 421 598 l 2,122,123
 430 598 430 598 438 592 c 0,124,125
 452 586 452 586 456 568 c 0,126,127
 460 554 460 554 461 536 c 128,-1,128
 462 518 462 518 456 494 c 0,129,130
 448 448 448 448 428 406 c 0,131,132
 408 362 408 362 392 322 c 2,133,-1
 350 222 l 1,134,-1
 308 122 l 1,135,-1
 272 38 l 1,136,-1
 268 30 l 2,137,138
 266 26 266 26 266 22 c 0,139,140
 264 8 264 8 278 9 c 0,141,142
 283 8 283 8 285 11 c 128,-1,143
 287 14 287 14 290 20 c 2,144,-1
 297 37 l 1,145,-1
 338 132 l 1,146,-1
 377 228 l 1,147,-1
 410 307 l 2,148,149
 424 343 424 343 446 383 c 0,150,151
 479 444 479 444 518 494 c 0,152,153
 574 565 574 565 628 588 c 0,154,155
 638 592 638 592 649 594.5 c 128,-1,156
 660 597 660 597 669 597 c 128,-1,157
 678 597 678 597 682 595 c 0,158,159
 692 592 692 592 698 582 c 128,-1,160
 704 572 704 572 704 557 c 0,161,162
 704 543 704 543 702 522 c 0,163,164
 696 495 696 495 689 474 c 128,-1,165
 682 453 682 453 670 427 c 2,166,-1
 650 377 l 1,167,-1
 628 326 l 1,168,-1
 590 240 l 2,169,170
 572 200 572 200 556 152 c 0,171,172
 546 123 546 123 540 92 c 0,173,174
 538 86 538 86 539 78 c 2,175,-1
 539 72 l 2,176,177
 540 62 540 62 544 53 c 0,178,179
 550 39 550 39 562 32.5 c 128,-1,180
 574 26 574 26 588 26 c 0,181,182
 594 26 594 26 596 26 c 0,183,184
 618 28 618 28 632 40 c 0,185,186
 668 65 668 65 698 97 c 2,187,-1
 730 132 l 1,188,-1
 740 144 l 1,189,-1
 750 156 l 2,190,191
 752 159 752 159 759 166 c 0,192,193
 762 168 762 168 762 172 c 0,194,195
 762 174 762 174 761 177 c 2,196,-1
 758 181 l 2,197,0
 754 185 754 185 750 185 c 0,1,2
EndSplineSet
EndChar

StartChar: N
Encoding: 78 78 49
Width: 438
Flags: W
LayerCount: 2
Fore
SplineSet
402 88 m 0,1,2
 385 73 385 73 373 65.5 c 128,-1,3
 361 58 361 58 345 56 c 0,4,5
 341 54 341 54 336 54 c 2,6,-1
 330 55 l 2,7,8
 322 57 322 57 318 63 c 128,-1,9
 314 69 314 69 314 76 c 2,10,-1
 316 83 l 2,11,12
 318 102 318 102 322 116 c 2,13,-1
 332 150 l 1,14,-1
 350 192 l 1,15,-1
 368 234 l 1,16,-1
 410 332 l 2,17,18
 426 366 426 366 450 431 c 2,19,-1
 466 479 l 2,20,21
 474 504 474 504 476.5 523.5 c 128,-1,22
 479 543 479 543 479 563 c 0,23,24
 479 581 479 581 469.5 598.5 c 128,-1,25
 460 616 460 616 442 620 c 0,26,27
 432 624 432 624 422 624 c 0,28,29
 414 624 414 624 404 622 c 0,30,31
 374 616 374 616 330 588 c 0,32,33
 282 552 282 552 242 498 c 1,34,-1
 259 538 l 2,35,36
 262 550 262 550 264 560 c 0,37,38
 264 562 264 562 265 568 c 0,39,40
 265 574 265 574 264 580 c 0,41,42
 261 596 261 596 248 606 c 0,43,44
 236 614 236 614 222 617 c 128,-1,45
 208 620 208 620 197 620 c 0,46,47
 189 620 189 620 174 617 c 0,48,49
 150 613 150 613 132 603 c 0,50,51
 112 595 112 595 96 582 c 0,52,53
 82 570 82 570 74 553 c 0,54,55
 72 550 72 550 71 544 c 0,56,57
 71 540 71 540 74 536 c 0,58,59
 78 532 78 532 84 532 c 0,60,61
 92 532 92 532 94 542 c 0,62,63
 95 546 95 546 97.5 550.5 c 128,-1,64
 100 555 100 555 102 557 c 2,65,-1
 108 563 l 2,66,67
 123 577 123 577 146.5 585 c 128,-1,68
 170 593 170 593 196 596 c 0,69,70
 208 596 208 596 217 595 c 128,-1,71
 226 594 226 594 232 589 c 0,72,73
 242 581 242 581 242 567 c 0,74,75
 242 561 242 561 240 556 c 0,76,77
 234 540 234 540 229 526 c 0,78,79
 216 492 216 492 218 498 c 2,80,-1
 156 346 l 1,81,-1
 92 194 l 1,82,-1
 52 98 l 1,83,-1
 34 56 l 1,84,-1
 29 46 l 2,85,86
 26 40 26 40 26 36 c 2,87,-1
 26 33 l 2,88,89
 26 28 26 28 34 24 c 0,90,91
 36 24 36 24 38 23 c 0,92,93
 44 24 44 24 48 30 c 2,94,-1
 51 36 l 1,95,-1
 66 70 l 1,96,-1
 108 171 l 1,97,-1
 126 218 l 1,98,-1
 146 265 l 1,99,-1
 188 364 l 2,100,101
 194 378 194 378 199 387 c 128,-1,102
 204 396 204 396 213 410 c 0,103,104
 229 438 229 438 250.5 469 c 128,-1,105
 272 500 272 500 297 526 c 0,106,107
 307 538 307 538 322.5 552 c 128,-1,108
 338 566 338 566 352 576 c 0,109,110
 368 586 368 586 386 594 c 0,111,112
 402 600 402 600 420 600 c 256,113,114
 438 600 438 600 445 590.5 c 128,-1,115
 452 581 452 581 456 562 c 0,116,117
 456 559 456 559 456 549 c 0,118,119
 456 523 456 523 441 477 c 0,120,121
 426 425 426 425 404 375 c 2,122,-1
 360 276 l 1,123,-1
 340 230 l 2,124,125
 314 168 314 168 309 149 c 0,126,127
 305 137 305 137 299.5 118.5 c 128,-1,128
 294 100 294 100 292 91 c 2,129,-1
 292 81 l 2,130,131
 292 76 292 76 293 68 c 0,132,133
 295 54 295 54 303 46 c 256,134,135
 311 38 311 38 321 35 c 128,-1,136
 331 32 331 32 340 32 c 0,137,138
 346 32 346 32 356 34 c 0,139,140
 372 40 372 40 387 48 c 0,141,142
 402 58 402 58 419 72 c 128,-1,143
 436 86 436 86 448 98 c 2,144,-1
 498 154 l 1,145,-1
 512 168 l 2,146,147
 514 172 514 172 514 175 c 2,148,-1
 514 176 l 2,149,150
 512 188 512 188 504 188 c 0,151,152
 498 188 498 188 494 184 c 2,153,-1
 450 134 l 2,154,0
 430 112 430 112 402 88 c 0,1,2
EndSplineSet
EndChar

StartChar: O
Encoding: 79 79 50
Width: 387
Flags: W
LayerCount: 2
Fore
SplineSet
530 548 m 0,1,2
 530 538 530 538 528 532 c 0,3,4
 522 515 522 515 514 503 c 0,5,6
 502 485 502 485 486 470 c 0,7,8
 470 456 470 456 452 446 c 1,9,10
 458 488 458 488 458 509 c 0,11,12
 458 525 458 525 454 548 c 0,13,14
 446 588 446 588 426 602 c 0,15,16
 414 612 414 612 398 612 c 0,17,18
 384 612 384 612 369 603 c 128,-1,19
 354 594 354 594 342 576 c 0,20,21
 331 558 331 558 326.5 541 c 128,-1,22
 322 524 322 524 322 504 c 0,23,24
 322 493 322 493 322 490 c 0,25,26
 324 466 324 466 339 446 c 0,27,28
 365 410 365 410 410 410 c 0,29,30
 420 410 420 410 422 410 c 1,31,32
 406 329 406 329 370 255 c 0,33,34
 332 168 332 168 282 116 c 0,35,36
 253 84 253 84 218 62 c 128,-1,37
 183 40 183 40 145 40 c 0,38,39
 109 40 109 40 84 68 c 0,40,41
 70 85 70 85 60 109.5 c 128,-1,42
 50 134 50 134 48 166 c 0,43,44
 48 170 48 170 48 186 c 128,-1,45
 48 202 48 202 50 228 c 0,46,47
 56 276 56 276 69 320 c 128,-1,48
 82 364 82 364 104 412 c 0,49,50
 116 438 116 438 134 469 c 128,-1,51
 152 500 152 500 174 526 c 0,52,53
 198 554 198 554 224 573 c 128,-1,54
 250 592 250 592 278 604 c 0,55,56
 292 609 292 609 306 612 c 0,57,58
 318 616 318 616 326 616 c 2,59,-1
 338 614 l 2,60,61
 341 614 341 614 342 614 c 256,62,63
 343 614 343 614 346 614 c 0,64,65
 350 612 350 612 353 612 c 2,66,-1
 356 612 l 2,67,68
 360 614 360 614 362 620 c 0,69,70
 363 626 363 626 360.5 631 c 128,-1,71
 358 636 358 636 351 636 c 0,72,73
 339 638 339 638 325 638 c 0,74,75
 290 638 290 638 258 621 c 0,76,77
 220 601 220 601 191 576 c 128,-1,78
 162 551 162 551 138 518 c 0,79,80
 92 456 92 456 56 358 c 0,81,82
 24 268 24 268 25 184 c 0,83,84
 25 135 25 135 40 95 c 0,85,86
 46 81 46 81 56 66.5 c 128,-1,87
 66 52 66 52 79 41 c 0,88,89
 105 18 105 18 144 18 c 0,90,91
 216 18 216 18 288 90 c 0,92,93
 315 118 315 118 337.5 150 c 128,-1,94
 360 182 360 182 381 222 c 0,95,96
 399 259 399 259 413.5 299.5 c 128,-1,97
 428 340 428 340 437 376 c 2,98,-1
 446 412 l 2,99,100
 446 416 446 416 450 419 c 2,101,-1
 460 423 l 2,102,103
 468 427 468 427 470 428 c 2,104,-1
 479 434 l 2,105,106
 516 462 516 462 538 494 c 0,107,108
 548 512 548 512 552 528 c 2,109,-1
 554 538 l 1,110,-1
 554 540 l 2,111,112
 554 545 554 545 553 548 c 0,113,114
 553 553 553 553 549.5 555.5 c 128,-1,115
 546 558 546 558 542 558 c 2,116,-1
 540 558 l 2,117,0
 530 556 530 556 530 548 c 0,1,2
408 434 m 0,118,119
 376 434 376 434 356 463 c 0,120,121
 344 480 344 480 344 502 c 0,122,123
 344 522 344 522 351 542 c 0,124,125
 354 550 354 550 359 559 c 0,126,127
 363 567 363 567 371 576 c 0,128,129
 380 584 380 584 388 588 c 0,130,131
 392 590 392 590 396 590 c 0,132,133
 402 590 402 590 408 587 c 128,-1,134
 414 584 414 584 418 578 c 0,135,136
 430 564 430 564 431 545 c 2,137,-1
 433 530 l 2,138,139
 434 520 434 520 434 506 c 0,140,141
 434 494 434 494 433 483 c 0,142,143
 431 461 431 461 427 436 c 1,144,145
 415 434 415 434 408 434 c 0,118,119
EndSplineSet
EndChar

StartChar: P
Encoding: 80 80 51
Width: 335
Flags: W
LayerCount: 2
Fore
SplineSet
422 628 m 0,1,2
 406 628 406 628 392 622 c 0,3,4
 376 616 376 616 362 608 c 0,5,6
 348 598 348 598 332 584 c 0,7,8
 278 536 278 536 221 450 c 1,9,-1
 255 534 l 2,10,11
 260 550 260 550 264 566 c 2,12,-1
 265 576 l 2,13,14
 265 590 265 590 257 600 c 0,15,16
 241 623 241 623 201 623 c 2,17,-1
 190 622 l 2,18,19
 166 620 166 620 147 614 c 128,-1,20
 128 608 128 608 108 596 c 0,21,22
 98 589 98 589 94 585 c 0,23,24
 80 572 80 572 72 554 c 0,25,26
 70 552 70 552 70 548 c 0,27,28
 70 542 70 542 76 538 c 0,29,30
 79 536 79 536 82 536 c 2,31,-1
 86 536 l 2,32,33
 90 536 90 536 92 541 c 128,-1,34
 94 546 94 546 95 550 c 128,-1,35
 96 554 96 554 100 556 c 0,36,37
 105 564 105 564 113 570 c 2,38,-1
 129 580 l 2,39,40
 149 592 149 592 173 598 c 0,41,42
 188 600 188 600 196 600 c 0,43,44
 208 600 208 600 219 597 c 128,-1,45
 230 594 230 594 234 590 c 0,46,47
 242 582 242 582 242 571 c 0,48,49
 242 566 242 566 240 562 c 2,50,-1
 234 546 l 1,51,-1
 210 484 l 1,52,-1
 186 424 l 1,53,-1
 112 251 l 1,54,-1
 40 75 l 1,55,-1
 28 45 l 2,56,57
 26 42 26 42 26 38 c 0,58,59
 26 36 26 36 26 33 c 0,60,61
 30 26 30 26 36 26 c 2,62,-1
 38 26 l 2,63,64
 46 27 46 27 48 34 c 2,65,-1
 76 104 l 1,66,-1
 116 196 l 1,67,-1
 138 247 l 1,68,-1
 160 297 l 2,69,70
 198 374 198 374 242 440 c 0,71,72
 287 511 287 511 338 559 c 0,73,74
 354 574 354 574 360 578 c 0,75,76
 376 590 376 590 391 597.5 c 128,-1,77
 406 605 406 605 424 605 c 0,78,79
 440 605 440 605 452 592 c 0,80,81
 462 580 462 580 464 563 c 0,82,83
 464 560 464 560 465 548 c 0,84,85
 465 538 465 538 464 530 c 0,86,87
 460 502 460 502 444 456 c 0,88,89
 428 411 428 411 400 371 c 128,-1,90
 372 331 372 331 335 298 c 0,91,92
 274 244 274 244 210 234 c 0,93,94
 204 232 204 232 194 233 c 0,95,96
 183 233 183 233 177.5 234.5 c 128,-1,97
 172 236 172 236 169 242 c 0,98,99
 168 244 168 244 168 246 c 2,100,-1
 168 248 l 2,101,102
 168 250 168 250 166 253 c 0,103,104
 160 258 160 258 156 258 c 128,-1,105
 152 258 152 258 148 254 c 128,-1,106
 144 250 144 250 144 244 c 0,107,108
 144 240 144 240 146 236 c 0,109,110
 151 226 151 226 158.5 220 c 128,-1,111
 166 214 166 214 180 211 c 2,112,-1
 192 210 l 1,113,-1
 204 211 l 2,114,115
 234 212 234 212 263 226 c 0,116,117
 301 241 301 241 336.5 268.5 c 128,-1,118
 372 296 372 296 400 333 c 0,119,120
 430 369 430 369 451 410.5 c 128,-1,121
 472 452 472 452 481 496 c 0,122,123
 488 526 488 526 488 548 c 0,124,125
 488 558 488 558 488 560 c 0,126,127
 486 578 486 578 479 593 c 128,-1,128
 472 608 472 608 460 616 c 0,129,0
 442 628 442 628 422 628 c 0,1,2
EndSplineSet
EndChar

StartChar: Q
Encoding: 81 81 52
Width: 432
Flags: W
LayerCount: 2
Fore
SplineSet
428 112 m 0,1,2
 400 84 400 84 378 72 c 0,3,4
 344 56 344 56 310 56 c 0,5,6
 288 56 288 56 268 61.5 c 128,-1,7
 248 67 248 67 216 78 c 1,8,9
 282 122 282 122 334 185 c 128,-1,10
 386 248 386 248 418 320 c 0,11,12
 430 347 430 347 436 365 c 0,13,14
 442 384 442 384 448 408 c 0,15,16
 452 428 452 428 455.5 452 c 128,-1,17
 459 476 459 476 459 490 c 0,18,19
 458 502 458 502 458 506 c 0,20,21
 454 549 454 549 432 583 c 128,-1,22
 410 617 410 617 374 630 c 0,23,24
 352 638 352 638 330 638 c 0,25,26
 306 638 306 638 286 630 c 0,27,28
 210 603 210 603 158 530 c 0,29,30
 134 492 134 492 120 465 c 0,31,32
 105 431 105 431 95 399 c 128,-1,33
 85 367 85 367 81.5 338.5 c 128,-1,34
 78 310 78 310 78 280 c 0,35,36
 78 254 78 254 88 230 c 0,37,38
 92 222 92 222 97 215 c 0,39,40
 109 200 109 200 123 200 c 2,41,-1
 128 200 l 2,42,43
 134 200 134 200 138 203 c 128,-1,44
 142 206 142 206 142 212 c 0,45,46
 142 216 142 216 141 217 c 0,47,48
 138 224 138 224 132 224 c 0,49,50
 130 224 130 224 128 223 c 2,51,-1
 126 223 l 2,52,53
 119 223 119 223 115 229 c 2,54,-1
 109 240 l 2,55,56
 101 260 101 260 101 287 c 0,57,58
 101 310 101 310 106 342 c 0,59,60
 117 413 117 413 151 477 c 0,61,62
 194 555 194 555 258 592 c 0,63,64
 276 602 276 602 296 608 c 128,-1,65
 316 614 316 614 332 614 c 0,66,67
 378 614 378 614 409 578 c 0,68,69
 423 559 423 559 429.5 537.5 c 128,-1,70
 436 516 436 516 436 488 c 0,71,72
 436 470 436 470 433 448 c 0,73,74
 430 424 430 424 424 404 c 0,75,76
 402 324 402 324 356 254 c 128,-1,77
 310 184 310 184 246 128 c 0,78,79
 232 116 232 116 218 107 c 2,80,-1
 191 88 l 2,81,82
 189 86 189 86 187 86 c 2,83,-1
 186 86 l 1,84,-1
 181 88 l 1,85,-1
 170 92 l 1,86,-1
 158 95 l 1,87,-1
 132 102 l 2,88,89
 120 104 120 104 101 104 c 0,90,91
 75 104 75 104 57.5 96 c 128,-1,92
 40 88 40 88 29 74 c 0,93,94
 24 68 24 68 24 60 c 0,95,96
 24 53 24 53 29 45 c 0,97,98
 36 34 36 34 51 29 c 128,-1,99
 66 24 66 24 82 24 c 0,100,101
 102 23 102 23 120 28.5 c 128,-1,102
 138 34 138 34 162 46 c 2,103,-1
 173 52 l 1,104,-1
 185 58 l 1,105,-1
 190 62 l 1,106,-1
 196 60 l 1,107,-1
 206 56 l 1,108,-1
 250 43 l 2,109,110
 288 33 288 33 312 33 c 0,111,112
 334 33 334 33 356 39 c 128,-1,113
 378 45 378 45 398 58 c 0,114,115
 418 70 418 70 435.5 87.5 c 128,-1,116
 453 105 453 105 462 117 c 2,117,-1
 484 142 l 1,118,-1
 495 156 l 1,119,-1
 500 162 l 2,120,121
 504 166 504 166 504 171 c 0,122,123
 504 179 504 179 496 182 c 2,124,125
 496 182 496 182 492 182 c 0,126,127
 487 182 487 182 483 178 c 2,128,-1
 456 145 l 2,129,0
 436 120 436 120 428 112 c 0,1,2
48 58 m 0,130,131
 46 61 46 61 48 64 c 0,132,133
 52 70 52 70 64 74 c 2,134,-1
 70 77 l 2,135,136
 86 81 86 81 100 81 c 2,137,-1
 115 80 l 2,138,139
 140 76 140 76 160 70 c 1,140,-1
 137 60 l 1,141,-1
 124 54 l 2,142,143
 106 46 106 46 82 47 c 0,144,145
 55 48 55 48 48 58 c 0,130,131
EndSplineSet
EndChar

StartChar: R
Encoding: 82 82 53
Width: 509
Flags: W
LayerCount: 2
Fore
SplineSet
424 60 m 0,1,2
 404 54 404 54 388 54 c 0,3,4
 370 54 370 54 349 60 c 0,5,6
 320 68 320 68 294 86 c 128,-1,7
 268 104 268 104 246 129 c 0,8,9
 222 155 222 155 204 190 c 128,-1,10
 186 225 186 225 178 259 c 1,11,12
 196 256 196 256 212 256 c 0,13,14
 224 256 224 256 245 258 c 0,15,16
 279 264 279 264 308 276 c 0,17,18
 351 293 351 293 387.5 321.5 c 128,-1,19
 424 350 424 350 450 388 c 0,20,21
 472 420 472 420 484 455 c 128,-1,22
 496 490 496 490 496 524 c 0,23,24
 496 542 496 542 492.5 558 c 128,-1,25
 489 574 489 574 480 589 c 0,26,27
 458 624 458 624 414 624 c 0,28,29
 390 624 390 624 364 611 c 0,30,31
 340 598 340 598 318 578 c 0,32,33
 276 542 276 542 228 469 c 1,34,-1
 244 508 l 2,35,36
 256 537 256 537 260 548.5 c 128,-1,37
 264 560 264 560 264 572 c 0,38,39
 264 596 264 596 246 609.5 c 128,-1,40
 228 623 228 623 200 623 c 0,41,42
 181 622 181 622 165 618 c 0,43,44
 139 612 139 612 122 604 c 128,-1,45
 105 596 105 596 92 584 c 0,46,47
 76 570 76 570 72 553 c 0,48,49
 70 550 70 550 70 546 c 0,50,51
 70 536 70 536 81 536 c 0,52,53
 86 536 86 536 86 537 c 0,54,55
 90 540 90 540 92 544 c 0,56,57
 98 560 98 560 112 570 c 0,58,59
 120 578 120 578 130 582 c 0,60,61
 159 594 159 594 175 598 c 0,62,63
 190 600 190 600 196 600 c 128,-1,64
 202 600 202 600 218 598 c 0,65,66
 228 596 228 596 234.5 590 c 128,-1,67
 241 584 241 584 241 573 c 0,68,69
 242 568 242 568 240 562 c 0,70,71
 234 542 234 542 228 532 c 0,72,73
 218 504 218 504 194 448 c 2,74,-1
 160 364 l 1,75,-1
 150 339 l 1,76,-1
 145 326 l 2,77,78
 142 318 142 318 138 312 c 2,79,-1
 133 302 l 1,80,-1
 129 291 l 2,81,82
 126 277 126 277 118 264 c 2,83,-1
 28 46 l 1,84,-1
 26 42 l 1,85,-1
 24 38 l 1,86,87
 24 27 24 27 37 27 c 0,88,89
 45 27 45 27 47 34 c 2,90,-1
 56 56 l 1,91,-1
 96 152 l 2,92,93
 104 169 104 169 111 187 c 2,94,-1
 125 221 l 1,95,-1
 146 274 l 2,96,97
 154 294 154 294 171 324 c 2,98,-1
 196 369 l 1,99,-1
 221 414 l 1,100,-1
 264 479 l 2,101,102
 283 506 283 506 312 540 c 0,103,104
 333 564 333 564 359 581 c 0,105,106
 384 598 384 598 412 601 c 0,107,108
 432 602 432 602 444 594 c 0,109,110
 468 578 468 578 472 538 c 0,111,112
 472 534 472 534 472 523 c 0,113,114
 472 513 472 513 471 506 c 0,115,116
 466 466 466 466 447 429 c 128,-1,117
 428 392 428 392 400 362 c 0,118,119
 338 300 338 300 251 284 c 0,120,121
 247 284 247 284 222 280 c 0,122,123
 219 280 219 280 209 280 c 0,124,125
 202 280 202 280 194 280 c 0,126,127
 184 280 184 280 174 284 c 0,128,129
 166 286 166 286 162 286 c 0,130,131
 156 286 156 286 154 282 c 0,132,133
 152 280 152 280 152 276 c 2,134,-1
 152 268 l 1,135,-1
 154 256 l 2,136,137
 156 251 156 251 158 246 c 0,138,139
 161 232 161 232 163 224 c 2,140,-1
 171 204 l 1,141,142
 210 120 210 120 274 70 c 0,143,144
 308 44 308 44 348 36 c 0,145,146
 368 32 368 32 386 32 c 0,147,148
 408 32 408 32 426 36 c 0,149,150
 486 52 486 52 537 114 c 2,151,-1
 574 160 l 2,152,153
 576 164 576 164 579 166 c 128,-1,154
 582 168 582 168 582 172 c 2,155,-1
 582 174 l 2,156,157
 582 180 582 180 575 183 c 0,158,159
 572 184 572 184 570 184 c 0,160,161
 566 184 566 184 562 180 c 2,162,-1
 528 138 l 2,163,0
 480 80 480 80 424 60 c 0,1,2
EndSplineSet
EndChar

StartChar: S
Encoding: 83 83 54
Width: 471
Flags: W
LayerCount: 2
Fore
SplineSet
421 106 m 1,1,2
 430 130 430 130 430 155 c 0,3,4
 430 204 430 204 402 258 c 2,5,-1
 378 304 l 1,6,-1
 350 352 l 2,7,8
 336 378 336 378 324 400 c 2,9,-1
 314 422 l 2,10,11
 314 425 314 425 310 428 c 0,12,13
 308 431 308 431 310 433 c 2,14,-1
 320 446 l 1,15,-1
 349 490 l 1,16,-1
 377 530 l 2,17,18
 379 534 379 534 390 548 c 0,19,20
 396 554 396 554 402 565 c 0,21,22
 408 575 408 575 411 584.5 c 128,-1,23
 414 594 414 594 414 600 c 2,24,-1
 412 608 l 2,25,26
 410 630 410 630 388 638 c 0,27,28
 380 640 380 640 374 640 c 256,29,30
 368 640 368 640 360 638 c 0,31,32
 346 634 346 634 332 622 c 0,33,34
 318 612 318 612 306 596 c 0,35,36
 290 576 290 576 280 552 c 0,37,38
 271 530 271 530 271 500 c 0,39,40
 270 482 270 482 276 459 c 2,41,-1
 280 446 l 1,42,-1
 283 439 l 2,43,44
 284 435 284 435 282 433 c 2,45,-1
 268 410 l 1,46,-1
 238 366 l 1,47,-1
 190 292 l 1,48,-1
 142 217 l 1,49,-1
 40 62 l 1,50,-1
 26 43 l 2,51,52
 24 40 24 40 24 36 c 0,53,54
 24 34 24 34 26 30 c 0,55,56
 29 24 29 24 35 24 c 2,57,-1
 37 24 l 2,58,59
 43 24 43 24 47 32 c 2,60,-1
 294 408 l 1,61,62
 316 358 316 358 348 312 c 0,63,64
 378 266 378 266 396 215 c 0,65,66
 408 187 408 187 408 158 c 0,67,68
 408 140 408 140 402 122 c 0,69,70
 398 108 398 108 391 98 c 0,71,72
 390 96 390 96 386 96 c 2,73,-1
 379 94 l 1,74,-1
 364 91 l 2,75,76
 338 85 338 85 310 85 c 0,77,78
 292 83 292 83 264 83 c 0,79,80
 238 83 238 83 218 78 c 0,81,82
 198 74 198 74 184.5 63.5 c 128,-1,83
 171 53 171 53 171 35 c 0,84,85
 170 18 170 18 184 10 c 0,86,87
 205 -2 205 -2 235 -2 c 0,88,89
 256 -2 256 -2 274 1 c 0,90,91
 352 16 352 16 396 64 c 1,92,-1
 402 72 l 2,93,94
 404 76 404 76 408 78 c 2,95,-1
 429 84 l 2,96,97
 451 92 451 92 468 102 c 0,98,99
 510 126 510 126 538 161 c 1,100,-1
 544 171 l 2,101,102
 546 176 546 176 542 181 c 256,103,104
 538 186 538 186 534 186 c 2,105,-1
 533 186 l 2,106,107
 528 186 528 186 524 181 c 0,108,0
 484 128 484 128 421 106 c 1,1,2
330 588 m 0,109,110
 340 600 340 600 351.5 608.5 c 128,-1,111
 363 617 363 617 373 617 c 0,112,113
 377 616 377 616 378 616 c 0,114,115
 384 616 384 616 387 613 c 128,-1,116
 390 610 390 610 390 602 c 0,117,118
 390 585 390 585 378 570 c 2,119,-1
 364 553 l 1,120,-1
 336 512 l 1,121,-1
 308 471 l 1,122,-1
 300 459 l 1,123,124
 294 476 294 476 294 498 c 0,125,126
 294 544 294 544 330 588 c 0,109,110
193 36 m 0,127,128
 193 40 193 40 196 42 c 0,129,130
 202 50 202 50 209 51 c 0,131,132
 218 58 218 58 230 58 c 2,133,-1
 253 60 l 2,134,135
 282 62 282 62 312 62 c 0,136,137
 340 62 340 62 370 68 c 1,138,139
 350 51 350 51 328 42 c 0,140,141
 304 32 304 32 276 26 c 2,142,-1
 254 22 l 1,143,-1
 241 21 l 1,144,-1
 232 22 l 2,145,146
 210 22 210 22 198 28 c 0,147,148
 192 32 192 32 193 36 c 0,127,128
EndSplineSet
EndChar

StartChar: T
Encoding: 84 84 55
Width: 245
Flags: W
LayerCount: 2
Fore
SplineSet
464 594 m 0,0,1
 450 590 450 590 416 587 c 0,2,3
 412 586 412 586 396 586 c 0,4,5
 384 586 384 586 377 588 c 0,6,7
 371 588 371 588 338 593 c 0,8,9
 286 600 286 600 234 610 c 0,10,11
 192 618 192 618 150 617 c 0,12,13
 135 616 135 616 131 616 c 0,14,15
 109 615 109 615 90 611 c 0,16,17
 70 607 70 607 53 594 c 0,18,19
 32 578 32 578 26 548 c 0,20,21
 26 546 26 546 25 540 c 0,22,23
 25 524 25 524 33.5 510 c 128,-1,24
 42 496 42 496 58 488 c 2,25,-1
 68 484 l 2,26,27
 72 482 72 482 74 482 c 2,28,-1
 76 482 l 2,29,30
 80 482 80 482 83.5 486 c 128,-1,31
 87 490 87 490 87 494 c 2,32,-1
 87 496 l 2,33,34
 84 502 84 502 80 504 c 2,35,-1
 72 507 l 2,36,37
 62 511 62 511 55 520 c 128,-1,38
 48 529 48 529 48 540 c 0,39,40
 48 554 48 554 59 568 c 0,41,42
 70 580 70 580 87 586 c 0,43,44
 103 591 103 591 113.5 592.5 c 128,-1,45
 124 594 124 594 140 594 c 0,46,47
 162 594 162 594 167 594 c 0,48,49
 190 592 190 592 211 589 c 2,50,-1
 314 574 l 1,51,52
 308 565 308 565 298 543 c 2,53,-1
 284 512 l 1,54,-1
 261 456 l 1,55,-1
 238 400 l 1,56,-1
 170 238 l 1,57,-1
 106 84 l 1,58,-1
 93 56 l 2,59,60
 92 52 92 52 92 49 c 0,61,62
 92 45 92 45 94 41.5 c 128,-1,63
 96 38 96 38 102 38 c 2,64,-1
 103 38 l 2,65,66
 112 39 112 39 114 45 c 2,67,-1
 142 112 l 1,68,-1
 198 244 l 1,69,-1
 266 408 l 2,70,71
 276 431 276 431 282 445 c 2,72,-1
 296 482 l 1,73,-1
 312 520 l 2,74,75
 318 534 318 534 330 558 c 0,76,77
 332 560 332 560 334 562 c 0,78,79
 334 563 334 563 336 565.5 c 128,-1,80
 338 568 338 568 339 568 c 256,81,82
 340 568 340 568 343 568 c 0,83,84
 348 568 348 568 350 568 c 256,85,86
 352 568 352 568 358 568 c 2,87,-1
 367 566 l 1,88,-1
 372 564 l 2,89,90
 373 564 373 564 378 564 c 2,91,-1
 388 564 l 1,92,-1
 404 564 l 2,93,94
 435 564 435 564 473 572 c 0,95,96
 499 580 499 580 510 588 c 0,97,98
 514 592 514 592 514 596 c 128,-1,99
 514 600 514 600 511 604.5 c 128,-1,100
 508 609 508 609 504 609 c 128,-1,101
 500 609 500 609 496 607 c 0,102,103
 480 598 480 598 464 594 c 0,0,1
EndSplineSet
EndChar

StartChar: U
Encoding: 85 85 56
Width: 522
Flags: W
LayerCount: 2
Fore
SplineSet
480 82 m 0,1,2
 442 48 442 48 408 43 c 2,3,-1
 394 42 l 2,4,5
 378 42 378 42 366 47 c 128,-1,6
 354 52 354 52 351 68 c 2,7,-1
 350 82 l 1,8,-1
 351 96 l 2,9,10
 354 110 354 110 358 124 c 0,11,12
 364 147 364 147 370 164 c 2,13,-1
 386 204 l 1,14,-1
 426 298 l 1,15,-1
 465 390 l 1,16,-1
 486 440 l 1,17,-1
 508 490 l 1,18,-1
 518 514 l 1,19,-1
 528 536 l 2,20,21
 532 544 532 544 535 552 c 2,22,-1
 542 568 l 1,23,-1
 546 576 l 2,24,25
 548 580 548 580 548 584 c 2,26,27
 548 584 548 584 548 587 c 0,28,29
 546 596 546 596 538 596 c 0,30,31
 536 596 536 596 534 596 c 0,32,33
 529 596 529 596 528 592 c 2,34,-1
 524 584 l 1,35,-1
 513 559 l 1,36,-1
 496 527 l 1,37,-1
 479 494 l 1,38,-1
 434 417 l 1,39,-1
 388 340 l 1,40,-1
 344 270 l 2,41,42
 324 240 324 240 297 203 c 0,43,44
 269 165 269 165 242.5 136.5 c 128,-1,45
 216 108 216 108 185 85 c 2,46,-1
 159 66 l 2,47,48
 147 58 147 58 130 52 c 0,49,50
 118 47 118 47 106 45 c 0,51,52
 104 44 104 44 98 44 c 256,53,54
 92 44 92 44 83 47 c 0,55,56
 66 52 66 52 66 80 c 0,57,58
 66 88 66 88 66 93 c 0,59,60
 70 119 70 119 72 131.5 c 128,-1,61
 74 144 74 144 80 160 c 0,62,63
 92 204 92 204 110 247 c 2,64,-1
 144 332 l 1,65,-1
 183 422 l 2,66,67
 201 462 201 462 220 513 c 2,68,-1
 226 531 l 2,69,70
 230 539 230 539 232 549 c 0,71,72
 236 563 236 563 236 573 c 0,73,74
 236 581 236 581 234 588 c 0,75,76
 228 603 228 603 212 610 c 0,77,78
 196 618 196 618 178 618 c 0,79,80
 175 618 175 618 164 618 c 0,81,82
 131 618 131 618 94 603 c 0,83,84
 74 596 74 596 55 583 c 128,-1,85
 36 570 36 570 28 553 c 0,86,87
 26 546 26 546 26 536 c 256,88,89
 26 526 26 526 37 526 c 128,-1,90
 48 526 48 526 48 538 c 0,91,92
 48 546 48 546 53 550 c 0,93,94
 63 564 63 564 88 576 c 0,95,96
 106 584 106 584 131 590 c 2,97,-1
 152 594 l 2,98,99
 162 596 162 596 173 595 c 0,100,101
 192 595 192 595 204 588 c 0,102,103
 212 583 212 583 212 573 c 0,104,105
 212 567 212 567 210 558.5 c 128,-1,106
 208 550 208 550 206 544 c 0,107,108
 204 540 204 540 200 526 c 0,109,110
 184 480 184 480 162 430 c 2,111,-1
 120 334 l 1,112,-1
 83 242 l 2,113,114
 64 196 64 196 53 148 c 2,115,-1
 46 116 l 2,116,117
 44 102 44 102 44 86 c 0,118,119
 44 64 44 64 50 46 c 0,120,121
 62 22 62 22 100 22 c 0,122,123
 116 22 116 22 129 26 c 0,124,125
 186 48 186 48 234 96 c 0,126,127
 286 146 286 146 320 194 c 2,128,-1
 354 242 l 2,129,130
 370 266 370 266 395 306 c 2,131,-1
 435 372 l 1,132,-1
 393 280 l 2,133,134
 373 238 373 238 353 184 c 2,135,-1
 342 149 l 1,136,-1
 332 114 l 2,137,138
 328 96 328 96 327 78 c 0,139,140
 326 70 326 70 328 62 c 0,141,142
 331 48 331 48 340.5 38 c 128,-1,143
 350 28 350 28 360 24 c 0,144,145
 376 18 376 18 392 19 c 0,146,147
 426 19 426 19 456 37 c 0,148,149
 492 58 492 58 519 86 c 2,150,-1
 574 144 l 1,151,-1
 592 165 l 2,152,153
 596 170 596 170 596 174 c 2,154,-1
 595 179 l 2,155,156
 592 186 592 186 585 186 c 128,-1,157
 578 186 578 186 576 182 c 2,158,-1
 530 130 l 2,159,0
 505 103 505 103 480 82 c 0,1,2
EndSplineSet
EndChar

StartChar: V
Encoding: 86 86 57
Width: 365
Flags: W
LayerCount: 2
Fore
SplineSet
528 624 m 0,1,2
 524 624 524 624 522 622 c 128,-1,3
 520 620 520 620 520 617 c 0,4,5
 520 615 520 615 520 614 c 2,6,-1
 524 605 l 2,7,8
 526 602 526 602 526 598 c 2,9,-1
 526 594 l 2,10,11
 525 586 525 586 523 582 c 0,12,13
 522 572 522 572 518 561 c 2,14,-1
 510 538 l 2,15,16
 486 472 486 472 440 400 c 0,17,18
 392 322 392 322 314 236 c 0,19,20
 280 199 280 199 252 171.5 c 128,-1,21
 224 144 224 144 184 110 c 1,22,-1
 156 90 l 1,23,-1
 128 70 l 1,24,-1
 107 57 l 2,25,26
 93 49 93 49 85 47 c 0,27,28
 75 44 75 44 68 44 c 0,29,30
 62 44 62 44 58 46 c 0,31,32
 52 49 52 49 51.5 54.5 c 128,-1,33
 51 60 51 60 51 72 c 0,34,35
 52 84 52 84 56 96 c 2,36,-1
 62 121 l 2,37,38
 68 143 68 143 72 154 c 2,39,-1
 84 186 l 1,40,-1
 114 257 l 1,41,-1
 144 328 l 1,42,-1
 180 408 l 1,43,-1
 216 490 l 2,44,45
 220 498 220 498 230 528 c 0,46,47
 234 540 234 540 234 550 c 0,48,49
 234 578 234 578 216 593 c 0,50,51
 194 610 194 610 164 610 c 2,52,-1
 149 608 l 2,53,54
 128 605 128 605 108 599 c 128,-1,55
 88 593 88 593 74.5 585.5 c 128,-1,56
 61 578 61 578 47 566 c 0,57,58
 30 552 30 552 26 538 c 0,59,60
 24 532 24 532 24 530 c 0,61,62
 24 527 24 527 26 522 c 0,63,64
 28 518 28 518 30 517 c 128,-1,65
 32 516 32 516 37 516 c 0,66,67
 41 516 41 516 44 518 c 128,-1,68
 47 520 47 520 47 524 c 0,69,70
 47 526 47 526 48 532 c 0,71,72
 50 538 50 538 53 540 c 0,73,74
 59 547 59 547 67 553 c 0,75,76
 73 556 73 556 76 558 c 2,77,-1
 83 563 l 2,78,79
 95 571 95 571 122.5 578.5 c 128,-1,80
 150 586 150 586 167 586 c 0,81,82
 188 584 188 584 199 578 c 128,-1,83
 210 572 210 572 210 554 c 0,84,85
 210 548 210 548 210 547 c 0,86,87
 210 536 210 536 206 526 c 2,88,-1
 198 506 l 1,89,-1
 180 464 l 1,90,-1
 135 364 l 1,91,-1
 96 277 l 2,92,93
 72 220 72 220 60 188 c 0,94,95
 46 149 46 149 38 121.5 c 128,-1,96
 30 94 30 94 30 66 c 0,97,98
 30 48 30 48 37 36 c 256,99,100
 44 24 44 24 62 22 c 0,101,102
 64 22 64 22 69 21 c 0,103,104
 76 21 76 21 82 22 c 0,105,106
 88 24 88 24 100 30 c 0,107,108
 124 40 124 40 150 56 c 0,109,110
 176 74 176 74 206 99 c 128,-1,111
 236 124 236 124 262 150 c 0,112,113
 316 201 316 201 368 262 c 0,114,115
 401 300 401 300 425.5 335 c 128,-1,116
 450 370 450 370 474 410 c 0,117,118
 520 488 520 488 538 553 c 2,119,-1
 545 576 l 2,120,121
 548 589 548 589 548 594 c 2,122,-1
 548 600 l 1,123,-1
 548 602 l 2,124,125
 548 604 548 604 548 606 c 0,126,127
 546 614 546 614 544 616 c 2,128,-1
 540 620 l 2,129,0
 536 624 536 624 528 624 c 0,1,2
EndSplineSet
EndChar

StartChar: W
Encoding: 87 87 58
Width: 642
Flags: W
LayerCount: 2
Fore
SplineSet
795 600 m 128,-1,1
 796 596 796 596 800 592 c 2,2,-1
 804 587 l 2,3,4
 806 583 806 583 806 579 c 2,5,-1
 806 572 l 2,6,7
 806 561 806 561 802 548 c 0,8,9
 798 536 798 536 794 526 c 0,10,11
 782 496 782 496 758 454 c 2,12,-1
 716 385 l 1,13,-1
 690 344 l 1,14,-1
 662 303 l 1,15,-1
 633 264 l 2,16,17
 619 246 619 246 602 226 c 0,18,19
 540 160 540 160 480 110 c 0,20,21
 454 90 454 90 418 70 c 0,22,23
 400 60 400 60 391 56.5 c 128,-1,24
 382 53 382 53 370 53 c 0,25,26
 356 52 356 52 351 64 c 0,27,28
 349 71 349 71 348 78 c 0,29,30
 347 86 347 86 347 98 c 0,31,32
 346 140 346 140 358 182 c 0,33,34
 366 217 366 217 372 234 c 2,35,-1
 387 284 l 1,36,-1
 395 309 l 2,37,38
 397 313 397 313 398 316 c 0,39,40
 398 320 398 320 400 322 c 2,41,-1
 405 328 l 2,42,43
 406 331 406 331 410 335 c 2,44,-1
 444 379 l 1,45,-1
 496 452 l 2,46,47
 520 486 520 486 540 528 c 0,48,49
 547 542 547 542 550 552 c 0,50,51
 554 564 554 564 554 572 c 0,52,53
 554 578 554 578 553 580 c 0,54,55
 553 590 553 590 546 597 c 0,56,57
 538 604 538 604 528 604 c 0,58,59
 520 604 520 604 513 599 c 128,-1,60
 506 594 506 594 500 586 c 0,61,62
 488 574 488 574 481 558 c 2,63,-1
 464 530 l 2,64,65
 440 486 440 486 423 446 c 0,66,67
 399 390 399 390 383 345 c 0,68,69
 381 340 381 340 380 336 c 0,70,71
 380 332 380 332 376 328 c 2,72,-1
 368 316 l 1,73,-1
 350 295 l 2,74,75
 326 261 326 261 292 221 c 0,76,77
 258 184 258 184 228 152 c 2,78,-1
 198 121 l 1,79,-1
 190 114 l 1,80,-1
 165 92 l 1,81,-1
 138 72 l 2,82,83
 122 60 122 60 110 56 c 0,84,85
 102 52 102 52 86 50 c 2,86,-1
 81 49 l 2,87,88
 71 49 71 49 66 57 c 128,-1,89
 61 65 61 65 61 73 c 2,90,-1
 61 76 l 1,91,-1
 62 92 l 2,92,93
 67 122 67 122 77.5 156 c 128,-1,94
 88 190 88 190 98 216 c 2,95,-1
 126 288 l 1,96,-1
 154 360 l 1,97,-1
 188 440 l 2,98,99
 208 488 208 488 219 520 c 0,100,101
 224 539 224 539 228 556 c 0,102,103
 228 558 228 558 229 565 c 0,104,105
 229 581 229 581 218.5 596.5 c 128,-1,106
 208 612 208 612 188 616 c 0,107,108
 174 620 174 620 160 620 c 0,109,110
 140 620 140 620 121 614 c 0,111,112
 82 604 82 604 54 582 c 0,113,114
 38 573 38 573 30 560 c 0,115,116
 24 552 24 552 24 546 c 0,117,118
 24 542 24 542 27.5 538 c 128,-1,119
 31 534 31 534 34 534 c 2,120,-1
 38 536 l 2,121,122
 43 538 43 538 45 540 c 2,123,-1
 49 546 l 2,124,125
 56 554 56 554 60 558 c 0,126,127
 65 563 65 563 73 568.5 c 128,-1,128
 81 574 81 574 88 578 c 0,129,130
 126 598 126 598 158 597 c 0,131,132
 168 598 168 598 180 596 c 0,133,134
 191 594 191 594 199.5 585 c 128,-1,135
 208 576 208 576 208 564 c 0,136,137
 208 560 208 560 206 554 c 0,138,139
 195 516 195 516 178 476 c 2,140,-1
 158 431 l 1,141,-1
 119 334 l 2,142,143
 97 280 97 280 82 238 c 2,144,-1
 58 170 l 2,145,146
 46 134 46 134 41 100 c 0,147,148
 39 92 39 92 39 78 c 0,149,150
 39 50 39 50 53 38 c 0,151,152
 60 30 60 30 74 28 c 0,153,154
 76 28 76 28 82 27 c 0,155,156
 91 27 91 27 103.5 30.5 c 128,-1,157
 116 34 116 34 127 39 c 0,158,159
 146 50 146 50 154 56 c 2,160,-1
 178 74 l 2,161,162
 226 112 226 112 282 176 c 2,163,-1
 320 220 l 1,164,-1
 358 265 l 1,165,166
 348 233 348 233 343 214 c 0,167,168
 328 152 328 152 325 120 c 2,169,-1
 324 100 l 2,170,171
 324 88 324 88 326 76 c 0,172,173
 332 34 332 34 362 30 c 0,174,175
 382 29 382 29 404 38 c 0,176,177
 450 56 450 56 502 100 c 0,178,179
 522 115 522 115 546 138 c 2,180,-1
 588 178 l 1,181,-1
 609 200 l 2,182,183
 618 208 618 208 628 220 c 2,184,-1
 646 244 l 1,185,-1
 674 282 l 1,186,-1
 744 382 l 2,187,188
 776 430 776 430 802 488 c 0,189,190
 814 516 814 516 820 532 c 256,191,192
 826 548 826 548 828 566 c 0,193,194
 828 568 828 568 828 574 c 0,195,196
 828 584 828 584 824 594 c 0,197,198
 822 604 822 604 814 610 c 0,199,200
 810 614 810 614 807 613 c 0,201,202
 802 612 802 612 798 608 c 128,-1,0
 794 604 794 604 795 600 c 128,-1,1
532 574 m 128,-1,204
 532 570 532 570 530 566 c 2,205,-1
 524 549 l 1,206,-1
 514 527 l 2,207,208
 508 515 508 515 502 506 c 0,209,210
 480 472 480 472 466 452 c 2,211,-1
 429 400 l 1,212,-1
 457 462 l 2,213,214
 474 498 474 498 488 524 c 0,215,216
 496 540 496 540 499 544 c 2,217,-1
 511 563 l 2,218,219
 518 576 518 576 528 580 c 0,220,203
 532 578 532 578 532 574 c 128,-1,204
EndSplineSet
EndChar

StartChar: X
Encoding: 88 88 59
Width: 500
Flags: W
LayerCount: 2
Fore
SplineSet
457 75 m 128,-1,1
 440 62 440 62 422 54 c 0,2,3
 412 50 412 50 404 50 c 0,4,5
 394 50 394 50 384 54 c 256,6,7
 374 58 374 58 367 69 c 128,-1,8
 360 80 360 80 356 92 c 0,9,10
 350 106 350 106 346 122 c 128,-1,11
 342 138 342 138 340 151 c 128,-1,12
 338 164 338 164 337 167 c 0,13,14
 330 203 330 203 324 261 c 2,15,-1
 320 312 l 1,16,-1
 319 319 l 2,17,18
 318 320 318 320 320 322 c 2,19,-1
 324 328 l 1,20,-1
 328 334 l 1,21,-1
 338 345 l 2,22,23
 344 352 344 352 348 356 c 2,24,-1
 418 442 l 1,25,-1
 476 510 l 2,26,27
 504 542 504 542 536 576 c 2,28,-1
 554 595 l 2,29,30
 558 598 558 598 563 601 c 128,-1,31
 568 604 568 604 570 610 c 2,32,-1
 572 614 l 2,33,34
 572 620 572 620 563 624 c 1,35,-1
 559 624 l 2,36,37
 555 624 555 624 551 620 c 0,38,39
 540 614 540 614 534 607 c 0,40,41
 508 583 508 583 487 558 c 2,42,-1
 442 506 l 1,43,-1
 379 430 l 1,44,-1
 316 354 l 1,45,-1
 306 450 l 2,46,47
 302 496 302 496 288 546 c 0,48,49
 284 560 284 560 277 577 c 0,50,51
 268 597 268 597 254 610 c 0,52,53
 240 624 240 624 218 624 c 0,54,55
 204 624 204 624 186 618 c 0,56,57
 146 602 146 602 116 564 c 0,58,59
 82 522 82 522 82 492 c 0,60,61
 82 474 82 474 92 470 c 2,62,-1
 98 469 l 2,63,64
 106 469 106 469 108 477 c 0,65,66
 108 480 108 480 108 482 c 2,67,68
 108 482 108 482 108 484 c 256,69,70
 108 486 108 486 106 490 c 2,71,-1
 106 494 l 2,72,73
 106 500 106 500 107 504 c 2,74,-1
 112 516 l 2,75,76
 120 532 120 532 132 547 c 0,77,78
 166 585 166 585 196 596 c 0,79,80
 210 601 210 601 219 601 c 0,81,82
 224 601 224 601 232 597 c 0,83,84
 240 594 240 594 246 587 c 0,85,86
 252 576 252 576 254 572 c 0,87,88
 266 548 266 548 274 502 c 0,89,90
 278 483 278 483 281 463.5 c 128,-1,91
 284 444 284 444 288 404 c 0,92,93
 289 399 289 399 291 378 c 2,94,-1
 293 352 l 1,95,96
 293 352 293 352 294 346 c 0,97,98
 294 344 294 344 294 339 c 2,99,-1
 296 332 l 1,100,-1
 296 330 l 2,101,102
 296 328 296 328 294 326 c 0,103,104
 287 319 287 319 284 315 c 0,105,106
 280 309 280 309 274 304 c 2,107,-1
 204 219 l 1,108,-1
 143 150 l 2,109,110
 115 120 115 120 79 84 c 0,111,112
 58 64 58 64 32 47 c 0,113,114
 26 42 26 42 26 36 c 2,115,-1
 26 34 l 2,116,117
 26 29 26 29 29.5 26.5 c 128,-1,118
 33 24 33 24 36 24 c 2,119,-1
 40 24 l 2,120,121
 46 26 46 26 50 30 c 2,122,-1
 62 39 l 2,123,124
 94 64 94 64 122 94 c 2,125,-1
 177 154 l 1,126,-1
 238 224 l 1,127,-1
 298 296 l 1,128,-1
 308 202 l 2,129,130
 314 158 314 158 326 110 c 0,131,132
 334 87 334 87 338 75.5 c 128,-1,133
 342 64 342 64 352 51 c 0,134,135
 372 28 372 28 404 28 c 0,136,137
 420 28 420 28 433.5 34 c 128,-1,138
 447 40 447 40 467 53 c 0,139,140
 486 68 486 68 498 82 c 2,141,-1
 526 112 l 1,142,-1
 562 156 l 1,143,-1
 568 162 l 2,144,145
 574 170 574 170 574 174 c 0,146,147
 574 179 574 179 570 182.5 c 128,-1,148
 566 186 566 186 562 186 c 128,-1,149
 558 186 558 186 554 181 c 2,150,-1
 526 148 l 1,151,-1
 492 108 l 2,152,0
 474 88 474 88 457 75 c 128,-1,1
EndSplineSet
EndChar

StartChar: Y
Encoding: 89 89 60
Width: 432
Flags: W
LayerCount: 2
Fore
SplineSet
554 602 m 2,0,1
 548 602 548 602 546 596 c 2,2,-1
 538 582 l 1,3,-1
 532 566 l 2,4,5
 530 560 530 560 526 552 c 0,6,7
 520 539 520 539 508 515 c 2,8,-1
 488 479 l 2,9,10
 466 438 466 438 438 392 c 2,11,-1
 384 306 l 2,12,13
 348 252 348 252 321.5 216 c 128,-1,14
 295 180 295 180 262 146 c 0,15,16
 242 124 242 124 232 116 c 0,17,18
 214 100 214 100 203 91 c 128,-1,19
 192 82 192 82 172 68 c 0,20,21
 140 50 140 50 114 50 c 0,22,23
 100 50 100 50 91 58 c 0,24,25
 83 66 83 66 83 87 c 0,26,27
 83 105 83 105 88 124 c 0,28,29
 96 154 96 154 108 189 c 2,30,-1
 134 253 l 1,31,-1
 165 328 l 2,32,33
 184 374 184 374 196 404 c 2,34,-1
 225 480 l 2,35,36
 241 524 241 524 251 557 c 0,37,38
 254 572 254 572 254 579 c 0,39,40
 254 587 254 587 251 594 c 0,41,42
 246 606 246 606 230 616 c 0,43,44
 214 624 214 624 192 624 c 0,45,46
 174 624 174 624 154 620 c 0,47,48
 102 610 102 610 70 586 c 0,49,50
 62 580 62 580 56 572 c 0,51,52
 49 564 49 564 46.5 558 c 128,-1,53
 44 552 44 552 44 545 c 2,54,-1
 44 540 l 2,55,56
 45 531 45 531 53 531 c 0,57,58
 54 532 54 532 56 532 c 0,59,60
 66 534 66 534 66 544 c 0,61,62
 66 550 66 550 72 556 c 0,63,64
 78 563 78 563 88 570 c 0,65,66
 100 576 100 576 108 580 c 0,67,68
 150 600 150 600 194 600 c 1,69,-1
 208 598 l 2,70,71
 215 597 215 597 222 593 c 0,72,73
 227 589 227 589 229 586 c 128,-1,74
 231 583 231 583 231 578 c 0,75,76
 232 572 232 572 230 566 c 0,77,78
 218 524 218 524 208 500 c 0,79,80
 186 438 186 438 153 358 c 2,81,-1
 94 216 l 1,82,-1
 78 174 l 2,83,84
 71 156 71 156 67.5 140.5 c 128,-1,85
 64 125 64 125 60 103 c 1,86,-1
 60 89 l 1,87,-1
 60 75 l 2,88,89
 62 58 62 58 72 47 c 0,90,91
 80 36 80 36 92 31.5 c 128,-1,92
 104 27 104 27 116 27 c 0,93,94
 130 26 130 26 142 30 c 0,95,96
 170 38 170 38 196 56 c 0,97,98
 221 74 221 74 242.5 94 c 128,-1,99
 264 114 264 114 287 140 c 0,100,101
 315 172 315 172 339.5 204 c 128,-1,102
 364 236 364 236 394 279 c 2,103,-1
 452 370 l 1,104,-1
 412 280 l 1,105,-1
 372 188 l 2,106,107
 335 106 335 106 297 41 c 2,108,-1
 274 1 l 1,109,-1
 268 -8 l 2,110,111
 266 -14 266 -14 259 -16 c 2,112,-1
 164 -66 l 2,113,114
 140 -78 140 -78 118 -92 c 0,115,116
 114 -94 114 -94 99 -103 c 128,-1,117
 84 -112 84 -112 73 -122 c 128,-1,118
 62 -132 62 -132 53 -142 c 0,119,120
 41 -158 41 -158 33 -175 c 128,-1,121
 25 -192 25 -192 25 -206 c 0,122,123
 24 -213 24 -213 26 -220 c 0,124,125
 31 -240 31 -240 45.5 -248 c 128,-1,126
 60 -256 60 -256 78 -256 c 0,127,128
 103 -256 103 -256 121.5 -244 c 128,-1,129
 140 -232 140 -232 158 -210 c 0,130,131
 174 -194 174 -194 190 -174 c 2,132,-1
 218 -134 l 2,133,134
 232 -114 232 -114 245 -92 c 2,135,-1
 278 -38 l 2,136,137
 280 -36 280 -36 280 -34 c 0,138,139
 282 -30 282 -30 284 -28 c 2,140,-1
 309 -14 l 1,141,-1
 329 -2 l 2,142,143
 341 6 341 6 348 12 c 0,144,145
 404 54 404 54 476 135 c 0,146,147
 486 145 486 145 498 161 c 0,148,149
 502 164 502 164 504 166 c 128,-1,150
 506 168 506 168 506 174 c 0,151,152
 506 188 506 188 492 186 c 0,153,154
 488 186 488 186 486 181 c 2,155,-1
 480 175 l 1,156,-1
 470 163 l 1,157,-1
 446 134 l 2,158,159
 408 94 408 94 378 66 c 256,160,161
 348 38 348 38 312 14 c 2,162,-1
 305 10 l 1,163,164
 343 74 343 74 377 146 c 2,165,-1
 440 286 l 1,166,-1
 492 408 l 1,167,-1
 542 530 l 1,168,-1
 552 553 l 1,169,-1
 562 578 l 2,170,171
 566 588 566 588 566 592 c 0,172,173
 566 599 566 599 559 601 c 2,174,-1
 554 602 l 2,0,1
108 -224 m 0,175,176
 94 -232 94 -232 76 -232 c 2,177,-1
 72 -232 l 2,178,179
 62 -232 62 -232 55 -225 c 128,-1,180
 48 -218 48 -218 48 -208 c 0,181,182
 48 -200 48 -200 52 -188 c 0,183,184
 60 -168 60 -168 77 -152 c 0,185,186
 92 -134 92 -134 110 -124 c 2,187,-1
 148 -102 l 1,188,-1
 195 -76 l 1,189,-1
 242 -51 l 1,190,-1
 214 -97 l 1,191,-1
 186 -142 l 2,192,193
 158 -181 158 -181 123 -213 c 0,194,195
 116 -219 116 -219 108 -224 c 0,175,176
EndSplineSet
EndChar

StartChar: Z
Encoding: 90 90 61
Width: 438
Flags: W
LayerCount: 2
Fore
SplineSet
500 186 m 128,-1,1
 496 186 496 186 492.5 182.5 c 128,-1,2
 489 179 489 179 488 178 c 2,3,-1
 484 172 l 1,4,-1
 460 144 l 1,5,-1
 412 95 l 2,6,7
 368 54 368 54 324 24 c 1,8,9
 326 36 326 36 325 48 c 0,10,11
 324 76 324 76 316 98 c 0,12,13
 304 128 304 128 272 154 c 1,14,15
 350 198 350 198 406 270 c 0,16,17
 434 305 434 305 456 347.5 c 128,-1,18
 478 390 478 390 488 435 c 0,19,20
 492 457 492 457 493 478 c 0,21,22
 493 496 493 496 489 519 c 0,23,24
 480 561 480 561 444 588 c 0,25,26
 406 616 406 616 358 616 c 0,27,28
 314 616 314 616 276 603 c 0,29,30
 243 593 243 593 213.5 574.5 c 128,-1,31
 184 556 184 556 164 530 c 0,32,33
 148 508 148 508 142 488 c 0,34,35
 138 480 138 480 138 469 c 0,36,37
 138 461 138 461 141.5 457.5 c 128,-1,38
 145 454 145 454 150 454 c 0,39,40
 156 454 156 454 159 458 c 256,41,42
 162 462 162 462 162 468 c 0,43,44
 162 472 162 472 163 478 c 128,-1,45
 164 484 164 484 166 488 c 2,46,-1
 170 496 l 2,47,48
 176 508 176 508 183 517 c 128,-1,49
 190 526 190 526 202 536 c 0,50,51
 230 560 230 560 266 575 c 128,-1,52
 302 590 302 590 342 592 c 0,53,54
 346 592 346 592 356 592 c 0,55,56
 396 592 396 592 426 572 c 0,57,58
 444 560 444 560 455 543 c 128,-1,59
 466 526 466 526 469 504 c 0,60,61
 471 490 471 490 471 480 c 0,62,63
 470 470 470 470 468 455 c 0,64,65
 464 436 464 436 456 408 c 0,66,67
 442 368 442 368 416 326 c 0,68,69
 394 290 394 290 360 253 c 0,70,71
 328 220 328 220 292 194 c 0,72,73
 278 183 278 183 274 181 c 2,74,-1
 250 167 l 1,75,-1
 244 170 l 1,76,-1
 234 174 l 2,77,78
 232 176 232 176 224 178 c 128,-1,79
 216 180 216 180 211 181 c 0,80,81
 189 186 189 186 169 186 c 0,82,83
 140 186 140 186 116 179 c 0,84,85
 106 175 106 175 98 172 c 0,86,87
 90 168 90 168 84 163 c 0,88,89
 72 154 72 154 72 140 c 0,90,91
 72 136 72 136 72 132 c 0,92,93
 75 122 75 122 84 116 c 0,94,95
 102 106 102 106 122 106 c 0,96,97
 126 106 126 106 142 108 c 0,98,99
 168 110 168 110 194 118 c 256,100,101
 220 126 220 126 242 136 c 2,102,-1
 248 140 l 1,103,-1
 249 140 l 2,104,105
 251 140 251 140 253 138 c 0,106,107
 259 135 259 135 263 131 c 0,108,109
 272 122 272 122 280 114 c 0,110,111
 296 94 296 94 300 74 c 0,112,113
 304 60 304 60 304 47 c 0,114,115
 304 38 304 38 301 24 c 2,116,-1
 298 12 l 2,117,118
 298 8 298 8 295 6 c 2,119,-1
 290 3 l 1,120,-1
 265 -12 l 2,121,122
 255 -18 255 -18 220 -36 c 0,123,124
 194 -50 194 -50 176 -62 c 2,125,-1
 130 -91 l 2,126,127
 110 -105 110 -105 90 -122 c 0,128,129
 69 -140 69 -140 56 -154 c 0,130,131
 41 -170 41 -170 33 -188 c 128,-1,132
 25 -206 25 -206 25 -220 c 0,133,134
 25 -232 25 -232 35 -242 c 0,135,136
 46 -254 46 -254 70 -254 c 0,137,138
 89 -252 89 -252 107.5 -244 c 128,-1,139
 126 -236 126 -236 146 -224 c 0,140,141
 169 -209 169 -209 181.5 -200 c 128,-1,142
 194 -191 194 -191 214 -173 c 0,143,144
 274 -117 274 -117 307 -36 c 2,145,-1
 312 -25 l 2,146,147
 314 -21 314 -21 314 -19 c 2,148,-1
 316 -14 l 2,149,150
 316 -12 316 -12 316 -10 c 2,151,-1
 316 -7 l 1,152,-1
 320 -5 l 1,153,-1
 328 1 l 1,154,-1
 344 11 l 2,155,156
 350 16 350 16 360 22 c 2,157,-1
 393 47 l 1,158,-1
 424 75 l 1,159,-1
 448 98 l 1,160,-1
 456 106 l 2,161,162
 460 110 460 110 464 115 c 128,-1,163
 468 120 468 120 472 124 c 2,164,-1
 496 152 l 1,165,-1
 508 167 l 2,166,167
 512 171 512 171 512 175 c 0,168,169
 512 180 512 180 507 184 c 0,170,0
 504 186 504 186 500 186 c 128,-1,1
96 137 m 0,171,172
 94 139 94 139 94 140 c 0,173,174
 94 143 94 143 100 146 c 0,175,176
 108 150 108 150 110 152 c 0,177,178
 130 162 130 162 154 162 c 0,179,180
 157 162 157 162 168 162 c 0,181,182
 194 162 194 162 222 154 c 1,183,184
 204 146 204 146 178 138 c 0,185,186
 144 130 144 130 120 130 c 2,187,-1
 114 130 l 2,188,189
 101 132 101 132 96 137 c 0,171,172
84 -228 m 128,-1,191
 74 -230 74 -230 66 -230 c 0,192,193
 60 -230 60 -230 56 -230 c 0,194,195
 48 -228 48 -228 48 -218 c 2,196,-1
 49 -214 l 2,197,198
 49 -210 49 -210 51.5 -204 c 128,-1,199
 54 -198 54 -198 56 -196 c 0,200,201
 64 -180 64 -180 78 -165 c 0,202,203
 90 -150 90 -150 108 -136 c 0,204,205
 138 -110 138 -110 196 -77 c 0,206,207
 214 -66 214 -66 240 -52 c 2,208,-1
 286 -26 l 1,209,210
 260 -88 260 -88 220 -134 c 0,211,212
 177 -181 177 -181 122 -211 c 2,213,-1
 102 -222 l 2,214,190
 94 -226 94 -226 84 -228 c 128,-1,191
EndSplineSet
EndChar

StartChar: bracketleft
Encoding: 91 91 62
Width: 333
Flags: W
LayerCount: 2
Fore
SplineSet
510 708 m 0,1,2
 502 708 502 708 498 709 c 2,3,-1
 496 709 l 2,4,5
 488 708 488 708 481 708 c 0,6,7
 456 708 456 708 448 708 c 2,8,-1
 366 708 l 2,9,10
 360 708 360 708 328 706 c 1,11,-1
 308 655 l 2,12,13
 300 632 300 632 284 580 c 2,14,-1
 226 398 l 1,15,-1
 200 313 l 1,16,-1
 180 244 l 1,17,-1
 154 153 l 1,18,-1
 126 62 l 1,19,-1
 103 -22 l 2,20,21
 93 -57 93 -57 86 -94 c 1,22,23
 106 -95 106 -95 118 -95 c 0,24,25
 152 -94 152 -94 163 -94 c 2,26,-1
 208 -94 l 2,27,28
 218 -94 218 -94 242 -93 c 0,29,30
 260 -93 260 -93 276 -97 c 0,31,32
 288 -102 288 -102 288 -110 c 0,33,34
 288 -124 288 -124 278 -124 c 2,35,-1
 252 -126 l 1,36,-1
 224 -128 l 1,37,-1
 182 -128 l 2,38,39
 176 -128 176 -128 157 -129 c 0,40,41
 136 -128 136 -128 130 -128 c 2,42,-1
 78 -127 l 2,43,44
 67 -124 67 -124 61.5 -118 c 128,-1,45
 56 -112 56 -112 56 -100 c 0,46,47
 56 -92 56 -92 56 -89 c 0,48,49
 59 -65 59 -65 69.5 -23.5 c 128,-1,50
 80 18 80 18 92 58 c 2,51,-1
 118 142 l 2,52,53
 134 192 134 192 142 226 c 0,54,55
 154 268 154 268 164 301 c 2,56,-1
 192 394 l 1,57,-1
 222 492 l 1,58,-1
 252 585 l 1,59,-1
 276 662 l 2,60,61
 290 704 290 704 294 710 c 0,62,63
 300 722 300 722 307 728 c 0,64,65
 322 738 322 738 340 738 c 2,66,-1
 364 738 l 1,67,-1
 490 738 l 2,68,69
 507 737 507 737 516 734 c 0,70,71
 522 732 522 732 522 724 c 0,72,73
 522 720 522 720 521 720 c 1,74,0
 521 708 521 708 510 708 c 0,1,2
EndSplineSet
EndChar

StartChar: backslash
Encoding: 92 92 63
Width: 359
Flags: W
LayerCount: 2
Fore
SplineSet
338 -65.5 m 128,-1,1
 334 -72 334 -72 329 -72 c 2,2,-1
 328 -72 l 2,3,4
 324 -72 324 -72 321 -64 c 128,-1,5
 318 -56 318 -56 313 -41 c 2,6,-1
 254 152 l 1,7,-1
 180 387 l 1,8,-1
 146 488 l 1,9,-1
 112 592 l 1,10,-1
 84 676 l 2,11,12
 72 710 72 710 72 717 c 0,13,14
 72 721 72 721 72 725 c 256,15,16
 72 729 72 729 72 730 c 0,17,18
 74 735 74 735 82 735 c 0,19,20
 86 735 86 735 92 728 c 0,21,22
 104 714 104 714 110 690 c 2,23,-1
 116 672 l 1,24,-1
 138 600 l 1,25,-1
 160 533 l 1,26,-1
 184 464 l 1,27,-1
 210 385 l 1,28,-1
 254 244 l 1,29,-1
 296 108 l 1,30,-1
 328 2 l 2,31,32
 341 -44 341 -44 341 -51 c 0,33,0
 342 -59 342 -59 338 -65.5 c 128,-1,1
EndSplineSet
EndChar

StartChar: bracketright
Encoding: 93 93 64
Width: 333
Flags: W
LayerCount: 2
Fore
SplineSet
402 638 m 256,0,1
 394 606 394 606 378 550 c 2,2,-1
 352 466 l 2,3,4
 336 416 336 416 328 382 c 2,5,-1
 306 306 l 1,6,-1
 278 214 l 1,7,-1
 219 22 l 1,8,-1
 194 -54 l 2,9,10
 184 -82 184 -82 176 -102 c 0,11,12
 172 -114 172 -114 164 -120 c 0,13,14
 157 -126 157 -126 146.5 -128 c 128,-1,15
 136 -130 136 -130 130 -130 c 2,16,-1
 106 -130 l 1,17,-1
 79 -130 l 2,18,19
 50 -130 50 -130 42 -130 c 256,20,21
 34 -130 34 -130 6 -129 c 2,22,-1
 -20 -129 l 2,23,24
 -38 -129 -38 -129 -46 -126 c 0,25,26
 -52 -124 -52 -124 -52 -117 c 0,27,28
 -52 -112 -52 -112 -51 -112 c 0,29,30
 -49 -100 -49 -100 -42 -101 c 2,31,-1
 -40 -101 l 2,32,33
 -38 -102 -38 -102 -30 -102 c 0,34,35
 -21 -102 -21 -102 -11 -100 c 0,36,37
 -7 -100 -7 -100 11 -100 c 2,38,-1
 104 -100 l 2,39,40
 128 -100 128 -100 142 -98 c 1,41,42
 151 -75 151 -75 162.5 -43.5 c 128,-1,43
 174 -12 174 -12 187 28 c 2,44,-1
 215 117 l 1,45,-1
 270 294 l 1,46,-1
 290 364 l 1,47,-1
 317 454 l 1,48,-1
 344 544 l 1,49,-1
 368 630 l 2,50,51
 378 670 378 670 384 702 c 1,52,53
 362 702 362 702 350 702 c 0,54,55
 317 702 317 702 307 702 c 2,56,-1
 262 701 l 2,57,58
 252 700 252 700 228 700 c 0,59,60
 208 700 208 700 195 705 c 0,61,62
 182 709 182 709 182 718 c 0,63,64
 182 730 182 730 192 730 c 2,65,-1
 218 733 l 1,66,-1
 246 734 l 1,67,-1
 288 736 l 2,68,69
 294 736 294 736 314 736 c 128,-1,70
 334 736 334 736 340 736 c 2,71,-1
 390 734 l 2,72,73
 402 730 402 730 408.5 725 c 128,-1,74
 415 720 415 720 415 708 c 2,75,-1
 414 698 l 2,76,77
 410 670 410 670 402 638 c 256,0,1
EndSplineSet
EndChar

StartChar: underscore
Encoding: 95 95 65
Width: 496
Flags: W
LayerCount: 2
Fore
SplineSet
448 -136 m 0,1,2
 422 -142 422 -142 381 -142 c 2,3,-1
 332 -142 l 2,4,5
 251 -142 251 -142 219 -142 c 2,6,-1
 69 -144 l 1,7,-1
 52 -144 l 2,8,9
 44 -144 44 -144 36 -142 c 0,10,11
 19 -139 19 -139 19 -122 c 0,12,13
 19 -111 19 -111 28 -108.5 c 128,-1,14
 37 -106 37 -106 59 -106 c 0,15,16
 85 -106 85 -106 158 -104 c 2,17,-1
 171 -104 l 1,18,-1
 340 -102 l 2,19,20
 358 -102 358 -102 439 -102 c 0,21,22
 449 -102 449 -102 455.5 -108 c 128,-1,23
 462 -114 462 -114 462 -124 c 0,24,0
 462 -132 462 -132 448 -136 c 0,1,2
EndSplineSet
EndChar

StartChar: grave
Encoding: 96 96 66
Width: 235
Flags: W
LayerCount: 2
Fore
SplineSet
83 452 m 0,0,1
 88 444 88 444 99 442 c 0,2,3
 100 442 100 442 103 442 c 0,4,5
 112 442 112 442 118 449 c 128,-1,6
 124 456 124 456 124 464 c 0,7,8
 124 469 124 469 122 474.5 c 128,-1,9
 120 480 120 480 116 482 c 2,10,-1
 112 486 l 1,11,12
 112 486 112 486 112 488 c 0,13,14
 115 496 115 496 118 502 c 0,15,16
 122 508 122 508 124 512 c 2,17,-1
 127 518 l 1,18,-1
 132 524 l 2,19,20
 135 530 135 530 140 536 c 2,21,-1
 158 561 l 2,22,23
 160 565 160 565 159 568 c 0,24,25
 159 574 159 574 154.5 578 c 128,-1,26
 150 582 150 582 145 582 c 0,27,28
 139 582 139 582 133 574 c 2,29,-1
 122 561 l 1,30,-1
 112 547 l 2,31,32
 96 521 96 521 88 505.5 c 128,-1,33
 80 490 80 490 78 471 c 2,34,-1
 78 465 l 2,35,36
 78 458 78 458 83 452 c 0,0,1
EndSplineSet
EndChar

StartChar: a
Encoding: 97 97 67
Width: 331
Flags: W
LayerCount: 2
Fore
SplineSet
308 98 m 0,1,2
 298 87 298 87 293 82 c 2,3,-1
 276 68 l 2,4,5
 272 64 272 64 264 60 c 128,-1,6
 256 56 256 56 248 53 c 2,7,-1
 242 52 l 2,8,9
 238 52 238 52 234 54 c 0,10,11
 227 56 227 56 222.5 63 c 128,-1,12
 218 70 218 70 218 80 c 0,13,14
 218 96 218 96 227 126 c 2,15,-1
 234 150 l 2,16,17
 238 160 238 160 240 162 c 2,18,-1
 246 174 l 2,19,20
 252 182 252 182 260 198 c 2,21,-1
 281 238 l 1,22,-1
 300 278 l 2,23,24
 302 282 302 282 304 288 c 2,25,-1
 308 298 l 1,26,-1
 310 304 l 1,27,-1
 309 308 l 2,28,29
 309 312 309 312 304.5 314 c 128,-1,30
 300 316 300 316 293 318 c 2,31,-1
 284 320 l 1,32,-1
 266 320 l 2,33,34
 246 320 246 320 230 317 c 0,35,36
 184 307 184 307 144 278 c 0,37,38
 128 266 128 266 110 249 c 256,39,40
 92 232 92 232 76 214 c 0,41,42
 48 176 48 176 32 134 c 0,43,44
 25 113 25 113 25 95 c 0,45,46
 25 78 25 78 30 64 c 0,47,48
 36 48 36 48 50 39.5 c 128,-1,49
 64 31 64 31 80 31 c 0,50,51
 105 31 105 31 128 42 c 0,52,53
 148 54 148 54 167 71 c 128,-1,54
 186 88 186 88 198 106 c 1,55,56
 196 96 196 96 197 84 c 2,57,-1
 198 64 l 2,58,59
 200 43 200 43 222 34 c 0,60,61
 234 28 234 28 243 28 c 0,62,63
 250 28 250 28 260 32 c 0,64,65
 278 40 278 40 295 53.5 c 128,-1,66
 312 67 312 67 332 88 c 2,67,-1
 366 127 l 1,68,-1
 380 144 l 1,69,-1
 396 161 l 1,70,-1
 400 166 l 2,71,72
 402 168 402 168 404 172 c 0,73,74
 404 174 404 174 404 176 c 0,75,76
 404 182 404 182 398 184 c 0,77,78
 395 186 395 186 392 186 c 0,79,80
 388 186 388 186 384 182 c 2,81,-1
 347 140 l 2,82,0
 328 118 328 118 308 98 c 0,1,2
84 54 m 0,83,84
 82 54 82 54 78 54 c 256,85,86
 74 54 74 54 66 56 c 0,87,88
 60 58 60 58 56.5 64 c 128,-1,89
 53 70 53 70 50 79 c 0,90,91
 48 90 48 90 48 96 c 128,-1,92
 48 102 48 102 50 112 c 0,93,94
 54 130 54 130 60 144 c 0,95,96
 78 184 78 184 120 226 c 0,97,98
 140 245 140 245 156 257.5 c 128,-1,99
 172 270 172 270 190 278 c 0,100,101
 208 288 208 288 227 292.5 c 128,-1,102
 246 297 246 297 262 297 c 0,103,104
 272 297 272 297 280 296 c 1,105,-1
 265 268 l 1,106,-1
 249 240 l 2,107,108
 242 226 242 226 240 221 c 2,109,-1
 232 202 l 1,110,-1
 222 182 l 1,111,-1
 218 172 l 2,112,113
 217 170 217 170 215 168 c 128,-1,114
 213 166 213 166 211 162 c 0,115,116
 195 138 195 138 184.5 123.5 c 128,-1,117
 174 109 174 109 160 95 c 0,118,119
 145 80 145 80 131.5 71 c 128,-1,120
 118 62 118 62 102 58 c 0,121,122
 94 56 94 56 84 54 c 0,83,84
EndSplineSet
EndChar

StartChar: b
Encoding: 98 98 68
Width: 326
Flags: W
LayerCount: 2
Fore
SplineSet
326 137 m 0,1,2
 315 132 315 132 302 132 c 0,3,4
 290 132 290 132 278 137 c 1,5,6
 292 164 292 164 301 188 c 256,7,8
 310 212 310 212 312 236 c 2,9,-1
 313 250 l 2,10,11
 313 268 313 268 308.5 285 c 128,-1,12
 304 302 304 302 288 310 c 0,13,14
 280 314 280 314 273 314 c 0,15,16
 263 314 263 314 253 308 c 0,17,18
 237 296 237 296 228 280 c 0,19,20
 220 264 220 264 216.5 246 c 128,-1,21
 213 228 213 228 213 215 c 2,22,-1
 214 200 l 2,23,24
 217 176 217 176 224.5 158 c 128,-1,25
 232 140 232 140 248 129 c 1,26,27
 222 82 222 82 185 62 c 0,28,29
 170 52 170 52 148 52 c 0,30,31
 129 52 129 52 119.5 65 c 128,-1,32
 110 78 110 78 110 98 c 0,33,34
 110 134 110 134 121 176 c 2,35,-1
 133 215 l 1,36,-1
 137 228 l 1,37,-1
 141 238 l 1,38,-1
 145 251 l 2,39,40
 148 256 148 256 150 258 c 128,-1,41
 152 260 152 260 152 262 c 2,42,-1
 154 264 l 1,43,-1
 170 284 l 1,44,-1
 186 303 l 1,45,-1
 234 358 l 2,46,47
 262 392 262 392 280 414 c 2,48,-1
 310 454 l 2,49,50
 328 478 328 478 336 494 c 0,51,52
 350 514 350 514 357 529.5 c 128,-1,53
 364 545 364 545 368 562 c 0,54,55
 370 568 370 568 370 580 c 0,56,57
 370 588 370 588 366 596 c 0,58,59
 358 616 358 616 334 622 c 0,60,61
 314 623 314 623 297 607 c 0,62,63
 283 595 283 595 270.5 577.5 c 128,-1,64
 258 560 258 560 242 532 c 0,65,66
 222 494 222 494 204 452 c 2,67,-1
 169 372 l 2,68,69
 145 314 145 314 132 280 c 0,70,71
 130 278 130 278 130 274 c 2,72,-1
 128 270 l 2,73,74
 122 264 122 264 120 259 c 2,75,-1
 102 240 l 1,76,-1
 56 186 l 2,77,78
 52 182 52 182 52 178 c 0,79,80
 52 176 52 176 54 172 c 0,81,82
 56 166 56 166 64 166 c 2,83,-1
 66 166 l 2,84,85
 72 168 72 168 74 172 c 2,86,-1
 82 180 l 1,87,-1
 108 210 l 1,88,89
 94 170 94 170 88 121 c 2,90,-1
 87 104 l 2,91,92
 87 88 87 88 91 72 c 0,93,94
 94 56 94 56 108 45 c 0,95,96
 125 29 125 29 151 29 c 0,97,98
 166 29 166 29 181 35 c 0,99,100
 202 43 202 43 218 56 c 0,101,102
 232 70 232 70 246 88 c 2,103,-1
 265 114 l 1,104,-1
 267 116 l 1,105,-1
 270 116 l 1,106,-1
 276 114 l 2,107,108
 286 110 286 110 302 110 c 0,109,110
 320 110 320 110 338 118 c 0,111,112
 350 124 350 124 359 131 c 128,-1,113
 368 138 368 138 383 152 c 2,114,-1
 394 164 l 2,115,116
 399 168 399 168 399 174 c 2,117,-1
 399 176 l 2,118,119
 396 186 396 186 386 186 c 0,120,121
 382 186 382 186 378 182 c 0,122,0
 354 150 354 150 326 137 c 0,1,2
187 358 m 1,123,-1
 225 444 l 2,124,125
 243 484 243 484 268 530 c 2,126,-1
 286 558 l 2,127,128
 294 572 294 572 306 584 c 0,129,130
 310 588 310 588 314 592 c 0,131,132
 317 594 317 594 321.5 596 c 128,-1,133
 326 598 326 598 329 598 c 0,134,135
 335 598 335 598 340.5 593 c 128,-1,136
 346 588 346 588 346 581 c 0,137,138
 346 578 346 578 346 576 c 0,139,140
 346 567 346 567 342.5 557.5 c 128,-1,141
 339 548 339 548 335 540 c 0,142,143
 332 532 332 532 330 528 c 0,144,145
 310 490 310 490 292 470 c 0,146,147
 274 444 274 444 252 416 c 2,148,-1
 210 364 l 1,149,-1
 173 322 l 1,150,-1
 187 358 l 1,123,-1
236 220 m 0,151,152
 238 242 238 242 246 262 c 0,153,154
 250 270 250 270 253 276 c 0,155,156
 258 282 258 282 264 286 c 128,-1,157
 270 290 270 290 274 290 c 0,158,159
 280 290 280 290 284 282 c 256,160,161
 288 274 288 274 289 266 c 128,-1,162
 290 258 290 258 290 242 c 0,163,164
 286 198 286 198 259 148 c 1,165,166
 234 174 234 174 236 220 c 0,151,152
EndSplineSet
EndChar

StartChar: c
Encoding: 99 99 69
Width: 242
Flags: W
LayerCount: 2
Fore
SplineSet
250.5 134 m 128,-1,1
 233 116 233 116 209.5 98 c 128,-1,2
 186 80 186 80 162 70 c 0,3,4
 144 62 144 62 120 56 c 0,5,6
 112 54 112 54 100 54 c 0,7,8
 90 54 90 54 80 58 c 0,9,10
 58 68 58 68 57 103 c 0,11,12
 57 124 57 124 63 142 c 0,13,14
 68 159 68 159 76 174 c 0,15,16
 96 214 96 214 126 248 c 1,17,-1
 144 264 l 2,18,19
 152 272 152 272 163 278 c 128,-1,20
 174 284 174 284 182 284 c 0,21,22
 188 284 188 284 194 279 c 256,23,24
 200 274 200 274 202 263 c 2,25,-1
 204 254 l 2,26,27
 206 250 206 250 212 247 c 0,28,29
 220 246 220 246 222 249 c 128,-1,30
 224 252 224 252 224 260 c 2,31,-1
 224 269 l 1,32,-1
 221 278 l 2,33,34
 217 292 217 292 205.5 300 c 128,-1,35
 194 308 194 308 180 308 c 0,36,37
 175 308 175 308 174 307 c 0,38,39
 156 303 156 303 142 292.5 c 128,-1,40
 128 282 128 282 106 260 c 0,41,42
 76 227 76 227 57 189.5 c 128,-1,43
 38 152 38 152 34 114 c 1,44,-1
 34 101 l 2,45,46
 34 71 34 71 50 52 c 0,47,48
 66 36 66 36 84 34 c 0,49,50
 93 32 93 32 102 32 c 0,51,52
 114 32 114 32 122 34 c 0,53,54
 162 40 162 40 197 62 c 128,-1,55
 232 84 232 84 269 121 c 2,56,-1
 308 162 l 1,57,-1
 314 168 l 2,58,59
 316 170 316 170 316 174 c 2,60,-1
 315 177 l 2,61,62
 314 181 314 181 310.5 183.5 c 128,-1,63
 307 186 307 186 303 186 c 0,64,65
 300 186 300 186 296 182 c 0,66,0
 268 152 268 152 250.5 134 c 128,-1,1
EndSplineSet
EndChar

StartChar: d
Encoding: 100 100 70
Width: 322
Flags: W
LayerCount: 2
Fore
SplineSet
402 552 m 2,0,1
 394 552 394 552 390 542 c 2,2,-1
 382 522 l 1,3,-1
 364 478 l 1,4,-1
 334 406 l 2,5,6
 310 352 310 352 302 334 c 0,7,8
 264 244 264 244 223 175 c 0,9,10
 200 135 200 135 172 105 c 0,11,12
 144 76 144 76 106 62 c 0,13,14
 89 56 89 56 81 56 c 0,15,16
 72 56 72 56 66 60 c 0,17,18
 53 64 53 64 50 81 c 0,19,20
 47 89 47 89 47 98 c 0,21,22
 47 104 47 104 49 114 c 0,23,24
 52 132 52 132 60 144 c 0,25,26
 71 167 71 167 84.5 184.5 c 128,-1,27
 98 202 98 202 121 228 c 0,28,29
 151 258 151 258 184 274 c 0,30,31
 202 284 202 284 221 288 c 128,-1,32
 240 292 240 292 256 292 c 0,33,34
 264 292 264 292 266 292 c 2,35,-1
 270 292 l 1,36,37
 270 292 270 292 272 291 c 2,38,-1
 274 290 l 2,39,40
 282 290 282 290 286 300 c 0,41,42
 286 301 286 301 286 303 c 0,43,44
 286 307 286 307 284 310 c 0,45,46
 280 314 280 314 276 314 c 2,47,-1
 269 315 l 2,48,49
 267 316 267 316 260 316 c 0,50,51
 235 317 235 317 212.5 309.5 c 128,-1,52
 190 302 190 302 165 289 c 0,53,54
 147 279 147 279 129.5 265.5 c 128,-1,55
 112 252 112 252 98 236 c 0,56,57
 80 216 80 216 65 196 c 0,58,59
 50 178 50 178 39 154 c 0,60,61
 33 142 33 142 29 125 c 128,-1,62
 25 108 25 108 25 96 c 0,63,64
 24 78 24 78 32 61 c 0,65,66
 38 48 38 48 53 40.5 c 128,-1,67
 68 33 68 33 82 33 c 0,68,69
 90 32 90 32 96 34 c 0,70,71
 118 40 118 40 135 49 c 0,72,73
 155 59 155 59 171 72 c 0,74,75
 186 86 186 86 202 104 c 2,76,-1
 210 114 l 2,77,78
 212 116 212 116 217 123 c 1,79,80
 212 105 212 105 210 83 c 2,81,-1
 209 76 l 2,82,83
 209 58 209 58 220 44 c 0,84,85
 230 32 230 32 244 32 c 0,86,87
 270 32 270 32 299 60 c 2,88,-1
 324 87 l 2,89,90
 339 104 339 104 353 120 c 2,91,-1
 381 154 l 2,92,93
 389 164 389 164 390 165 c 0,94,95
 393 168 393 168 394 171 c 0,96,97
 394 172 394 172 394 174 c 0,98,99
 394 180 394 180 388 184 c 0,100,101
 384 186 384 186 382 186 c 0,102,103
 378 186 378 186 374 181 c 2,104,-1
 337 136 l 1,105,-1
 310 106 l 2,106,107
 296 91 296 91 282 78 c 2,108,-1
 274 70 l 1,109,-1
 262 60 l 2,110,111
 252 54 252 54 248 54 c 0,112,113
 242 54 242 54 238 58 c 0,114,115
 235 61 235 61 234.5 65.5 c 128,-1,116
 234 70 234 70 234 79 c 0,117,118
 234 98 234 98 238 116 c 2,119,-1
 249 150 l 2,120,121
 254 166 254 166 261 182 c 2,122,-1
 280 224 l 1,123,-1
 301 274 l 1,124,-1
 358 404 l 1,125,-1
 412 536 l 2,126,127
 414 540 414 540 414 542 c 0,128,129
 414 548 414 548 406 551 c 2,130,-1
 402 552 l 2,0,1
EndSplineSet
EndChar

StartChar: e
Encoding: 101 101 71
Width: 218
Flags: W
LayerCount: 2
Fore
SplineSet
278 186 m 128,-1,1
 274 186 274 186 270 181 c 2,2,-1
 252 158 l 1,3,-1
 235 140 l 2,4,5
 231 136 231 136 217 122 c 0,6,7
 195 102 195 102 182 92 c 0,8,9
 170 82 170 82 152 72 c 0,10,11
 122 58 122 58 104 58 c 0,12,13
 97 58 97 58 95 58 c 0,14,15
 84 58 84 58 70 68 c 0,16,17
 64 74 64 74 62 82 c 128,-1,18
 60 90 60 90 58 102 c 0,19,20
 58 126 58 126 66 154 c 0,21,22
 68 154 68 154 68 156 c 2,23,24
 68 156 68 156 68 158 c 1,25,26
 70 158 70 158 72 158 c 2,27,28
 72 158 72 158 74 158 c 2,29,-1
 86 162 l 1,30,-1
 112 169 l 2,31,32
 132 174 132 174 149 182 c 0,33,34
 169 190 169 190 181.5 199 c 128,-1,35
 194 208 194 208 206 218 c 0,36,37
 230 238 230 238 236 262 c 0,38,39
 238 270 238 270 238 276 c 128,-1,40
 238 282 238 282 236 289 c 0,41,42
 226 316 226 316 188 316 c 2,43,-1
 177 316 l 2,44,45
 161 314 161 314 149.5 306 c 128,-1,46
 138 298 138 298 120 282 c 0,47,48
 90 256 90 256 70 221 c 128,-1,49
 50 186 50 186 40 146 c 0,50,51
 34 120 34 120 34 103 c 128,-1,52
 34 86 34 86 42 70 c 0,53,54
 50 56 50 56 62.5 46.5 c 128,-1,55
 75 37 75 37 91 35 c 2,56,-1
 104 34 l 2,57,58
 148 34 148 34 212 86 c 1,59,-1
 235 108 l 1,60,-1
 256 130 l 1,61,-1
 282 158 l 1,62,-1
 290 170 l 2,63,64
 292 172 292 172 291 175 c 0,65,66
 290 180 290 180 286 184 c 0,67,0
 282 186 282 186 278 186 c 128,-1,1
191 294 m 0,68,69
 215 294 215 294 215 278 c 0,70,71
 214 274 214 274 214 272 c 0,72,73
 212 256 212 256 198 242 c 0,74,75
 177 220 177 220 146.5 207 c 128,-1,76
 116 194 116 194 78 184 c 1,77,78
 98 226 98 226 126 257 c 0,79,80
 154 289 154 289 184 293 c 0,81,82
 185 294 185 294 191 294 c 0,68,69
EndSplineSet
EndChar

StartChar: f
Encoding: 102 102 72
Width: 192
Flags: W
LayerCount: 2
Fore
SplineSet
316 622 m 0,1,2
 308 624 308 624 302 624 c 0,3,4
 294 624 294 624 287 620 c 0,5,6
 269 615 269 615 256.5 602.5 c 128,-1,7
 244 590 244 590 234 570 c 2,8,-1
 218 531 l 1,9,-1
 202 492 l 1,10,-1
 159 390 l 1,11,-1
 117 286 l 1,12,-1
 102 250 l 2,13,14
 96 236 96 236 88 221 c 0,15,16
 86 215 86 215 82 213 c 0,17,18
 78 209 78 209 77 206 c 2,19,-1
 64 194 l 1,20,-1
 54 182 l 2,21,22
 52 178 52 178 52 174 c 0,23,24
 52 171 52 171 52 169 c 0,25,26
 55 163 55 163 62 163 c 2,27,-1
 64 163 l 1,28,-1
 -9 -4 l 1,29,-1
 -39 -80 l 2,30,31
 -56 -120 -56 -120 -64 -156 c 2,32,-1
 -67 -176 l 1,33,-1
 -69 -186 l 1,34,-1
 -70 -200 l 2,35,36
 -70 -208 -70 -208 -68 -215 c 0,37,38
 -63 -233 -63 -233 -48.5 -244 c 128,-1,39
 -34 -255 -34 -255 -15 -255 c 0,40,41
 15 -255 15 -255 37 -231.5 c 128,-1,42
 59 -208 59 -208 70 -175 c 0,43,44
 76 -150 76 -150 78 -128 c 2,45,-1
 80 -104 l 1,46,-1
 78 -79 l 2,47,48
 76 -50 76 -50 74 -30 c 2,49,-1
 66 18 l 1,50,-1
 64 36 l 1,51,-1
 64 43 l 2,52,53
 64 49 64 49 66 53 c 2,54,55
 66 53 66 53 66 58 c 1,56,57
 73 56 73 56 76 56 c 2,58,-1
 86 56 l 1,59,-1
 94 58 l 1,60,61
 128 58 128 58 161 77 c 0,62,63
 192 91 192 91 226 126 c 2,64,-1
 244 144 l 1,65,-1
 262 165 l 2,66,67
 266 170 266 170 265 174 c 0,68,69
 265 178 265 178 261.5 182 c 128,-1,70
 258 186 258 186 254 186 c 2,71,-1
 253 186 l 2,72,73
 248 186 248 186 245 181 c 0,74,75
 226 158 226 158 200 132 c 0,76,77
 177 109 177 109 150.5 96 c 128,-1,78
 124 83 124 83 98 80 c 2,79,-1
 86 79 l 1,80,-1
 73 79 l 2,81,82
 64 79 64 79 58 77.5 c 128,-1,83
 52 76 52 76 49 70 c 2,84,-1
 76 134 l 1,85,-1
 104 198 l 2,86,87
 106 205 106 205 113 212 c 2,88,-1
 122 222 l 1,89,-1
 144 247 l 1,90,-1
 190 301 l 1,91,-1
 240 362 l 2,92,93
 267 396 267 396 284.5 421.5 c 128,-1,94
 302 447 302 447 322 478 c 0,95,96
 354 530 354 530 354 572 c 0,97,98
 354 592 354 592 341 605 c 0,99,0
 331 618 331 618 316 622 c 0,1,2
325 536 m 0,101,102
 321 526 321 526 311 508 c 2,103,-1
 295 479 l 1,104,-1
 272 445 l 1,105,-1
 248 412 l 1,106,-1
 194 342 l 1,107,-1
 136 274 l 1,108,-1
 190 402 l 1,109,-1
 205 439 l 1,110,-1
 210 450 l 1,111,-1
 228 496 l 1,112,-1
 245 536 l 1,113,-1
 253 554 l 2,114,115
 261 577 261 577 285 595 c 0,116,117
 293 601 293 601 302 601 c 0,118,119
 308 601 308 601 314 598 c 0,120,121
 323 594 323 594 328 586 c 0,122,123
 332 580 332 580 332 566 c 0,124,125
 332 558 332 558 330 552 c 0,126,100
 329 544 329 544 325 536 c 0,101,102
56 -103 m 0,127,128
 56 -151 56 -151 44 -180 c 0,129,130
 28 -216 28 -216 1 -228 c 0,131,132
 -9 -232 -9 -232 -17 -232 c 0,133,134
 -35 -232 -35 -232 -43 -217 c 0,135,136
 -47 -208 -47 -208 -47 -202 c 0,137,138
 -47 -192 -47 -192 -45 -186 c 2,139,-1
 -43 -170 l 2,140,141
 -42 -164 -42 -164 -40 -156 c 0,142,143
 -30 -124 -30 -124 -24 -108 c 2,144,-1
 -7 -62 l 2,145,146
 6 -32 6 -32 18 0 c 2,147,-1
 43 60 l 2,148,149
 42 50 42 50 42 41 c 256,150,151
 42 32 42 32 43 24 c 0,152,153
 44 6 44 6 48 -20 c 0,154,155
 52 -54 52 -54 54 -68 c 0,156,157
 56 -86 56 -86 56 -103 c 0,127,128
EndSplineSet
EndChar

StartChar: g
Encoding: 103 103 73
Width: 267
Flags: W
LayerCount: 2
Fore
SplineSet
217 85 m 1,1,-1
 289 248 l 1,2,-1
 304 282 l 1,3,-1
 310 294 l 2,4,5
 312 300 312 300 312 304 c 2,6,-1
 312 306 l 2,7,8
 312 312 312 312 306 315 c 128,-1,9
 300 318 300 318 293 318 c 0,10,11
 275 320 275 320 265 321 c 0,12,13
 243 321 243 321 215.5 312.5 c 128,-1,14
 188 304 188 304 160 288 c 0,15,16
 130 270 130 270 104 244 c 0,17,18
 78 216 78 216 62 190 c 0,19,20
 48 168 48 168 40 150 c 128,-1,21
 32 132 32 132 28 110 c 1,22,-1
 28 98 l 2,23,24
 28 86 28 86 30.5 73 c 128,-1,25
 33 60 33 60 43 48 c 0,26,27
 58 32 58 32 86 32 c 0,28,29
 102 32 102 32 118 37 c 0,30,31
 138 45 138 45 155 59 c 128,-1,32
 172 73 172 73 192 94 c 2,33,-1
 198 102 l 1,34,-1
 184 66 l 1,35,-1
 182 62 l 2,36,37
 180 60 180 60 178 58 c 2,38,-1
 106 10 l 2,39,40
 84 -6 84 -6 68 -22 c 0,41,42
 4 -82 4 -82 -14 -144 c 0,43,44
 -19 -158 -19 -158 -22 -173 c 0,45,46
 -24 -182 -24 -182 -24 -190 c 2,47,-1
 -22 -202 l 2,48,49
 -19 -224 -19 -224 -8.5 -238 c 128,-1,50
 2 -252 2 -252 20 -252 c 0,51,52
 26 -252 26 -252 26 -251 c 0,53,54
 38 -249 38 -249 47 -243 c 0,55,56
 56 -238 56 -238 66 -226 c 0,57,58
 78 -210 78 -210 87 -196 c 2,59,-1
 104 -166 l 2,60,61
 120 -135 120 -135 138 -95 c 2,62,-1
 169 -24 l 1,63,-1
 194 35 l 2,64,65
 197 43 197 43 202 46 c 2,66,-1
 224 62 l 1,67,-1
 243 76 l 2,68,69
 270 97 270 97 288 114 c 2,70,-1
 314 140 l 1,71,-1
 326 152 l 1,72,-1
 334 160 l 2,73,74
 342 168 342 168 341 174 c 2,75,-1
 341 176 l 2,76,77
 340 180 340 180 336 183 c 128,-1,78
 332 186 332 186 328 186 c 0,79,80
 322 186 322 186 320 181 c 0,81,0
 270 125 270 125 217 85 c 1,1,-1
88 54 m 0,82,83
 86 54 86 54 82 54 c 128,-1,84
 78 54 78 54 70 56 c 0,85,86
 58 62 58 62 54 72 c 128,-1,87
 50 82 50 82 50 96 c 0,88,89
 50 106 50 106 52 112 c 0,90,91
 56 130 56 130 66 150 c 256,92,93
 76 170 76 170 90 188 c 0,94,95
 115 222 115 222 155 255 c 0,96,97
 194 286 194 286 237 295 c 0,98,99
 249 298 249 298 263 298 c 0,100,101
 272 298 272 298 284 296 c 1,102,103
 270 264 270 264 258 238 c 0,104,105
 244 213 244 213 226 180 c 2,106,-1
 204 147 l 2,107,108
 192 132 192 132 180 116 c 2,109,-1
 157 90 l 1,110,111
 128 64 128 64 106 58 c 0,112,113
 98 56 98 56 88 54 c 0,82,83
118 -83 m 1,114,-1
 94 -132 l 2,115,116
 84 -154 84 -154 75 -171 c 128,-1,117
 66 -188 66 -188 54 -204 c 0,118,119
 52 -208 52 -208 48 -212 c 128,-1,120
 44 -216 44 -216 36 -224 c 0,121,122
 26 -230 26 -230 20 -230 c 0,123,124
 16 -230 16 -230 12 -226 c 0,125,126
 5 -222 5 -222 2.5 -214 c 128,-1,127
 0 -206 0 -206 0 -198 c 2,128,-1
 0 -192 l 2,129,130
 0 -183 0 -183 0 -180 c 2,131,-1
 2 -169 l 2,132,133
 11 -127 11 -127 47 -78 c 0,134,135
 54 -68 54 -68 70 -52 c 0,136,137
 92 -26 92 -26 128 -4 c 2,138,-1
 163 20 l 1,139,-1
 140 -33 l 1,140,-1
 118 -83 l 1,114,-1
EndSplineSet
EndChar

StartChar: h
Encoding: 104 104 74
Width: 350
Flags: W
LayerCount: 2
Fore
SplineSet
306 72 m 2,1,2
 306 72 306 72 297 64 c 0,3,4
 280 52 280 52 270 52 c 0,5,6
 265 52 265 52 263 57.5 c 128,-1,7
 261 63 261 63 261 68 c 0,8,9
 262 74 262 74 264 82 c 2,10,-1
 267 92 l 2,11,12
 277 122 277 122 282 133 c 2,13,-1
 296 163 l 1,14,-1
 312 196 l 2,15,16
 330 236 330 236 329 263 c 0,17,18
 329 265 329 265 328 276 c 0,19,20
 326 292 326 292 311.5 302.5 c 128,-1,21
 297 313 297 313 281 313 c 0,22,23
 274 313 274 313 264 310 c 0,24,25
 240 302 240 302 222 289 c 0,26,27
 201 274 201 274 180 252 c 0,28,29
 160 232 160 232 136 202 c 1,30,31
 147 228 147 228 156 250 c 0,32,33
 166 276 166 276 182 296 c 2,34,-1
 234 356 l 1,35,-1
 293 426 l 2,36,37
 323 464 323 464 345 500 c 2,38,-1
 352 512 l 2,39,40
 367 538 367 538 372.5 549 c 128,-1,41
 378 560 378 560 378 575 c 0,42,43
 378 605 378 605 356 616 c 0,44,45
 347 620 347 620 339 620 c 0,46,47
 328 620 328 620 318 614 c 0,48,49
 304 606 304 606 295 596 c 128,-1,50
 286 586 286 586 272 564 c 0,51,52
 270 562 270 562 269 559 c 128,-1,53
 268 556 268 556 266 553 c 2,54,-1
 230 482 l 1,55,-1
 196 404 l 1,56,-1
 162 326 l 1,57,-1
 152 302 l 2,58,59
 146 290 146 290 138 280 c 2,60,-1
 124 266 l 2,61,62
 116 257 116 257 112 250 c 2,63,-1
 52 182 l 2,64,65
 48 178 48 178 48 174 c 2,66,-1
 48 172 l 2,67,68
 50 162 50 162 60 163 c 0,69,70
 66 163 66 163 70 168 c 2,71,-1
 122 228 l 1,72,-1
 72 102 l 1,73,-1
 62 76 l 1,74,-1
 52 50 l 2,75,76
 48 40 48 40 48 32 c 0,77,78
 48 26 48 26 54 24 c 0,79,80
 58 22 58 22 60 22 c 0,81,82
 64 22 64 22 66 27 c 2,83,-1
 72 42 l 1,84,-1
 85 73 l 2,85,86
 89 84 89 84 99 102 c 0,87,88
 149 197 149 197 222 260 c 0,89,90
 234 270 234 270 246 278 c 256,91,92
 258 286 258 286 272 288 c 0,93,94
 277 288 277 288 283 288 c 0,95,96
 304 288 304 288 304 262 c 0,97,98
 304 256 304 256 302 249 c 0,99,100
 298 229 298 229 291 211 c 2,101,-1
 286 200 l 1,102,-1
 278 181 l 1,103,-1
 256 130 l 2,104,105
 244 104 244 104 240 77 c 0,106,107
 240 74 240 74 239 68 c 0,108,109
 239 51 239 51 248.5 40 c 128,-1,110
 258 29 258 29 270 29 c 0,111,112
 278 30 278 30 284 32 c 0,113,114
 322 48 322 48 374 110 c 1,115,-1
 393 130 l 2,116,117
 398 134 398 134 408 148 c 2,118,-1
 416 160 l 2,119,120
 422 168 422 168 423 173 c 0,121,122
 423 178 423 178 416 182 c 2,123,-1
 412 184 l 2,124,125
 408 184 408 184 404 179 c 2,126,-1
 357 124 l 2,127,0
 332 94 332 94 306 72 c 2,1,2
317 586 m 128,-1,129
 325 594 325 594 335 597 c 2,130,-1
 340 598 l 2,131,132
 345 598 345 598 350 592 c 0,133,134
 354 586 354 586 354 578 c 0,135,136
 354 562 354 562 344 544 c 2,137,-1
 326 513 l 2,138,139
 298 467 298 467 265 427 c 2,140,-1
 196 348 l 1,141,-1
 227 418 l 2,142,143
 239 448 239 448 259 486 c 0,144,145
 273 516 273 516 281.5 533 c 128,-1,146
 290 550 290 550 301 566 c 0,147,128
 309 578 309 578 317 586 c 128,-1,129
EndSplineSet
EndChar

StartChar: i
Encoding: 105 105 75
Width: 176
Flags: W
LayerCount: 2
Fore
SplineSet
228 446 m 0,1,2
 232 446 232 446 236 448 c 0,3,4
 244 452 244 452 247.5 458.5 c 128,-1,5
 251 465 251 465 251 473 c 2,6,-1
 251 476 l 2,7,8
 250 484 250 484 242 490 c 0,9,10
 238 492 238 492 234 492 c 128,-1,11
 230 492 230 492 226 490 c 0,12,13
 218 487 218 487 214.5 479.5 c 128,-1,14
 211 472 211 472 211 464 c 2,15,-1
 211 461 l 2,16,17
 212 452 212 452 220 448 c 0,18,0
 226 446 226 446 228 446 c 0,1,2
238 186 m 128,-1,20
 234 186 234 186 229 180 c 2,21,-1
 216 166 l 2,22,23
 197 144 197 144 177 121 c 2,24,-1
 156 98 l 2,25,26
 139 81 139 81 128.5 72.5 c 128,-1,27
 118 64 118 64 108 58 c 2,28,-1
 100 54 l 2,29,30
 96 52 96 52 93 53 c 2,31,-1
 91 53 l 2,32,33
 90 52 90 52 88 58 c 2,34,-1
 87 66 l 2,35,36
 86 80 86 80 89 90 c 0,37,38
 91 100 91 100 98 120 c 0,39,40
 106 140 106 140 110 150 c 0,41,42
 120 176 120 176 139 215 c 128,-1,43
 158 254 158 254 173 282 c 0,44,45
 175 285 175 285 176.5 288.5 c 128,-1,46
 178 292 178 292 179 295 c 2,47,-1
 180 299 l 2,48,49
 180 302 180 302 178 304 c 0,50,51
 176 308 176 308 171 310 c 2,52,-1
 170 310 l 2,53,54
 164 310 164 310 158 304 c 2,55,-1
 136 278 l 1,56,-1
 66 198 l 1,57,-1
 51 179 l 2,58,59
 47 174 47 174 47 170 c 256,60,61
 47 166 47 166 51.5 162 c 128,-1,62
 56 158 56 158 59 158 c 0,63,64
 64 158 64 158 68 164 c 2,65,-1
 114 218 l 1,66,-1
 94 172 l 2,67,68
 84 149 84 149 76 126 c 0,69,70
 69 105 69 105 66.5 93.5 c 128,-1,71
 64 82 64 82 64 72 c 0,72,73
 64 63 64 63 65 57.5 c 128,-1,74
 66 52 66 52 68 44 c 0,75,76
 71 37 71 37 77.5 33.5 c 128,-1,77
 84 30 84 30 92 30 c 0,78,79
 98 30 98 30 102 32 c 0,80,81
 114 36 114 36 123 41 c 0,82,83
 140 53 140 53 148 59 c 0,84,85
 159 69 159 69 174 84 c 0,86,87
 189 100 189 100 198 110 c 2,88,-1
 224 140 l 1,89,-1
 242 161 l 2,90,91
 248 168 248 168 249 174 c 0,92,93
 248 178 248 178 244 182 c 0,94,19
 242 186 242 186 238 186 c 128,-1,20
EndSplineSet
EndChar

StartChar: j
Encoding: 106 106 76
Width: 151
Flags: W
LayerCount: 2
Fore
SplineSet
228 482 m 0,1,2
 224 482 224 482 219 480 c 0,3,4
 212 477 212 477 208 470 c 128,-1,5
 204 463 204 463 204 455 c 2,6,-1
 204 452 l 2,7,8
 204 444 204 444 214 440 c 0,9,10
 220 438 220 438 223 437 c 0,11,12
 225 437 225 437 230 439 c 0,13,14
 238 443 238 443 242 450 c 0,15,16
 245 456 245 456 245 464 c 2,17,-1
 245 468 l 2,18,19
 244 476 244 476 236 480 c 0,20,0
 231 482 231 482 228 482 c 0,1,2
94 72 m 1,21,-1
 131 161 l 1,22,-1
 166 250 l 1,23,-1
 182 292 l 2,24,25
 184 296 184 296 184 298 c 0,26,27
 184 304 184 304 178 308 c 0,28,29
 176 310 176 310 173 310 c 0,30,31
 169 310 169 310 164 306 c 2,32,-1
 160 303 l 1,33,-1
 130 268 l 1,34,-1
 100 232 l 1,35,-1
 68 196 l 1,36,-1
 58 186 l 2,37,38
 52 180 52 180 52 174 c 256,39,40
 52 168 52 168 60 164 c 2,41,-1
 64 163 l 2,42,43
 68 163 68 163 73 167 c 2,44,-1
 84 179 l 1,45,-1
 111 210 l 1,46,-1
 138 242 l 1,47,-1
 102 150 l 1,48,-1
 64 58 l 1,49,-1
 59 46 l 2,50,51
 58 40 58 40 52 35 c 2,52,-1
 2 -6 l 1,53,-1
 -36 -39 l 1,54,-1
 -72 -72 l 2,55,56
 -104 -106 -104 -106 -123 -137 c 128,-1,57
 -142 -168 -142 -168 -143 -203 c 0,58,59
 -143 -211 -143 -211 -140 -222 c 0,60,61
 -138 -232 -138 -232 -133 -240 c 0,62,63
 -120 -258 -120 -258 -100 -256 c 0,64,65
 -82 -254 -82 -254 -68 -241 c 256,66,67
 -54 -228 -54 -228 -40 -208 c 0,68,69
 -10 -162 -10 -162 6 -126 c 2,70,-1
 46 -40 l 1,71,-1
 69 12 l 1,72,-1
 74 24 l 1,73,-1
 77 26 l 1,74,-1
 79 28 l 1,75,-1
 92 39 l 1,76,-1
 116 62 l 2,77,78
 128 73 128 73 140 84 c 0,79,80
 158 100 158 100 167 110 c 2,81,-1
 193 135 l 1,82,-1
 207 150 l 1,83,-1
 216 159 l 2,84,85
 220 163 220 163 224 168 c 0,86,87
 226 170 226 170 226 174 c 0,88,89
 226 179 226 179 221.5 182.5 c 128,-1,90
 217 186 217 186 213 186 c 128,-1,91
 209 186 209 186 205 182 c 0,92,93
 154 126 154 126 94 72 c 1,21,-1
-84 -224 m 0,94,95
 -94 -232 -94 -232 -104 -232 c 0,96,97
 -110 -232 -110 -232 -113 -228 c 0,98,99
 -120 -218 -120 -218 -120 -204 c 0,100,101
 -120 -182 -120 -182 -103 -152 c 0,102,103
 -84 -114 -84 -114 -44 -79 c 2,104,-1
 -9 -47 l 1,105,-1
 26 -16 l 1,106,-1
 34 -9 l 1,107,108
 22 -36 22 -36 7 -68 c 2,109,-1
 -21 -127 l 1,110,-1
 -44 -170 l 2,111,112
 -52 -186 -52 -186 -70 -210 c 0,113,114
 -76 -218 -76 -218 -84 -224 c 0,94,95
EndSplineSet
EndChar

StartChar: k
Encoding: 107 107 77
Width: 321
Flags: W
LayerCount: 2
Fore
SplineSet
307 106 m 2,1,-1
 285 83 l 2,2,3
 273 71 273 71 258.5 63 c 128,-1,4
 244 55 244 55 230 55 c 0,5,6
 222 56 222 56 214 58 c 0,7,8
 198 63 198 63 190 77 c 0,9,10
 174 101 174 101 167 127 c 2,11,-1
 160 148 l 1,12,13
 204 158 204 158 235 171.5 c 128,-1,14
 266 185 266 185 288 209 c 0,15,16
 296 216 296 216 303 226 c 0,17,18
 317 246 317 246 317 266 c 0,19,20
 317 280 317 280 310 292 c 0,21,22
 297 310 297 310 276 310 c 0,23,24
 270 310 270 310 269 310 c 0,25,26
 245 306 245 306 224 293 c 0,27,28
 182 267 182 267 140 213 c 1,29,-1
 160 263 l 2,30,31
 162 266 162 266 163 270 c 0,32,33
 164 272 164 272 166 274 c 2,34,-1
 173 282 l 2,35,36
 176 288 176 288 180 292 c 0,37,38
 181 294 181 294 183 296 c 0,39,40
 186 297 186 297 188 300 c 0,41,42
 216 332 216 332 246 370 c 2,43,-1
 297 436 l 2,44,45
 322 468 322 468 345 504 c 2,46,-1
 350 512 l 1,47,-1
 359 527 l 2,48,49
 362 533 362 533 370 551 c 0,50,51
 376 564 376 564 376 578 c 0,52,53
 376 590 376 590 372 600 c 256,54,55
 368 610 368 610 358 616 c 0,56,57
 350 622 350 622 340 622 c 0,58,59
 333 622 333 622 329 620 c 0,60,61
 313 614 313 614 303 605 c 0,62,63
 295 597 295 597 284.5 582.5 c 128,-1,64
 274 568 274 568 268 557 c 0,65,66
 242 508 242 508 212 442 c 2,67,-1
 176 358 l 1,68,-1
 166 334 l 1,69,-1
 156 309 l 1,70,-1
 150 297 l 1,71,-1
 146 284 l 1,72,-1
 126 263 l 1,73,-1
 90 222 l 2,74,75
 66 194 66 194 53 182 c 0,76,77
 49 178 49 178 49 172 c 2,78,-1
 49 170 l 2,79,80
 49 166 49 166 52.5 164 c 128,-1,81
 56 162 56 162 60 162 c 256,82,83
 64 162 64 162 68 165 c 2,84,-1
 76 173 l 2,85,86
 90 186 90 186 97 196 c 2,87,-1
 118 219 l 1,88,-1
 72 102 l 1,89,-1
 48 42 l 1,90,-1
 47 36 l 1,91,-1
 48 31 l 2,92,93
 50 26 50 26 58 24 c 1,94,-1
 60 22 l 2,95,96
 62 22 62 22 64 24 c 2,97,-1
 66 28 l 2,98,99
 66 30 66 30 68 32 c 1,100,-1
 68 32 l 1,101,-1
 68 32 l 1,102,103
 102 128 102 128 158 200 c 0,104,105
 170 216 170 216 181.5 228 c 128,-1,106
 193 240 193 240 211 255 c 2,107,-1
 233 271 l 2,108,109
 244 278 244 278 256 282 c 128,-1,110
 268 286 268 286 277 286 c 0,111,112
 287 286 287 286 290.5 280 c 128,-1,113
 294 274 294 274 294 266 c 0,114,115
 294 262 294 262 294 261 c 0,116,117
 292 253 292 253 288 246 c 0,118,119
 282 234 282 234 273 226 c 0,120,121
 265 216 265 216 254 209 c 0,122,123
 228 191 228 191 186 177 c 2,124,-1
 162 171 l 2,125,126
 156 171 156 171 150 169 c 0,127,128
 146 168 146 168 144 168 c 0,129,130
 140 168 140 168 136.5 165 c 128,-1,131
 133 162 133 162 133 158 c 0,132,133
 134 155 134 155 134 154 c 2,134,-1
 138 140 l 1,135,-1
 150 108 l 2,136,137
 156 92 156 92 164 75 c 0,138,139
 186 39 186 39 216 33 c 0,140,141
 224 32 224 32 230 32 c 0,142,143
 240 32 240 32 248 34 c 0,144,145
 277 42 277 42 304 70 c 0,146,147
 316 80 316 80 325 90 c 128,-1,148
 334 100 334 100 350 118 c 2,149,-1
 372 144 l 1,150,-1
 378 151 l 2,151,152
 382 154 382 154 385 158 c 2,153,-1
 390 165 l 2,154,155
 392 169 392 169 392 172 c 0,156,157
 392 177 392 177 389 180 c 128,-1,158
 386 183 386 183 380 183 c 0,159,160
 376 183 376 183 372 179 c 2,161,-1
 340 142 l 2,162,0
 330 130 330 130 307 106 c 2,1,-1
330 595 m 0,164,165
 338 598 338 598 340 598 c 0,166,167
 348 598 348 598 351 592 c 0,168,169
 354 584 354 584 354 576 c 128,-1,170
 354 568 354 568 349.5 558 c 128,-1,171
 345 548 345 548 335 532 c 0,172,173
 310 490 310 490 283 455 c 2,174,-1
 226 382 l 1,175,-1
 210 363 l 1,176,-1
 194 344 l 1,177,-1
 226 416 l 1,178,-1
 257 486 l 1,179,-1
 278 526 l 2,180,181
 288 548 288 548 300 566 c 0,182,163
 318 590 318 590 330 595 c 0,164,165
EndSplineSet
EndChar

StartChar: l
Encoding: 108 108 78
Width: 202
Flags: W
LayerCount: 2
Fore
SplineSet
319 622 m 0,1,2
 310 622 310 622 300 616 c 0,3,4
 282 606 282 606 271 591 c 0,5,6
 250 566 250 566 232 528 c 2,7,-1
 213 492 l 2,8,9
 208 480 208 480 196 454 c 0,10,11
 186 436 186 436 172 400 c 2,12,-1
 150 345 l 2,13,14
 142 330 142 330 136 310 c 2,15,-1
 122 274 l 2,16,17
 120 271 120 271 119 267 c 0,18,19
 118 264 118 264 116 262 c 0,20,21
 116 259 116 259 114 256 c 2,22,-1
 110 251 l 2,23,24
 104 244 104 244 100 240 c 0,25,26
 96 234 96 234 92 230 c 2,27,-1
 68 198 l 2,28,29
 68 196 68 196 56 186 c 0,30,31
 50 179 50 179 50 174 c 0,32,33
 50 172 50 172 51 171 c 0,34,35
 53 163 53 163 60 163 c 0,36,37
 68 163 68 163 72 168 c 2,38,-1
 82 180 l 1,39,-1
 92 192 l 1,40,41
 81 160 81 160 76.5 141 c 128,-1,42
 72 122 72 122 72 101 c 0,43,44
 72 75 72 75 83 56.5 c 128,-1,45
 94 38 94 38 116 38 c 0,46,47
 130 37 130 37 142 43 c 0,48,49
 174 60 174 60 194 82 c 2,50,-1
 221 110 l 1,51,-1
 255 146 l 1,52,-1
 263 156 l 2,53,54
 267 162 267 162 272 167 c 0,55,56
 274 170 274 170 278 176 c 0,57,58
 280 180 280 180 276 185 c 128,-1,59
 272 190 272 190 268 190 c 2,60,-1
 266 190 l 2,61,62
 258 190 258 190 250 176 c 0,63,64
 248 174 248 174 242 168 c 2,65,-1
 211 133 l 1,66,-1
 190 110 l 2,67,68
 174 92 174 92 156 79 c 128,-1,69
 138 66 138 66 123 61 c 2,70,-1
 116 60 l 2,71,72
 105 60 105 60 99.5 71 c 128,-1,73
 94 82 94 82 94 97 c 0,74,75
 94 111 94 111 96 120 c 0,76,77
 98 136 98 136 102 150 c 128,-1,78
 106 164 106 164 116 192 c 2,79,-1
 120 207 l 1,80,-1
 130 232 l 1,81,-1
 134 244 l 2,82,83
 137 250 137 250 141 254 c 2,84,-1
 194 322 l 1,85,-1
 244 390 l 1,86,-1
 285 446 l 2,87,88
 306 476 306 476 322 503 c 2,89,-1
 330 516 l 2,90,91
 336 526 336 526 339.5 532.5 c 128,-1,92
 343 539 343 539 348 552 c 0,93,94
 354 564 354 564 354 581 c 0,95,96
 354 608 354 608 334 618 c 0,97,0
 324 622 324 622 319 622 c 0,1,2
298 507 m 0,98,99
 286 486 286 486 260 450 c 2,100,-1
 167 324 l 1,101,-1
 198 402 l 2,102,103
 208 428 208 428 217 446 c 2,104,-1
 238 490 l 2,105,106
 251 520 251 520 270 550 c 0,107,108
 282 568 282 568 291 580 c 128,-1,109
 300 592 300 592 313 597 c 2,110,-1
 320 598 l 2,111,112
 324 598 324 598 326 595 c 0,113,114
 332 589 332 589 332 581 c 2,115,-1
 330 574 l 2,116,117
 328 564 328 564 324 552 c 0,118,119
 310 527 310 527 298 507 c 0,98,99
EndSplineSet
EndChar

StartChar: m
Encoding: 109 109 79
Width: 604
Flags: W
LayerCount: 2
Fore
SplineSet
668 189 m 0,1,2
 664 189 664 189 662 187 c 128,-1,3
 660 185 660 185 653 177 c 2,4,-1
 632 150 l 2,5,6
 624 140 624 140 605 121 c 2,7,-1
 578 92 l 1,8,-1
 554 72 l 2,9,10
 541 62 541 62 526 58 c 1,11,-1
 520 58 l 1,12,-1
 515 58 l 2,13,14
 511 58 511 58 509.5 63.5 c 128,-1,15
 508 69 508 69 508 74 c 0,16,17
 508 78 508 78 510 82 c 2,18,-1
 514 98 l 2,19,20
 520 120 520 120 530 141 c 2,21,-1
 548 184 l 1,22,-1
 566 227 l 2,23,24
 576 252 576 252 576 274 c 0,25,26
 576 282 576 282 573 290 c 128,-1,27
 570 298 570 298 564 303 c 0,28,29
 554 312 554 312 535 312 c 2,30,-1
 528 312 l 2,31,32
 510 310 510 310 493 300 c 128,-1,33
 476 290 476 290 456 274 c 0,34,35
 416 242 416 242 376 186 c 1,36,37
 382 214 382 214 384 230 c 0,38,39
 385 238 385 238 385 248 c 0,40,41
 385 264 385 264 383 274 c 0,42,43
 380 292 380 292 368 304 c 128,-1,44
 356 316 356 316 338 314 c 128,-1,45
 320 312 320 312 306 304 c 0,46,47
 270 279 270 279 248 251 c 2,48,-1
 221 215 l 1,49,50
 229 240 229 240 229 260 c 0,51,52
 229 271 229 271 226 281 c 256,53,54
 223 291 223 291 213.5 299.5 c 128,-1,55
 204 308 204 308 194 308 c 2,56,-1
 187 308 l 1,57,58
 172 303 172 303 160 294 c 0,59,60
 142 283 142 283 127 267 c 2,61,-1
 98 234 l 1,62,-1
 64 194 l 1,63,-1
 54 184 l 2,64,65
 50 180 50 180 50 175 c 0,66,67
 50 172 50 172 51 171 c 0,68,69
 53 163 53 163 62 163 c 0,70,71
 66 164 66 164 69 166 c 2,72,-1
 74 171 l 1,73,-1
 122 228 l 1,74,-1
 138 244 l 2,75,76
 144 251 144 251 154 260 c 2,77,-1
 168 272 l 2,78,79
 185 284 185 284 193 284 c 0,80,81
 198 284 198 284 200 282 c 0,82,83
 206 276 206 276 206 264 c 0,84,85
 206 259 206 259 206 257 c 0,86,87
 202 228 202 228 190 196 c 2,88,-1
 177 164 l 1,89,-1
 158 122 l 1,90,-1
 137 79 l 1,91,-1
 124 51 l 2,92,93
 122 48 122 48 122 44 c 256,94,95
 122 40 122 40 125.5 36 c 128,-1,96
 129 32 129 32 133 32 c 256,97,98
 137 32 137 32 142 37 c 128,-1,99
 147 42 147 42 149 48 c 2,100,-1
 154 60 l 1,101,-1
 168 86 l 1,102,-1
 202 144 l 2,103,104
 232 190 232 190 248 212 c 0,105,106
 262 234 262 234 284 256 c 0,107,108
 295 268 295 268 303 274 c 128,-1,109
 311 280 311 280 323 285.5 c 128,-1,110
 335 291 335 291 342 291 c 0,111,112
 354 292 354 292 357 282 c 0,113,114
 360 274 360 274 361 266 c 128,-1,115
 362 258 362 258 362 248 c 0,116,117
 362 234 362 234 358 216 c 128,-1,118
 354 198 354 198 348 172 c 0,119,120
 344 154 344 154 339 140.5 c 128,-1,121
 334 127 334 127 334 125 c 0,122,123
 332 120 332 120 328 114 c 2,124,-1
 322 102 l 1,125,-1
 310 81 l 2,126,127
 302 67 302 67 298 52 c 0,128,129
 296 48 296 48 296 42 c 0,130,131
 296 38 296 38 300 34 c 256,132,133
 304 30 304 30 308 30 c 128,-1,134
 312 30 312 30 317 34 c 128,-1,135
 322 38 322 38 326 44 c 2,136,-1
 332 56 l 2,137,138
 335 62 335 62 340 76 c 0,139,140
 346 90 346 90 349 98 c 2,141,-1
 353 109 l 1,142,-1
 358 120 l 1,143,-1
 370 137 l 1,144,-1
 382 156 l 2,145,146
 384 160 384 160 395 173 c 2,147,-1
 422 208 l 2,148,149
 436 226 436 226 452 240 c 0,150,151
 466 254 466 254 479 264 c 128,-1,152
 492 274 492 274 510 282 c 0,153,154
 514 284 514 284 521 286.5 c 128,-1,155
 528 289 528 289 535 289 c 0,156,157
 541 288 541 288 547 286 c 0,158,159
 554 282 554 282 554 270 c 0,160,161
 554 264 554 264 552 260 c 2,162,-1
 548 244 l 2,163,164
 544 231 544 231 540 224 c 2,165,-1
 532 204 l 1,166,-1
 513 158 l 2,167,168
 492 110 492 110 486 78 c 0,169,170
 484 73 484 73 484 68 c 0,171,172
 484 55 484 55 494 45 c 0,173,174
 500 39 500 39 505 36.5 c 128,-1,175
 510 34 510 34 518 34 c 2,176,-1
 524 35 l 2,177,178
 538 35 538 35 556 46 c 0,179,180
 578 58 578 58 596 76 c 128,-1,181
 614 94 614 94 625 106.5 c 128,-1,182
 636 119 636 119 650 136 c 2,183,-1
 668 158 l 2,184,185
 672 162 672 162 678 172 c 0,186,187
 680 174 680 174 680 177 c 0,188,189
 680 182 680 182 674 186 c 0,190,0
 670 188 670 188 668 189 c 0,1,2
EndSplineSet
EndChar

StartChar: n
Encoding: 110 110 80
Width: 434
Flags: W
LayerCount: 2
Fore
SplineSet
438 119 m 0,1,2
 406 84 406 84 382 68 c 0,3,4
 380 66 380 66 372 63 c 128,-1,5
 364 60 364 60 357 59 c 2,6,-1
 350 58 l 1,7,-1
 344 58 l 2,8,9
 338 60 338 60 338 72 c 0,10,11
 338 78 338 78 340 84 c 2,12,-1
 344 98 l 2,13,14
 346 106 346 106 351 120 c 2,15,-1
 359 140 l 1,16,-1
 380 186 l 2,17,18
 390 210 390 210 398 234 c 2,19,-1
 403 250 l 2,20,21
 406 262 406 262 406 274 c 0,22,23
 406 280 406 280 404 288 c 0,24,25
 399 298 399 298 389.5 305 c 128,-1,26
 380 312 380 312 366 312 c 2,27,-1
 356 312 l 1,28,29
 334 308 334 308 322 299 c 0,30,31
 288 280 288 280 250 240 c 0,32,33
 236 224 236 224 214 194 c 1,34,35
 220 208 220 208 222 218 c 0,36,37
 225 227 225 227 227.5 239.5 c 128,-1,38
 230 252 230 252 230 262 c 0,39,40
 230 294 230 294 210 303 c 0,41,42
 202 306 202 306 195 306 c 0,43,44
 191 306 191 306 182 304 c 0,45,46
 166 298 166 298 156 291 c 0,47,48
 138 278 138 278 110 250 c 2,49,-1
 88 226 l 1,50,-1
 57 186 l 2,51,52
 57 184 57 184 55 183 c 2,53,-1
 53 179 l 2,54,55
 51 177 51 177 51 174 c 2,56,57
 51 174 51 174 52 170 c 0,58,59
 54 166 54 166 59 164 c 2,60,-1
 63 163 l 2,61,62
 65 162 65 162 68 164 c 0,63,64
 72 166 72 166 74 171 c 2,65,-1
 90 192 l 1,66,-1
 120 226 l 2,67,68
 149 260 149 260 180 280 c 1,69,-1
 190 283 l 2,70,71
 191 284 191 284 195 284 c 0,72,73
 196 284 196 284 200 282 c 0,74,75
 204 279 204 279 206 274 c 0,76,77
 206 272 206 272 207 268 c 0,78,79
 206 264 206 264 206 263 c 0,80,81
 206 240 206 240 194 204 c 2,82,-1
 181 173 l 2,83,84
 169 146 169 146 157 120 c 2,85,-1
 131 68 l 1,86,-1
 122 49 l 2,87,88
 120 46 120 46 121 43 c 0,89,90
 121 37 121 37 128 35 c 2,91,-1
 133 34 l 2,92,93
 134 34 134 34 138 35 c 0,94,95
 143 37 143 37 145 41 c 0,96,97
 151 48 151 48 156 58 c 0,98,99
 164 72 164 72 166 76 c 0,100,101
 194 126 194 126 236 186 c 0,102,103
 262 220 262 220 283 242 c 256,104,105
 304 264 304 264 330 278 c 0,106,107
 344 286 344 286 354 286 c 1,108,109
 362 290 362 290 368 290 c 128,-1,110
 374 290 374 290 379 285 c 128,-1,111
 384 280 384 280 384 275 c 2,112,-1
 384 274 l 1,113,-1
 382 262 l 2,114,115
 378 244 378 244 370 226 c 0,116,117
 356 190 356 190 353 181 c 2,118,-1
 334 136 l 2,119,120
 324 115 324 115 318 92 c 0,121,122
 314 78 314 78 314 69 c 0,123,124
 314 64 314 64 316 58 c 0,125,126
 322 38 322 38 339 36 c 2,127,-1
 351 36 l 2,128,129
 362 36 362 36 372 39 c 0,130,131
 392 46 392 46 410 60 c 0,132,133
 439 84 439 84 467 118 c 2,134,-1
 490 148 l 1,135,-1
 498 156 l 2,136,137
 502 162 502 162 504 166 c 2,138,-1
 508 172 l 2,139,140
 510 174 510 174 510 176 c 2,141,-1
 509 179 l 2,142,143
 507 188 507 188 498 188 c 0,144,145
 492 188 492 188 488 184 c 2,146,-1
 464 151 l 2,147,0
 450 133 450 133 438 119 c 0,1,2
EndSplineSet
EndChar

StartChar: o
Encoding: 111 111 81
Width: 295
Flags: W
LayerCount: 2
Fore
SplineSet
356 186 m 2,1,2
 356 186 356 186 353 185 c 0,3,4
 348 183 348 183 344 177 c 2,5,-1
 323 154 l 2,6,7
 290 118 290 118 258 112 c 1,8,-1
 248 112 l 2,9,10
 239 112 239 112 226 116 c 1,11,12
 242 138 242 138 254 158 c 0,13,14
 268 184 268 184 276 207 c 128,-1,15
 284 230 284 230 284 255 c 0,16,17
 284 281 284 281 273 299.5 c 128,-1,18
 262 318 262 318 241 318 c 0,19,20
 226 318 226 318 212 309 c 0,21,22
 186 291 186 291 174 246 c 0,23,24
 164 215 164 215 164 183 c 0,25,26
 164 158 164 158 170 140 c 128,-1,27
 176 122 176 122 190 110 c 1,28,29
 144 60 144 60 102 59 c 0,30,31
 85 59 85 59 74 74 c 128,-1,32
 63 89 63 89 63 113 c 0,33,34
 63 128 63 128 66.5 142 c 128,-1,35
 70 156 70 156 76 172 c 128,-1,36
 82 188 82 188 94 208 c 0,37,38
 114 244 114 244 147 272 c 0,39,40
 156 280 156 280 164 286 c 2,41,-1
 172 292 l 2,42,43
 176 296 176 296 176 302 c 0,44,45
 176 312 176 312 166 314 c 0,46,47
 162 314 162 314 156 310 c 0,48,49
 153 308 153 308 147 303 c 0,50,51
 122 284 122 284 114 274 c 0,52,53
 86 246 86 246 68 211 c 0,54,55
 48 176 48 176 42 140 c 0,56,57
 40 130 40 130 40 112 c 0,58,59
 40 86 40 86 50 68 c 0,60,61
 68 36 68 36 105 36 c 0,62,63
 114 36 114 36 122 38 c 0,64,65
 145 44 145 44 164 56 c 0,66,67
 184 68 184 68 202 88 c 2,68,-1
 210 98 l 1,69,70
 218 94 218 94 229 90 c 2,71,-1
 238 89 l 2,72,73
 242 88 242 88 248 88 c 128,-1,74
 254 88 254 88 257 88 c 2,75,-1
 274 92 l 2,76,77
 302 102 302 102 326 125 c 2,78,-1
 354 152 l 2,79,80
 360 158 360 158 366 166 c 0,81,82
 368 170 368 170 368 172 c 0,83,84
 368 176 368 176 363 182 c 0,85,0
 359 186 359 186 356 186 c 2,1,2
188 165 m 2,87,-1
 186 186 l 2,88,89
 186 198 186 198 188 208 c 0,90,91
 191 231 191 231 199.5 251.5 c 128,-1,92
 208 272 208 272 220 286 c 0,93,94
 225 290 225 290 233 294 c 0,95,96
 236 296 236 296 240 296 c 128,-1,97
 244 296 244 296 248 295 c 0,98,99
 256 289 256 289 258 281 c 0,100,101
 262 267 262 267 261 253 c 0,102,103
 260 232 260 232 254 214 c 0,104,105
 246 190 246 190 234 170 c 128,-1,106
 222 150 222 150 206 127 c 1,107,86
 190 143 190 143 188 165 c 2,87,-1
EndSplineSet
EndChar

StartChar: p
Encoding: 112 112 82
Width: 344
Flags: W
LayerCount: 2
Fore
SplineSet
216 51 m 1,1,2
 250 75 250 75 275 109.5 c 128,-1,3
 300 144 300 144 316 184 c 0,4,5
 334 224 334 224 334 266 c 0,6,7
 334 279 334 279 332 288 c 0,8,9
 329 302 329 302 319 309.5 c 128,-1,10
 309 317 309 317 296 317 c 0,11,12
 290 317 290 317 280 314 c 0,13,14
 270 310 270 310 262 306 c 2,15,-1
 245 297 l 2,16,17
 217 279 217 279 193.5 255.5 c 128,-1,18
 170 232 170 232 144 202 c 1,19,-1
 162 241 l 2,20,21
 170 260 170 260 172 266 c 2,22,-1
 178 280 l 1,23,-1
 180 286 l 2,24,25
 180 290 180 290 182 294 c 0,26,27
 184 296 184 296 184 299 c 0,28,29
 184 303 184 303 180 306.5 c 128,-1,30
 176 310 176 310 171 310 c 0,31,32
 167 310 167 310 163 306 c 2,33,-1
 138 278 l 1,34,-1
 113 249 l 1,35,-1
 58 186 l 2,36,37
 54 181 54 181 53 176 c 0,38,39
 53 172 53 172 56.5 168 c 128,-1,40
 60 164 60 164 64 164 c 0,41,42
 66 164 66 164 68 165 c 0,43,44
 74 167 74 167 77 172 c 2,45,-1
 106 206 l 1,46,-1
 134 238 l 1,47,-1
 14 -47 l 1,48,-1
 -44 -182 l 1,49,-1
 -50 -196 l 2,50,51
 -52 -198 -52 -198 -53.5 -202.5 c 128,-1,52
 -55 -207 -55 -207 -55 -210 c 0,53,54
 -56 -220 -56 -220 -44 -222 c 0,55,56
 -39 -222 -39 -222 -36.5 -219 c 128,-1,57
 -34 -216 -34 -216 -32 -210 c 2,58,-1
 -16 -174 l 1,59,-1
 0 -137 l 1,60,-1
 40 -46 l 1,61,-1
 88 68 l 1,62,-1
 94 80 l 2,63,64
 95 84 95 84 96 86 c 2,65,-1
 100 91 l 1,66,67
 112 113 112 113 122 131 c 0,68,69
 138 155 138 155 149 170 c 128,-1,70
 160 185 160 185 176 204 c 2,71,-1
 202 232 l 2,72,73
 218 248 218 248 228 256 c 0,74,75
 238 266 238 266 254 276 c 0,76,77
 264 284 264 284 273.5 287.5 c 128,-1,78
 283 291 283 291 295 294 c 0,79,80
 303 296 303 296 307.5 288 c 128,-1,81
 312 280 312 280 312 270 c 2,82,-1
 310 250 l 2,83,84
 308 236 308 236 304 223 c 0,85,86
 296 191 296 191 279 159.5 c 128,-1,87
 262 128 262 128 240 104 c 0,88,89
 226 90 226 90 214 80 c 0,90,91
 200 69 200 69 183.5 60.5 c 128,-1,92
 167 52 167 52 152 49 c 2,93,-1
 144 48 l 2,94,95
 142 48 142 48 136 47 c 0,96,97
 126 47 126 47 115 50 c 0,98,99
 114 50 114 50 110 50 c 0,100,101
 102 50 102 50 100 42 c 0,102,103
 100 40 100 40 100 38 c 0,104,105
 100 30 100 30 109 28 c 2,106,-1
 125 24 l 2,107,108
 144 22 144 22 160 22 c 0,109,110
 172 22 172 22 182 22 c 0,111,112
 224 26 224 26 262 44 c 0,113,114
 332 76 332 76 386 133 c 0,115,116
 390 139 390 139 393 142 c 2,117,-1
 400 150 l 1,118,-1
 409 159 l 2,119,120
 414 164 414 164 416 168 c 0,121,122
 418 170 418 170 418 174 c 128,-1,123
 418 178 418 178 414 181.5 c 128,-1,124
 410 185 410 185 406 185 c 128,-1,125
 402 185 402 185 398 181 c 0,126,0
 310 75 310 75 216 51 c 1,1,2
EndSplineSet
EndChar

StartChar: q
Encoding: 113 113 83
Width: 301
Flags: W
LayerCount: 2
Fore
SplineSet
250 76 m 0,1,2
 236 64 236 64 225 58 c 128,-1,3
 214 52 214 52 198 45 c 1,4,-1
 233 126 l 1,5,-1
 270 208 l 1,6,-1
 301 280 l 2,7,8
 303 284 303 284 305.5 291 c 128,-1,9
 308 298 308 298 309 301 c 2,10,-1
 310 305 l 1,11,-1
 308 310 l 2,12,13
 306 314 306 314 300 316 c 0,14,15
 286 320 286 320 270 320 c 0,16,17
 250 320 250 320 228 316 c 0,18,19
 188 308 188 308 154 284 c 0,20,21
 102 248 102 248 62 194 c 0,22,23
 36 154 36 154 27 115 c 0,24,25
 25 108 25 108 25 96 c 0,26,27
 24 88 24 88 26 78 c 0,28,29
 29 61 29 61 41 48 c 0,30,31
 52 36 52 36 70 32 c 0,32,33
 76 30 76 30 84 30 c 0,34,35
 100 30 100 30 118 38 c 256,36,37
 136 46 136 46 152 58 c 0,38,39
 164 66 164 66 176 79 c 0,40,41
 190 92 190 92 198 104 c 2,42,-1
 172 43 l 1,43,-1
 144 -18 l 1,44,-1
 110 -91 l 2,45,46
 94 -126 94 -126 84 -167 c 0,47,48
 78 -190 78 -190 78 -212 c 0,49,50
 78 -226 78 -226 85 -236 c 128,-1,51
 92 -246 92 -246 102 -251 c 128,-1,52
 112 -256 112 -256 120 -256 c 0,53,54
 136 -256 136 -256 150 -248 c 0,55,56
 176 -230 176 -230 194 -186 c 0,57,58
 206 -158 206 -158 216 -104 c 0,59,60
 224 -62 224 -62 224 -18 c 0,61,62
 224 10 224 10 219 28 c 0,63,64
 219 30 219 30 221 32 c 2,65,-1
 226 34 l 1,66,-1
 236 39 l 2,67,68
 246 43 246 43 253 50 c 0,69,70
 283 72 283 72 309 100 c 2,71,-1
 360 156 l 2,72,73
 364 158 364 158 366 162 c 2,74,-1
 372 169 l 2,75,76
 376 172 376 172 376 176 c 2,77,-1
 376 178 l 2,78,79
 376 182 376 182 372 185.5 c 128,-1,80
 368 189 368 189 364 189 c 0,81,82
 360 190 360 190 356 186 c 2,83,-1
 298 122 l 1,84,-1
 275 98 l 2,85,0
 263 86 263 86 250 76 c 0,1,2
84 54 m 2,86,-1
 80 53 l 2,87,88
 74 53 74 53 66 56.5 c 128,-1,89
 58 60 58 60 56 66 c 0,90,91
 53 70 53 70 50.5 80 c 128,-1,92
 48 90 48 90 48 95 c 0,93,94
 48 102 48 102 50 112 c 0,95,96
 54 128 54 128 60 144 c 0,97,98
 80 186 80 186 120 226 c 0,99,100
 154 260 154 260 190 278 c 0,101,102
 226 298 226 298 264 297 c 0,103,104
 274 297 274 297 282 296 c 1,105,106
 253 230 253 230 223 180 c 0,107,108
 201 144 201 144 178 116 c 0,109,110
 156 86 156 86 127 68 c 0,111,112
 106 58 106 58 102 56 c 0,113,114
 94 54 94 54 84 54 c 2,86,-1
152 -215 m 0,115,116
 146 -223 146 -223 137.5 -228.5 c 128,-1,117
 129 -234 129 -234 122 -234 c 0,118,119
 114 -234 114 -234 107 -226.5 c 128,-1,120
 100 -219 100 -219 100 -208 c 0,121,122
 100 -192 100 -192 108 -164 c 2,123,-1
 116 -142 l 2,124,125
 127 -112 127 -112 141 -80 c 2,126,-1
 168 -22 l 1,127,-1
 180 6 l 1,128,-1
 192 33 l 1,129,130
 202 17 202 17 202 -15 c 0,131,132
 202 -49 202 -49 196 -87 c 0,133,134
 196 -91 196 -91 193.5 -104.5 c 128,-1,135
 191 -118 191 -118 188.5 -129 c 128,-1,136
 186 -140 186 -140 182 -150 c 0,137,138
 174 -182 174 -182 162 -202 c 0,139,140
 158 -210 158 -210 152 -215 c 0,115,116
EndSplineSet
EndChar

StartChar: r
Encoding: 114 114 84
Width: 264
Flags: W
LayerCount: 2
Fore
SplineSet
217 74 m 0,0,1
 206 62 206 62 192 54 c 2,2,-1
 182 49 l 2,3,4
 178 47 178 47 175 47 c 2,5,-1
 171 48 l 2,6,7
 166 50 166 50 164 54 c 0,8,9
 162 56 162 56 162 64 c 128,-1,10
 162 72 162 72 162 75 c 0,11,12
 167 97 167 97 179 116 c 2,13,-1
 202 154 l 1,14,-1
 216 176 l 2,15,16
 226 194 226 194 229 200 c 0,17,18
 242 220 242 220 246 240 c 0,19,20
 246 242 246 242 246 247 c 256,21,22
 246 252 246 252 244 260 c 0,23,24
 240 268 240 268 230 272 c 256,25,26
 220 276 220 276 210 276 c 2,27,-1
 200 276 l 1,28,-1
 190 276 l 2,29,30
 186 276 186 276 184 278 c 0,31,32
 183 280 183 280 184 284 c 0,33,34
 184 288 184 288 188 295 c 2,35,-1
 192 305 l 2,36,37
 196 313 196 313 196 317 c 0,38,39
 196 323 196 323 189 327 c 0,40,41
 186 328 186 328 184 328 c 0,42,43
 180 328 180 328 176 324 c 2,44,-1
 160 306 l 1,45,-1
 128 266 l 1,46,-1
 98 232 l 1,47,-1
 68 200 l 1,48,-1
 60 192 l 2,49,50
 48 180 48 180 48 172 c 0,51,52
 48 168 48 168 52.5 165 c 128,-1,53
 57 162 57 162 60 162 c 2,54,-1
 64 163 l 2,55,56
 68 165 68 165 72 169 c 2,57,-1
 91 190 l 1,58,-1
 126 230 l 2,59,60
 142 246 142 246 162 272 c 1,61,62
 166 262 166 262 174 258 c 128,-1,63
 182 254 182 254 194 253 c 2,64,-1
 212 254 l 2,65,66
 222 254 222 254 223 249 c 0,67,68
 224 238 224 238 219 229 c 2,69,-1
 210 211 l 1,70,-1
 196 187 l 1,71,-1
 182 165 l 1,72,-1
 156 122 l 2,73,74
 143 98 143 98 139 75 c 2,75,-1
 138 67 l 2,76,77
 138 62 138 62 140 54 c 128,-1,78
 142 46 142 46 146 39 c 0,79,80
 152 31 152 31 159 27.5 c 128,-1,81
 166 24 166 24 177 24 c 0,82,83
 190 26 190 26 198 31 c 128,-1,84
 206 36 206 36 214 42.5 c 128,-1,85
 222 49 222 49 226 52 c 0,86,87
 256 76 256 76 288 116 c 2,88,-1
 324 156 l 1,89,-1
 334 169 l 2,90,91
 338 172 338 172 338 176 c 2,92,-1
 338 178 l 2,93,94
 338 182 338 182 334 185 c 256,95,96
 330 188 330 188 326 188 c 128,-1,97
 322 188 322 188 318 184 c 2,98,-1
 248 106 l 2,99,100
 228 84 228 84 217 74 c 0,0,1
EndSplineSet
EndChar

StartChar: s
Encoding: 115 115 85
Width: 248
Flags: W
LayerCount: 2
Fore
SplineSet
244 116 m 0,1,2
 197 74 197 74 157 60 c 1,3,4
 167 78 167 78 170.5 99 c 128,-1,5
 174 120 174 120 174 146 c 2,6,-1
 175 165 l 2,7,8
 176 182 176 182 174 198 c 256,9,10
 172 214 172 214 172 230 c 2,11,-1
 172 249 l 1,12,-1
 174 270 l 2,13,14
 176 279 176 279 180 290 c 0,15,16
 182 294 182 294 186 298 c 128,-1,17
 190 302 190 302 192 307 c 0,18,19
 193 309 193 309 193 312 c 0,20,21
 193 318 193 318 188.5 321 c 128,-1,22
 184 324 184 324 180 324 c 256,23,24
 176 324 176 324 172 320 c 2,25,-1
 114 252 l 1,26,-1
 68 198 l 1,27,-1
 61 191 l 2,28,29
 55 185 55 185 52 181 c 0,30,31
 50 176 50 176 50 172 c 128,-1,32
 50 168 50 168 54 165 c 128,-1,33
 58 162 58 162 61 162 c 2,34,-1
 62 162 l 2,35,36
 66 162 66 162 69 166 c 2,37,-1
 88 186 l 2,38,39
 124 226 124 226 150 257 c 1,40,-1
 149 232 l 1,41,-1
 150 206 l 2,42,43
 152 186 152 186 152 156 c 0,44,45
 152 134 152 134 150 117 c 128,-1,46
 148 100 148 100 143 84 c 0,47,48
 138 70 138 70 129 60.5 c 128,-1,49
 120 51 120 51 106 48 c 0,50,51
 104 48 104 48 99 48 c 2,52,-1
 96 48 l 1,53,-1
 86 49 l 1,54,-1
 76 51 l 2,55,56
 70 52 70 52 65 54 c 0,57,58
 47 60 47 60 27 74 c 0,59,60
 16 83 16 83 10 88 c 0,61,62
 4 94 4 94 2 97 c 0,63,64
 -1 100 -1 100 -7 100 c 2,65,-1
 -9 100 l 2,66,67
 -19 100 -19 100 -19 88 c 0,68,69
 -18 80 -18 80 -4 70 c 0,70,71
 12 56 12 56 30 45 c 0,72,73
 64 25 64 25 104 25 c 0,74,75
 133 25 133 25 167.5 38.5 c 128,-1,76
 202 52 202 52 234 77 c 0,77,78
 262 97 262 97 296 136 c 2,79,-1
 309 152 l 1,80,-1
 321 167 l 2,81,82
 324 171 324 171 324 174 c 0,83,84
 324 179 324 179 319 182.5 c 128,-1,85
 314 186 314 186 310 186 c 128,-1,86
 306 186 306 186 302 180 c 0,87,0
 278 148 278 148 244 116 c 0,1,2
EndSplineSet
EndChar

StartChar: t
Encoding: 116 116 86
Width: 222
Flags: W
LayerCount: 2
Fore
SplineSet
179 76 m 0,1,2
 172 70 172 70 163 66 c 128,-1,3
 154 62 154 62 146 61 c 0,4,5
 144 60 144 60 139 60 c 0,6,7
 131 60 131 60 125 63 c 0,8,9
 120 66 120 66 116 75 c 128,-1,10
 112 84 112 84 111 100 c 0,11,12
 111 109 111 109 112.5 119.5 c 128,-1,13
 114 130 114 130 114 133 c 0,14,15
 120 169 120 169 137 217 c 2,16,-1
 154 262 l 1,17,-1
 162 284 l 1,18,-1
 166 294 l 2,19,20
 168 302 168 302 170 303 c 2,21,-1
 266 303 l 2,22,23
 272 302 272 302 276 308 c 0,24,25
 278 310 278 310 278 314 c 128,-1,26
 278 318 278 318 278 320 c 0,27,28
 275 326 275 326 267 326 c 2,29,-1
 266 326 l 2,30,31
 262 326 262 326 250 326 c 2,32,-1
 179 326 l 1,33,-1
 195 365 l 1,34,-1
 211 404 l 1,35,-1
 226 442 l 2,36,37
 230 448 230 448 231 452 c 128,-1,38
 232 456 232 456 232 460 c 2,39,-1
 232 462 l 2,40,41
 232 472 232 472 222 472 c 0,42,43
 214 472 214 472 211 465 c 2,44,-1
 186 406 l 2,45,46
 178 387 178 387 163 357 c 2,47,-1
 158 347 l 1,48,-1
 148 326 l 1,49,-1
 94 326 l 2,50,51
 86 326 86 326 82 325 c 0,52,53
 80 324 80 324 78 320 c 0,54,55
 76 318 76 318 76 314 c 128,-1,56
 76 310 76 310 78 308 c 0,57,58
 82 302 82 302 89 303 c 2,59,-1
 135 303 l 1,60,61
 116 271 116 271 102 250 c 0,62,63
 88 228 88 228 60 190 c 0,64,65
 54 184 54 184 50 177 c 0,66,67
 48 174 48 174 48 172 c 0,68,69
 48 168 48 168 53 165 c 128,-1,70
 58 162 58 162 62 162 c 0,71,72
 65 162 65 162 67 164 c 0,73,74
 73 170 73 170 74.5 172 c 128,-1,75
 76 174 76 174 76 175 c 2,76,-1
 98 204 l 1,77,-1
 118 234 l 1,78,79
 112 216 112 216 104 188 c 0,80,81
 98 170 98 170 94 148 c 0,82,83
 90 124 90 124 89 112 c 0,84,85
 88 108 88 108 88 101 c 0,86,87
 88 74 88 74 100 56 c 0,88,89
 108 45 108 45 118.5 41.5 c 128,-1,90
 129 38 129 38 142 38 c 0,91,92
 154 38 154 38 164 42 c 0,93,94
 183 50 183 50 200.5 63 c 128,-1,95
 218 76 218 76 237 100 c 2,96,-1
 272 142 l 2,97,98
 277 146 277 146 281 152 c 0,99,100
 286 160 286 160 290 164 c 0,101,102
 296 168 296 168 296 174 c 0,103,104
 296 176 296 176 295 177 c 0,105,106
 292 186 292 186 284 186 c 0,107,108
 278 186 278 186 276 181 c 2,109,-1
 249 150 l 1,110,-1
 216 110 l 2,111,0
 200 90 200 90 179 76 c 0,1,2
EndSplineSet
EndChar

StartChar: u
Encoding: 117 117 87
Width: 356
Flags: W
LayerCount: 2
Fore
SplineSet
373.5 141.5 m 128,-1,1
 361 128 361 128 342 108 c 2,2,-1
 314 82 l 2,3,4
 298 68 298 68 282 60 c 2,5,-1
 272 56 l 1,6,-1
 264 54 l 1,7,8
 264 54 264 54 262 53 c 0,9,10
 258 53 258 53 256 55.5 c 128,-1,11
 254 58 254 58 254 62 c 128,-1,12
 254 66 254 66 255 70 c 0,13,14
 256 88 256 88 262 104 c 0,15,16
 268 122 268 122 276 141 c 128,-1,17
 284 160 284 160 296 190 c 2,18,-1
 318 244 l 1,19,-1
 328 268 l 2,20,21
 332 278 332 278 338 291 c 2,22,-1
 340 298 l 1,23,-1
 342 302 l 1,24,-1
 341 304 l 2,25,26
 340 314 340 314 330 314 c 0,27,28
 324 314 324 314 318 304 c 0,29,30
 300 274 300 274 285 252 c 2,31,-1
 251 198 l 1,32,-1
 209 142 l 2,33,34
 186 112 186 112 162 91 c 0,35,36
 151 80 151 80 141.5 73 c 128,-1,37
 132 66 132 66 120 60 c 0,38,39
 114 58 114 58 108 56 c 128,-1,40
 102 54 102 54 97 54 c 0,41,42
 87 54 87 54 84 64 c 0,43,44
 83 68 83 68 83 74 c 0,45,46
 83 82 83 82 85 89 c 2,47,-1
 90 108 l 2,48,49
 94 122 94 122 95 125 c 2,50,-1
 111 166 l 2,51,52
 123 194 123 194 129 207 c 2,53,-1
 164 291 l 2,54,55
 167 294 167 294 167 300 c 0,56,57
 167 304 167 304 163 307.5 c 128,-1,58
 159 311 159 311 155 311 c 0,59,60
 152 311 152 311 148 308 c 256,61,62
 144 305 144 305 144 302 c 0,63,64
 144 300 144 300 141 297 c 0,65,66
 130 282 130 282 111 256 c 2,67,-1
 79 214 l 1,68,-1
 58 188 l 2,69,70
 54 184 54 184 50 176 c 0,71,72
 48 174 48 174 48 172 c 0,73,74
 48 168 48 168 53 165 c 128,-1,75
 58 162 58 162 61 162 c 128,-1,76
 64 162 64 162 68 166 c 0,77,78
 70 170 70 170 80 178 c 2,79,-1
 104 210 l 1,80,-1
 86 166 l 2,81,82
 78 148 78 148 70 121 c 0,83,84
 66 109 66 109 63 94.5 c 128,-1,85
 60 80 60 80 60 73 c 0,86,87
 60 72 60 72 60 62 c 0,88,89
 63 47 63 47 73.5 39 c 128,-1,90
 84 31 84 31 97 31 c 0,91,92
 115 31 115 31 131 40 c 0,93,94
 147 48 147 48 167 64 c 0,95,96
 216 106 216 106 268 182 c 1,97,-1
 250 140 l 2,98,99
 242 120 242 120 237 98 c 128,-1,100
 232 76 232 76 232 64 c 0,101,102
 232 54 232 54 236 45 c 128,-1,103
 240 36 240 36 248 33 c 0,104,105
 256 31 256 31 261 31 c 2,106,-1
 264 31 l 2,107,108
 270 30 270 30 280 34 c 2,109,-1
 295 41 l 2,110,111
 311 49 311 49 323 59.5 c 128,-1,112
 335 70 335 70 349 84 c 2,113,-1
 377 112 l 1,114,-1
 404 142 l 2,115,116
 409 146 409 146 414 152 c 0,117,118
 418 158 418 158 424 164 c 0,119,120
 428 170 428 170 428 174 c 2,121,-1
 427 179 l 2,122,123
 424 186 424 186 416 186 c 0,124,125
 412 186 412 186 408 181 c 0,126,0
 386 155 386 155 373.5 141.5 c 128,-1,1
EndSplineSet
EndChar

StartChar: v
Encoding: 118 118 88
Width: 412
Flags: W
LayerCount: 2
Fore
SplineSet
444 164 m 128,-1,1
 432 154 432 154 425 148 c 0,2,3
 407 135 407 135 390 131 c 0,4,5
 388 130 388 130 384 130 c 0,6,7
 376 130 376 130 369 135 c 0,8,9
 358 142 358 142 358 158 c 0,10,11
 358 172 358 172 362 183 c 0,12,13
 378 225 378 225 395 254 c 2,14,-1
 408 276 l 2,15,16
 410 280 410 280 409 284 c 2,17,-1
 409 286 l 2,18,19
 409 290 409 290 405 292 c 128,-1,20
 401 294 401 294 397 294 c 0,21,22
 392 294 392 294 388 288 c 2,23,-1
 378 270 l 1,24,-1
 362 247 l 2,25,26
 352 233 352 233 342 220 c 2,27,-1
 320 194 l 2,28,29
 268 130 268 130 223 91 c 0,30,31
 220 88 220 88 204 75 c 0,32,33
 182 60 182 60 166 56 c 2,34,-1
 160 55 l 2,35,36
 155 55 155 55 152 59 c 0,37,38
 148 62 148 62 148 68 c 2,39,-1
 148 70 l 1,40,-1
 150 81 l 2,41,42
 152 100 152 100 160 116 c 2,43,-1
 196 198 l 1,44,-1
 206 221 l 2,45,46
 210 234 210 234 214 244 c 0,47,48
 216 250 216 250 218 259 c 128,-1,49
 220 268 220 268 220 273 c 2,50,-1
 220 280 l 2,51,52
 218 294 218 294 208 300 c 128,-1,53
 198 306 198 306 188 306 c 0,54,55
 181 306 181 306 177 304 c 0,56,57
 160 298 160 298 148 286 c 2,58,-1
 124 262 l 1,59,-1
 115 252 l 1,60,-1
 96 231 l 1,61,-1
 68 200 l 1,62,-1
 53 181 l 2,63,64
 50 177 50 177 50 174 c 0,65,66
 50 170 50 170 53.5 166 c 128,-1,67
 57 162 57 162 61 162 c 0,68,69
 64 162 64 162 68 165 c 128,-1,70
 72 168 72 168 76 172 c 2,71,-1
 82 180 l 2,72,73
 84 184 84 184 88 188 c 128,-1,74
 92 192 92 192 95 196 c 2,75,-1
 146 253 l 2,76,77
 160 266 160 266 172 274 c 0,78,79
 182 284 182 284 190 284 c 128,-1,80
 198 284 198 284 197 274 c 0,81,82
 197 270 197 270 194.5 259 c 128,-1,83
 192 248 192 248 189 240 c 2,84,-1
 184 228 l 2,85,86
 176 206 176 206 166 184 c 128,-1,87
 156 162 156 162 146 142 c 0,88,89
 126 98 126 98 126 72 c 0,90,91
 126 64 126 64 126 62 c 0,92,93
 128 48 128 48 138 41 c 128,-1,94
 148 34 148 34 159 34 c 0,95,96
 163 34 163 34 165 34 c 0,97,98
 175 35 175 35 185 39 c 0,99,100
 194 43 194 43 203 48 c 128,-1,101
 212 53 212 53 227 64 c 2,102,-1
 249 82 l 2,103,104
 291 120 291 120 338 178 c 1,105,106
 335 166 335 166 336 148 c 0,107,108
 337 132 337 132 350 119.5 c 128,-1,109
 363 107 363 107 384 107 c 0,110,111
 396 106 396 106 404 110 c 0,112,113
 420 116 420 116 432 124 c 128,-1,114
 444 132 444 132 460 148 c 2,115,-1
 473 158 l 1,116,-1
 478 164 l 1,117,-1
 483 170 l 2,118,119
 484 172 484 172 484 174 c 0,120,121
 484 180 484 180 478 184 c 0,122,123
 474 186 474 186 472 186 c 0,124,125
 468 186 468 186 464 182 c 0,126,0
 456 174 456 174 444 164 c 128,-1,1
EndSplineSet
EndChar

StartChar: w
Encoding: 119 119 89
Width: 496
Flags: W
LayerCount: 2
Fore
SplineSet
510 148 m 0,1,2
 500 142 500 142 492 138 c 128,-1,3
 484 134 484 134 475 131 c 0,4,5
 470 130 470 130 468 130 c 2,6,-1
 461 131 l 2,7,8
 453 134 453 134 447.5 140 c 128,-1,9
 442 146 442 146 442 154 c 0,10,11
 442 159 442 159 444 167 c 0,12,13
 446 178 446 178 451 190 c 2,14,-1
 460 213 l 1,15,-1
 482 258 l 2,16,17
 484 264 484 264 488 271 c 2,18,-1
 494 284 l 1,19,-1
 500 296 l 2,20,21
 500 298 500 298 500 300 c 0,22,23
 500 304 500 304 497 307.5 c 128,-1,24
 494 311 494 311 488 311 c 0,25,26
 484 311 484 311 481.5 308.5 c 128,-1,27
 479 306 479 306 476 299 c 2,28,-1
 470 288 l 1,29,-1
 466 276 l 1,30,-1
 443 234 l 1,31,-1
 433 210 l 2,32,33
 428 196 428 196 422 188 c 0,34,35
 408 162 408 162 397 148 c 0,36,37
 370 104 370 104 342 81 c 0,38,39
 327 66 327 66 308 60 c 0,40,41
 302 56 302 56 292 56 c 2,42,-1
 286 56 l 2,43,44
 278 56 278 56 273 58 c 128,-1,45
 268 60 268 60 266 64 c 0,46,47
 262 74 262 74 262 86 c 0,48,49
 262 94 262 94 263.5 103 c 128,-1,50
 265 112 265 112 270 130 c 0,51,52
 282 168 282 168 297 203 c 128,-1,53
 312 238 312 238 332 276 c 0,54,55
 334 280 334 280 341 291 c 2,56,-1
 344 300 l 2,57,58
 346 304 346 304 342 309 c 128,-1,59
 338 314 338 314 334 314 c 128,-1,60
 330 314 330 314 326 312 c 0,61,62
 322 305 322 305 320 300 c 2,63,-1
 290 252 l 1,64,-1
 250 192 l 2,65,66
 230 162 230 162 206 135 c 2,67,-1
 184 110 l 2,68,69
 172 98 172 98 162 87 c 2,70,-1
 141 72 l 2,71,72
 134 66 134 66 120 58 c 0,73,74
 115 56 115 56 109 56 c 2,75,-1
 104 55 l 1,76,-1
 98 56 l 2,77,78
 90 56 90 56 87 68 c 2,79,-1
 86 76 l 1,80,-1
 87 82 l 2,81,82
 87 88 87 88 90 96 c 2,83,-1
 95 115 l 1,84,-1
 101 133 l 2,85,86
 112 164 112 164 125 192 c 2,87,-1
 150 250 l 1,88,-1
 169 293 l 2,89,90
 170 298 170 298 170 300 c 0,91,92
 170 308 170 308 162 310 c 0,93,94
 160 310 160 310 158 311 c 0,95,96
 152 310 152 310 150 306 c 128,-1,97
 148 302 148 302 142 295 c 0,98,99
 116 255 116 255 80 213 c 2,100,-1
 55 184 l 2,101,102
 50 178 50 178 50 172 c 2,103,-1
 50 171 l 2,104,105
 50 164 50 164 60 162 c 0,106,107
 65 162 65 162 68 164 c 2,108,-1
 72 170 l 1,109,-1
 86 184 l 1,110,-1
 110 213 l 1,111,112
 92 174 92 174 74 125 c 0,113,114
 70 115 70 115 67 99.5 c 128,-1,115
 64 84 64 84 64 76 c 2,116,-1
 64 64 l 2,117,118
 66 48 66 48 76.5 40 c 128,-1,119
 87 32 87 32 102 32 c 0,120,121
 120 32 120 32 134 40 c 256,122,123
 148 48 148 48 169 64 c 0,124,125
 193 83 193 83 213.5 106.5 c 128,-1,126
 234 130 234 130 256 160 c 1,127,128
 246 134 246 134 242 114 c 0,129,130
 238 100 238 100 238 88 c 0,131,132
 238 73 238 73 243 58.5 c 128,-1,133
 248 44 248 44 262 38 c 0,134,135
 270 32 270 32 284 32 c 0,136,137
 291 32 291 32 299 34 c 0,138,139
 317 37 317 37 332 46 c 0,140,141
 348 54 348 54 364 70 c 0,142,143
 382 88 382 88 395 104 c 128,-1,144
 408 120 408 120 422 144 c 1,145,146
 428 114 428 114 458 108 c 0,147,148
 464 106 464 106 470 107 c 0,149,150
 478 107 478 107 484 109 c 0,151,152
 498 113 498 113 508 120 c 0,153,154
 522 127 522 127 532 136 c 2,155,-1
 554 154 l 1,156,-1
 564 164 l 2,157,158
 568 168 568 168 568 174 c 2,159,-1
 568 175 l 2,160,161
 568 186 568 186 557 186 c 0,162,163
 554 186 554 186 550 182 c 2,164,-1
 530 165 l 2,165,0
 518 154 518 154 510 148 c 0,1,2
EndSplineSet
EndChar

StartChar: x
Encoding: 120 120 90
Width: 371
Flags: W
LayerCount: 2
Fore
SplineSet
362 106 m 0,1,2
 345 88 345 88 330 76 c 0,3,4
 314 66 314 66 296 60 c 0,5,6
 292 58 292 58 287 58 c 0,7,8
 277 58 277 58 269.5 66.5 c 128,-1,9
 262 75 262 75 262 84 c 0,10,11
 262 92 262 92 259 100 c 0,12,13
 257 108 257 108 257 122 c 2,14,-1
 256 146 l 1,15,-1
 256 168 l 2,16,17
 256 170 256 170 259 172 c 2,18,-1
 264 176 l 1,19,-1
 276 186 l 1,20,-1
 297 202 l 2,21,22
 298 203 298 203 318 218 c 2,23,-1
 360 250 l 1,24,-1
 400 282 l 1,25,-1
 410 288 l 2,26,27
 420 294 420 294 420 303 c 2,28,-1
 420 306 l 2,29,30
 420 310 420 310 416 312 c 128,-1,31
 412 314 412 314 409 314 c 0,32,33
 408 314 408 314 404 312 c 0,34,35
 400 309 400 309 393 305 c 2,36,-1
 334 260 l 1,37,-1
 256 198 l 1,38,39
 256 244 256 244 246 274 c 0,40,41
 240 292 240 292 228 301 c 128,-1,42
 216 310 216 310 204 310 c 0,43,44
 198 310 198 310 187 308 c 0,45,46
 154 300 154 300 116 255 c 2,47,-1
 82 215 l 1,48,-1
 66 198 l 2,49,50
 54 184 54 184 52 180 c 0,51,52
 50 178 50 178 50 174 c 2,53,-1
 50 172 l 2,54,55
 50 168 50 168 54 165 c 128,-1,56
 58 162 58 162 61 162 c 2,57,-1
 64 163 l 2,58,59
 68 165 68 165 72 169 c 0,60,61
 84 181 84 181 90 188 c 2,62,-1
 106 207 l 1,63,-1
 136 244 l 2,64,65
 152 262 152 262 173 276 c 0,66,67
 188 286 188 286 200 286 c 2,68,-1
 204 286 l 2,69,70
 212 284 212 284 216 280 c 0,71,72
 226 268 226 268 228 250 c 2,73,-1
 232 230 l 1,74,-1
 234 182 l 2,75,76
 234 179 234 179 230 177 c 128,-1,77
 226 175 226 175 224 173 c 2,78,-1
 214 165 l 1,79,-1
 150 112 l 1,80,-1
 122 88 l 2,81,82
 110 78 110 78 93 62 c 2,83,-1
 85 52 l 2,84,85
 82 48 82 48 82 44 c 2,86,-1
 82 42 l 2,87,88
 82 38 82 38 86 35 c 0,89,90
 88 32 88 32 92 32 c 2,91,-1
 95 32 l 2,92,93
 100 34 100 34 106 40 c 0,94,95
 114 51 114 51 124 60 c 2,96,-1
 146 79 l 1,97,-1
 189 115 l 1,98,-1
 234 150 l 1,99,100
 234 122 234 122 234 114 c 0,101,102
 235 92 235 92 240.5 75 c 128,-1,103
 246 58 246 58 257 46 c 0,104,105
 268 36 268 36 288 36 c 0,106,107
 324 36 324 36 364 75 c 0,108,109
 382 90 382 90 396 108 c 2,110,-1
 426 144 l 1,111,-1
 443 165 l 2,112,113
 448 168 448 168 448 174 c 2,114,-1
 446 179 l 2,115,116
 442 186 442 186 436 186 c 128,-1,117
 430 186 430 186 427 181 c 2,118,-1
 395 144 l 2,119,0
 380 126 380 126 362 106 c 0,1,2
EndSplineSet
EndChar

StartChar: y
Encoding: 121 121 91
Width: 390
Flags: W
LayerCount: 2
Fore
SplineSet
387 118 m 0,0,1
 360 92 360 92 328 62 c 1,2,-1
 416 278 l 1,3,4
 416 278 416 278 416 282 c 256,5,6
 416 286 416 286 414 290.5 c 128,-1,7
 412 295 412 295 407 295 c 2,8,-1
 406 295 l 2,9,10
 402 295 402 295 399 292.5 c 128,-1,11
 396 290 396 290 393 284 c 2,12,-1
 388 277 l 1,13,-1
 383 270 l 1,14,-1
 360 236 l 1,15,-1
 338 204 l 1,16,-1
 290 143 l 2,17,18
 264 112 264 112 238 88 c 0,19,20
 228 80 228 80 216 72 c 128,-1,21
 204 64 204 64 194 62 c 2,22,-1
 184 60 l 1,23,-1
 183 60 l 2,24,25
 179 60 179 60 175 64 c 0,26,27
 172 70 172 70 172 74 c 2,28,-1
 172 76 l 1,29,-1
 174 90 l 2,30,31
 180 112 180 112 188 134 c 2,32,-1
 204 178 l 2,33,34
 216 208 216 208 221 226 c 128,-1,35
 226 244 226 244 226 260 c 0,36,37
 226 268 226 268 225 270 c 0,38,39
 225 290 225 290 211 302 c 0,40,41
 201 308 201 308 191 308 c 2,42,-1
 182 307 l 2,43,44
 166 304 166 304 154 293 c 0,45,46
 130 273 130 273 104 241 c 2,47,-1
 76 209 l 1,48,-1
 60 190 l 1,49,-1
 52 181 l 2,50,51
 50 178 50 178 50 174 c 0,52,53
 50 172 50 172 50 171 c 0,54,55
 52 163 52 163 60 163 c 128,-1,56
 68 163 68 163 72 168 c 2,57,-1
 87 186 l 1,58,-1
 128 234 l 2,59,60
 134 242 134 242 142 249 c 0,61,62
 150 257 150 257 156 264 c 2,63,-1
 168 274 l 2,64,65
 178 284 178 284 192 284 c 0,66,67
 198 284 198 284 200.5 279 c 128,-1,68
 203 274 203 274 203 267 c 2,69,-1
 203 264 l 2,70,71
 202 255 202 255 200 250 c 0,72,73
 196 226 196 226 188 204 c 2,74,-1
 172 161 l 1,75,-1
 156 112 l 1,76,-1
 152 92 l 2,77,78
 150 86 150 86 150 79 c 2,79,-1
 150 72 l 2,80,81
 150 66 150 66 153 56 c 0,82,83
 155 50 155 50 161.5 45 c 128,-1,84
 168 40 168 40 176 38 c 2,85,-1
 184 37 l 1,86,-1
 192 38 l 2,87,88
 210 41 210 41 225 50 c 0,89,90
 241 60 241 60 252 70 c 0,91,92
 302 114 302 114 355 188 c 1,93,-1
 324 112 l 1,94,-1
 292 35 l 1,95,-1
 290 28 l 2,96,97
 290 26 290 26 286 24 c 2,98,-1
 282 20 l 1,99,-1
 261 2 l 1,100,-1
 219 -32 l 2,101,102
 169 -70 169 -70 143 -98 c 0,103,104
 119 -124 119 -124 104.5 -149 c 128,-1,105
 90 -174 90 -174 89 -200 c 0,106,107
 89 -222 89 -222 102.5 -237 c 128,-1,108
 116 -252 116 -252 137 -250 c 0,109,110
 155 -250 155 -250 170.5 -240.5 c 128,-1,111
 186 -231 186 -231 198 -216 c 0,112,113
 210 -203 210 -203 222 -185 c 0,114,115
 240 -155 240 -155 260 -107 c 2,116,-1
 278 -62 l 1,117,-1
 286 -44 l 1,118,-1
 292 -26 l 1,119,-1
 297 -16 l 1,120,-1
 301 -5 l 1,121,-1
 305 6 l 2,122,123
 307 12 307 12 312 16 c 2,124,-1
 332 35 l 2,125,126
 356 56 356 56 376 74 c 2,127,-1
 416 116 l 1,128,-1
 454 158 l 1,129,-1
 462 169 l 2,130,131
 464 172 464 172 464 174 c 0,132,133
 464 178 464 178 461 182 c 128,-1,134
 458 186 458 186 452 186 c 0,135,136
 448 186 448 186 444 181 c 0,137,138
 414 146 414 146 387 118 c 0,0,1
200 -178 m 0,140,141
 190 -194 190 -194 176 -207 c 128,-1,142
 162 -220 162 -220 150 -223 c 0,143,144
 142 -228 142 -228 132 -228 c 128,-1,145
 122 -228 122 -228 117 -220 c 128,-1,146
 112 -212 112 -212 112 -202 c 2,147,-1
 112 -194 l 1,148,149
 116 -178 116 -178 120 -171 c 0,150,151
 128 -151 128 -151 142 -135 c 0,152,153
 154 -119 154 -119 175 -98 c 0,154,155
 196 -78 196 -78 220 -60 c 2,156,-1
 271 -18 l 1,157,-1
 264 -36 l 2,158,159
 262 -40 262 -40 257 -54 c 2,160,-1
 238 -100 l 2,161,139
 214 -152 214 -152 200 -178 c 0,140,141
EndSplineSet
EndChar

StartChar: z
Encoding: 122 122 92
Width: 312
Flags: W
LayerCount: 2
Fore
SplineSet
375 186 m 0,1,2
 373 186 373 186 371 184 c 0,3,4
 366 180 366 180 361 176 c 2,5,-1
 337 150 l 1,6,-1
 236 42 l 2,7,8
 236 44 236 44 236 50 c 0,9,10
 236 74 236 74 220 91 c 1,11,12
 266 129 266 129 289 165 c 0,13,14
 316 207 316 207 316 238 c 0,15,16
 316 266 316 266 300 284 c 0,17,18
 288 298 288 298 270 304 c 128,-1,19
 252 310 252 310 235 310 c 0,20,21
 209 310 209 310 177.5 296 c 128,-1,22
 146 282 146 282 122 256 c 2,23,-1
 71 202 l 1,24,-1
 54 184 l 2,25,26
 50 180 50 180 51 174 c 2,27,-1
 52 169 l 2,28,29
 54 162 54 162 61 162 c 0,30,31
 64 162 64 162 65 163 c 0,32,33
 70 164 70 164 74 168 c 2,34,-1
 80 177 l 1,35,-1
 94 192 l 1,36,-1
 122 224 l 2,37,38
 136 238 136 238 154 254 c 0,39,40
 194 286 194 286 234 286 c 0,41,42
 257 286 257 286 274 276 c 128,-1,43
 291 266 291 266 292 242 c 2,44,-1
 292 236 l 2,45,46
 292 218 292 218 281 196 c 128,-1,47
 270 174 270 174 256 158 c 128,-1,48
 242 142 242 142 220 121 c 2,49,-1
 210 112 l 1,50,-1
 200 104 l 1,51,52
 177 114 177 114 158 115 c 0,53,54
 120 115 120 115 92 87 c 0,55,56
 80 72 80 72 80 62 c 0,57,58
 80 58 80 58 80 56 c 0,59,60
 83 45 83 45 93.5 40.5 c 128,-1,61
 104 36 104 36 114 36 c 0,62,63
 126 36 126 36 143 43 c 128,-1,64
 160 50 160 50 178 62 c 2,65,-1
 200 76 l 1,66,-1
 202 78 l 1,67,-1
 204 75 l 1,68,-1
 207 70 l 2,69,70
 214 64 214 64 214 50 c 2,71,-1
 214 42 l 2,72,73
 212 30 212 30 208 22 c 0,74,75
 206 14 206 14 202 10 c 2,76,-1
 192 2 l 2,77,78
 182 -10 182 -10 170 -16 c 0,79,80
 160 -24 160 -24 148 -30 c 2,81,-1
 126 -46 l 1,82,-1
 86 -75 l 2,83,84
 66 -90 66 -90 50 -108 c 0,85,86
 4 -154 4 -154 -8 -188 c 0,87,88
 -12 -202 -12 -202 -12 -214 c 2,89,-1
 -11 -228 l 2,90,91
 -9 -246 -9 -246 5.5 -254 c 128,-1,92
 20 -262 20 -262 34 -262 c 0,93,94
 51 -262 51 -262 71 -253 c 0,95,96
 86 -244 86 -244 98 -232 c 0,97,98
 120 -212 120 -212 144 -172 c 0,99,100
 154 -153 154 -153 164 -134 c 128,-1,101
 174 -115 174 -115 188 -87 c 2,102,-1
 208 -40 l 2,103,104
 212 -34 212 -34 214 -28 c 2,105,-1
 218 -16 l 1,106,-1
 224 -6 l 2,107,108
 224 -4 224 -4 226 0 c 2,109,-1
 232 5 l 1,110,-1
 258 30 l 1,111,-1
 320 96 l 1,112,-1
 380 163 l 2,113,114
 386 171 386 171 386 175 c 0,115,116
 386 178 386 178 382 182 c 128,-1,0
 378 186 378 186 375 186 c 0,1,2
102 64 m 2,117,-1
 107 68 l 2,118,119
 118 80 118 80 128 84 c 0,120,121
 144 92 144 92 161 92 c 0,122,123
 172 92 172 92 180 90 c 1,124,125
 167 81 167 81 160.5 77.5 c 128,-1,126
 154 74 154 74 138 66 c 2,127,-1
 124 62 l 2,128,129
 118 60 118 60 112 60 c 2,130,-1
 108 60 l 2,131,132
 102 60 102 60 102 64 c 2,117,-1
12 -223 m 2,133,-1
 11 -212 l 2,134,135
 12 -206 12 -206 14 -196 c 0,136,137
 20 -174 20 -174 54 -135 c 0,138,139
 84 -103 84 -103 119 -80 c 0,140,141
 148 -60 148 -60 188 -30 c 1,142,-1
 153 -106 l 2,143,144
 139 -138 139 -138 112 -177 c 0,145,146
 100 -200 100 -200 80 -220 c 0,147,148
 68 -231 68 -231 56.5 -235.5 c 128,-1,149
 45 -240 45 -240 32 -240 c 0,150,151
 14 -238 14 -238 12 -223 c 2,133,-1
EndSplineSet
EndChar

StartChar: braceleft
Encoding: 123 123 93
Width: 345
Flags: W
LayerCount: 2
Fore
SplineSet
514 718 m 2,0,1
 514 713 514 713 506 710 c 0,2,3
 498 706 498 706 479 706 c 0,4,5
 428 706 428 706 400 700 c 0,6,7
 358 692 358 692 341 666 c 0,8,9
 329 650 329 650 315 619 c 2,10,-1
 286 556 l 1,11,-1
 256 484 l 1,12,-1
 227 414 l 2,13,14
 222 404 222 404 211 394 c 128,-1,15
 200 384 200 384 188 378 c 0,16,17
 162 364 162 364 123 358 c 1,18,19
 156 346 156 346 172 329 c 0,20,21
 188 313 188 313 188 305 c 0,22,23
 188 289 188 289 179 262 c 0,24,25
 170 234 170 234 156 204 c 2,26,-1
 128 145 l 2,27,28
 116 118 116 118 108 96 c 0,29,30
 90 49 90 49 71 13 c 0,31,32
 53 -25 53 -25 53 -51 c 0,33,34
 54 -69 54 -69 64 -77 c 128,-1,35
 74 -85 74 -85 106 -85 c 2,36,-1
 142 -85 l 2,37,38
 170 -85 170 -85 188 -83 c 0,39,40
 206 -82 206 -82 212 -85 c 0,41,42
 220 -88 220 -88 220 -93 c 0,43,44
 220 -102 220 -102 212 -107 c 128,-1,45
 204 -112 204 -112 188 -114 c 0,46,47
 173 -116 173 -116 159 -117 c 0,48,49
 144 -118 144 -118 116 -118 c 0,50,51
 68 -118 68 -118 51 -110 c 0,52,53
 26 -100 26 -100 26 -58 c 0,54,55
 26 -46 26 -46 31 -27 c 0,56,57
 34 -14 34 -14 42.5 12 c 128,-1,58
 51 38 51 38 58 58 c 2,59,-1
 74 104 l 2,60,61
 80 120 80 120 92 145 c 2,62,-1
 117 198 l 1,63,-1
 139 250 l 2,64,65
 148 272 148 272 150 286 c 2,66,-1
 151 292 l 2,67,68
 151 305 151 305 141 313 c 0,69,70
 130 322 130 322 112 328 c 2,71,-1
 101 330 l 1,72,-1
 88 334 l 2,73,74
 72 338 72 338 72 352 c 2,75,-1
 72 354 l 2,76,77
 74 367 74 367 86 375 c 0,78,79
 96 383 96 383 116 388 c 2,80,-1
 141 394 l 2,81,82
 152 398 152 398 166 404 c 0,83,84
 180 411 180 411 188 416 c 0,85,86
 196 420 196 420 198 427 c 0,87,88
 218 468 218 468 228 495 c 2,89,-1
 260 572 l 2,90,91
 276 610 276 610 293 642 c 0,92,93
 309 674 309 674 323.5 692 c 128,-1,94
 338 710 338 710 356 720 c 0,95,96
 390 738 390 738 439 738 c 2,97,-1
 481 736 l 2,98,99
 497 734 497 734 503.5 732 c 128,-1,100
 510 730 510 730 513 720 c 2,101,-1
 514 718 l 2,0,1
EndSplineSet
EndChar

StartChar: bar
Encoding: 124 124 94
Width: 329
Flags: W
LayerCount: 2
Fore
SplineSet
206 -214 m 0,0,1
 200 -220 200 -220 188 -223 c 0,2,3
 186 -223 186 -223 184 -215 c 0,4,5
 182 -204 182 -204 181 -192 c 2,6,-1
 179 -117 l 1,7,-1
 178 7 l 2,8,9
 178 38 178 38 177 154 c 2,10,-1
 177 410 l 2,11,12
 176 500 176 500 176 523 c 2,13,-1
 176 618 l 1,14,-1
 175 672 l 1,15,-1
 174 696 l 1,16,-1
 175 713 l 2,17,18
 176 725 176 725 188 725 c 0,19,20
 207 725 207 725 207 681 c 0,21,22
 208 647 208 647 208 631 c 0,23,24
 208 616 208 616 208 544 c 0,25,26
 208 459 208 459 208 431 c 256,27,28
 208 403 208 403 209 301 c 0,29,30
 210 238 210 238 210 218 c 256,31,32
 210 198 210 198 210 125 c 2,33,-1
 211 29 l 1,34,-1
 212 -62 l 2,35,36
 212 -122 212 -122 212 -137 c 256,37,38
 212 -152 212 -152 213 -190 c 0,39,40
 213 -206 213 -206 206 -214 c 0,0,1
EndSplineSet
EndChar

StartChar: braceright
Encoding: 125 125 95
Width: 333
Flags: W
LayerCount: 2
Fore
SplineSet
394 646 m 2,1,-1
 393 640 l 1,2,-1
 391 633 l 1,3,-1
 383 606 l 2,4,5
 374 574 374 574 368 561 c 2,6,-1
 351 515 l 1,7,-1
 332 474 l 1,8,-1
 308 420 l 1,9,-1
 286 368 l 2,10,11
 276 343 276 343 275 332 c 2,12,-1
 274 327 l 2,13,14
 274 314 274 314 284 306 c 128,-1,15
 294 298 294 298 313 291 c 0,16,17
 321 290 321 290 326 289 c 128,-1,18
 331 288 331 288 338 285 c 0,19,20
 344 283 344 283 348.5 278.5 c 128,-1,21
 353 274 353 274 353 266 c 2,22,-1
 353 264 l 2,23,24
 352 252 352 252 340 244 c 0,25,26
 330 236 330 236 308 230 c 0,27,28
 304 229 304 229 293 226.5 c 128,-1,29
 282 224 282 224 275 222 c 256,30,31
 268 220 268 220 260 216 c 0,32,33
 233 206 233 206 228 192 c 0,34,35
 212 158 212 158 198 124 c 2,36,-1
 166 47 l 2,37,38
 150 8 150 8 132 -24 c 0,39,40
 117 -56 117 -56 102.5 -74 c 128,-1,41
 88 -92 88 -92 70 -102 c 0,42,43
 52 -110 52 -110 30 -114.5 c 128,-1,44
 8 -119 8 -119 -14 -119 c 0,45,46
 -24 -119 -24 -119 -56 -118 c 0,47,48
 -66 -117 -66 -117 -78 -114 c 0,49,50
 -82 -113 -82 -113 -85 -109.5 c 128,-1,51
 -88 -106 -88 -106 -88 -102 c 0,52,53
 -88 -96 -88 -96 -80 -92 c 128,-1,54
 -72 -88 -72 -88 -54 -88 c 0,55,56
 -4 -88 -4 -88 25 -82 c 0,57,58
 66 -74 66 -74 84 -47 c 0,59,60
 95 -31 95 -31 107.5 -5.5 c 128,-1,61
 120 20 120 20 138 63 c 2,62,-1
 168 134 l 1,63,-1
 198 204 l 2,64,65
 202 214 202 214 213.5 224 c 128,-1,66
 225 234 225 234 238 241 c 0,67,68
 264 255 264 255 302 261 c 1,69,70
 270 273 270 273 254 290 c 0,71,72
 238 306 238 306 238 314 c 0,73,74
 238 328 238 328 246 353 c 128,-1,75
 254 378 254 378 270 414 c 2,76,-1
 296 474 l 2,77,78
 306 494 306 494 318 522 c 0,79,80
 340 575 340 575 354 606 c 0,81,82
 372 644 372 644 372 670 c 0,83,84
 372 689 372 689 361 696.5 c 128,-1,85
 350 704 350 704 319 704 c 2,86,-1
 282 704 l 2,87,88
 256 704 256 704 238 702 c 0,89,90
 206 702 206 702 204 712 c 0,91,92
 204 721 204 721 212 726 c 0,93,94
 222 730 222 730 238 733 c 0,95,96
 252 735 252 735 265.5 735.5 c 128,-1,97
 279 736 279 736 308 736 c 0,98,99
 356 736 356 736 374 728 c 0,100,101
 400 718 400 718 399 676 c 0,102,0
 398 664 398 664 394 646 c 2,1,-1
EndSplineSet
EndChar

StartChar: section
Encoding: 167 167 96
Width: 496
Flags: W
LayerCount: 2
Fore
SplineSet
546 558 m 2,1,-1
 525 580 l 2,2,3
 510 594 510 594 496 602 c 128,-1,4
 482 610 482 610 464 610 c 128,-1,5
 446 610 446 610 421 597.5 c 128,-1,6
 396 585 396 585 374 564 c 0,7,8
 346 540 346 540 328 509 c 128,-1,9
 310 478 310 478 310 445 c 0,10,11
 310 427 310 427 316 413 c 0,12,13
 323 395 323 395 337.5 372.5 c 128,-1,14
 352 350 352 350 366 332 c 128,-1,15
 380 314 380 314 394 290 c 128,-1,16
 408 266 408 266 415.5 246.5 c 128,-1,17
 423 227 423 227 423 205 c 0,18,19
 422 184 422 184 412 162 c 0,20,21
 392 120 392 120 356 79 c 2,22,-1
 324 41 l 1,23,24
 330 19 330 19 331 12.5 c 128,-1,25
 332 6 332 6 332 -5 c 2,26,-1
 331 -32 l 2,27,28
 328 -44 328 -44 328 -66 c 0,29,30
 326 -97 326 -97 310 -128.5 c 128,-1,31
 294 -160 294 -160 268 -184 c 0,32,33
 241 -210 241 -210 206.5 -226 c 128,-1,34
 172 -242 172 -242 137 -242 c 0,35,36
 90 -242 90 -242 64 -194 c 0,37,38
 44 -160 44 -160 44 -122 c 0,39,40
 44 -114 44 -114 45 -112 c 2,41,-1
 47 -94 l 2,42,43
 48 -86 48 -86 56 -87 c 0,44,45
 64 -87 64 -87 66 -104 c 2,46,-1
 74 -133 l 1,47,-1
 82 -160 l 2,48,49
 86 -174 86 -174 94 -184 c 0,50,51
 102 -196 102 -196 114 -202 c 128,-1,52
 126 -208 126 -208 144 -208 c 0,53,54
 169 -208 169 -208 194.5 -197.5 c 128,-1,55
 220 -187 220 -187 242 -167 c 128,-1,56
 264 -147 264 -147 278 -120 c 0,57,58
 293 -94 293 -94 296 -62 c 0,59,60
 297 -48 297 -48 297 -30 c 0,61,62
 296 -12 296 -12 296 -6 c 0,63,64
 294 18 294 18 284 32 c 0,65,66
 262 58 262 58 242 76 c 0,67,68
 218 98 218 98 203 116 c 256,69,70
 188 134 188 134 180 152 c 0,71,72
 172 168 172 168 172 190 c 0,73,74
 172 198 172 198 173 200 c 0,75,76
 173 240 173 240 215 293 c 0,77,78
 229 312 229 312 250.5 334 c 128,-1,79
 272 356 272 356 293 375 c 1,80,81
 281 399 281 399 277.5 411.5 c 128,-1,82
 274 424 274 424 274 438 c 0,83,84
 274 450 274 450 274 454 c 0,85,86
 276 480 276 480 293 513 c 128,-1,87
 310 546 310 546 336 573 c 0,88,89
 365 605 365 605 399.5 624 c 128,-1,90
 434 643 434 643 470 643 c 0,91,92
 486 643 486 643 504 636 c 128,-1,93
 522 629 522 629 538 617 c 0,94,95
 574 591 574 591 584 556 c 1,96,-1
 568 540 l 1,97,0
 556 546 556 546 546 558 c 2,1,-1
362 278 m 0,98,99
 346 306 346 306 312 347 c 1,100,101
 297 335 297 335 277 315.5 c 128,-1,102
 257 296 257 296 243 278 c 0,103,104
 207 232 207 232 205 200 c 0,105,106
 204 198 204 198 204 193 c 0,107,108
 204 178 204 178 213 162 c 0,109,110
 230 128 230 128 271 94 c 2,111,-1
 300 70 l 1,112,113
 331 103 331 103 347.5 123.5 c 128,-1,114
 364 144 364 144 374.5 165 c 128,-1,115
 385 186 385 186 385 207 c 0,116,117
 386 238 386 238 362 278 c 0,98,99
EndSplineSet
EndChar

StartChar: guillemotleft
Encoding: 171 171 97
Width: 300
Flags: W
LayerCount: 2
Fore
SplineSet
71 365 m 128,-1,1
 76 358 76 358 88 356 c 0,2,3
 90 356 90 356 92 356 c 0,4,5
 101 356 101 356 107 363 c 128,-1,6
 113 370 113 370 113 378 c 0,7,8
 113 384 113 384 111 388 c 128,-1,9
 109 392 109 392 105 394 c 2,10,-1
 100 398 l 2,11,12
 100 400 100 400 100 402 c 0,13,14
 104 412 104 412 106 414 c 0,15,16
 109 420 109 420 112 426 c 2,17,-1
 120 438 l 2,18,19
 122 444 122 444 128 448 c 2,20,-1
 146 474 l 2,21,22
 148 478 148 478 148 482 c 0,23,24
 148 488 148 488 143 492 c 128,-1,25
 138 496 138 496 134 496 c 0,26,27
 128 496 128 496 122 488 c 2,28,-1
 111 474 l 1,29,-1
 101 460 l 2,30,31
 85 434 85 434 76.5 419 c 128,-1,32
 68 404 68 404 66 384 c 2,33,-1
 66 378 l 2,34,0
 66 372 66 372 71 365 c 128,-1,1
171 364 m 0,35,36
 176 358 176 358 187 356 c 0,37,38
 190 356 190 356 192 356 c 0,39,40
 202 356 202 356 207 363 c 128,-1,41
 212 370 212 370 212 378 c 0,42,43
 212 384 212 384 210 388 c 256,44,45
 208 392 208 392 204 394 c 2,46,-1
 199 398 l 2,47,48
 199 400 199 400 199 402 c 0,49,50
 202 410 202 410 206 414 c 0,51,52
 210 420 210 420 212 426 c 2,53,-1
 219 438 l 2,54,55
 224 444 224 444 228 448 c 2,56,-1
 245 474 l 2,57,58
 247 478 247 478 247 482 c 0,59,60
 247 488 247 488 240 494 c 0,61,62
 236 496 236 496 232 496 c 0,63,64
 226 496 226 496 220 488 c 2,65,-1
 210 474 l 1,66,-1
 200 460 l 2,67,68
 186 438 186 438 177 421 c 128,-1,69
 168 404 168 404 166 384 c 2,70,-1
 166 380 l 2,71,72
 166 372 166 372 171 364 c 0,35,36
EndSplineSet
EndChar

